<svg width="111" height="36" viewBox="0 0 111 36" fill="none" xmlns="http://www.w3.org/2000/svg">
<path d="M11.126 15.9059C11.7547 15.7064 12.3214 15.2628 13.0162 13.5777L17.4542 2.75898C17.6114 2.3601 17.5907 2.07111 17.4088 1.717L17.2061 1.25299L18.8936 0.5L24.436 13.598C25.135 15.2587 25.6768 15.7023 26.1483 15.9018V16.1908H22.6574V15.9018C23.3564 15.7023 23.1745 15.2587 22.4548 13.598L21.0816 10.3418H14.7286L13.4009 13.5777C12.8136 15.0185 12.9046 15.7512 13.6697 15.9059V16.1948H11.126V15.9059ZM20.9451 10.0081L17.8596 2.71421L14.8651 10.0081H20.9451ZM30.5408 8.54687C30.5408 4.08995 33.92 0.524421 38.7385 0.524421C40.7445 0.524421 42.8829 1.1024 43.7597 1.6763L43.8507 4.29346L43.6274 4.33824C42.796 2.43336 40.7238 0.923305 38.085 0.923305C34.8423 0.923305 32.4103 3.11717 32.3648 7.19555C32.3193 11.3838 34.9788 15.9751 39.5285 15.9751C41.2161 15.9751 42.6802 15.0877 43.2469 13.9806L43.2262 11.7217C43.2262 10.3459 43.0442 9.81678 42.0764 9.57257V9.308H45.0254V13.4759C43.7184 15.2709 41.1044 16.4228 38.8295 16.4228C33.8083 16.4228 30.5408 13.3213 30.5408 8.55501V8.54687ZM50.667 15.9059C51.3412 15.7064 51.5687 15.1976 51.5687 13.3782V3.49163C51.5687 1.6763 51.3453 1.16345 50.667 0.964007V0.679091H54.315V0.968078C53.616 1.16752 53.4133 1.6763 53.4133 3.4957V13.3823C53.4133 15.2017 53.616 15.7105 54.315 15.9099V16.1989H50.667V15.9099V15.9059ZM60.2213 15.9059C60.8955 15.7064 61.123 15.1976 61.123 13.3782V3.49163C61.123 1.6763 60.8997 1.16345 60.2213 0.964007V0.679091H63.8694V0.968078C63.1704 1.16752 62.9677 1.6763 62.9677 3.4957V14.8435C62.9677 15.4866 63.3276 15.8407 63.9811 15.8407H66.6612C68.8244 15.8407 69.8129 15.3075 70.6029 13.6469L70.8511 13.6917L70.6939 16.1948H60.2213V15.9059ZM75.9963 15.9059C76.6705 15.7064 76.898 15.1976 76.898 13.3782V3.49163C76.898 1.6763 76.6747 1.16345 75.9963 0.964007V0.679091H86.4689L86.7171 3.56082L86.4689 3.62594C85.6789 1.6763 84.3512 1.00878 82.0557 1.00878H78.7427V7.72468H81.6256C84.1941 7.72468 84.8476 7.2159 85.1164 6.21869H85.3853V9.56443H85.1164C84.8476 8.56722 84.1941 8.05844 81.6256 8.05844H78.7427V14.8639C78.7427 15.507 79.1026 15.8611 79.7561 15.8611H82.6844C84.8476 15.8611 86.2208 15.2628 87.0314 13.1992L87.2796 13.2439L87.0976 16.1908H75.9922V15.9018L75.9963 15.9059ZM65.681 22.2839L61.7393 28.8574L61.7765 28.894C62.4631 28.0922 64.5725 25.4872 65.7554 25.4872C66.2352 25.4872 66.442 25.9227 66.442 26.4356C66.442 27.5834 64.4609 29.1301 64.4609 30.0784C64.4609 30.2412 64.5725 30.3349 64.7586 30.3349C65.1474 30.3349 65.7595 30.0418 66.9052 28.7678C67.6456 27.9497 67.6828 27.8398 67.7573 27.8398C67.8111 27.8398 67.8483 27.8927 67.8483 27.9294C67.8483 28.0189 67.8111 28.0026 67.2734 28.6213C66.016 30.0947 65.2384 30.5506 64.7007 30.5506C64.1258 30.5506 63.9066 30.0784 63.9066 29.3865C63.9066 27.9497 65.8878 26.692 65.8878 25.9431C65.8878 25.8169 65.7761 25.707 65.6479 25.707C64.9448 25.707 62.2232 27.9294 59.5223 32.5898L57.9879 35.2476L56.747 35.3209L63.0959 25.1779L63.0587 25.1412C62.095 26.2524 60.577 28.1288 60.5067 28.1288C60.4364 28.1288 60.3951 28.0922 60.3951 28.0393C60.3951 27.9497 60.4488 27.966 61.487 26.7286C63.2283 24.6365 63.3937 24.4534 64.7255 22.4508L65.6893 22.288L65.681 22.2839ZM74.7473 19.5894C69.937 27.0543 68.3819 29.2766 68.3819 30.0947C68.3819 30.2046 68.5101 30.3308 68.6796 30.3308C69.2545 30.3308 69.8998 29.8586 70.8262 28.9469C71.6576 28.1084 71.79 27.8357 71.881 27.8357C71.9554 27.8357 71.9719 27.8886 71.9719 27.9253C71.9719 27.9782 71.5294 28.4707 71.2688 28.7434C70.1976 29.8709 69.3249 30.5465 68.6217 30.5465C67.993 30.5465 67.8276 30.111 67.8276 29.6348C67.8276 28.544 68.4397 28.0311 69.7137 25.9553L69.6764 25.9187C69.3621 26.2809 69.0643 26.6472 68.4563 27.3025C67.7531 28.0677 67.6787 28.1939 67.5877 28.1939C67.5339 28.1939 67.5132 28.141 67.5132 28.1044C67.5132 27.9578 69.5482 26.1018 71.306 23.2771L73.5271 19.7075L74.7473 19.5813V19.5894ZM78.4863 25.5808C77.9693 26.1995 75.8227 29.4394 75.8227 30.0784C75.8227 30.225 75.8971 30.3349 76.137 30.3349C76.6912 30.3349 77.6922 29.3865 78.7634 28.1491C78.9868 27.8927 79.0033 27.8561 79.0405 27.8561C79.115 27.8561 79.1522 27.9294 79.1522 27.966C79.1522 28.0026 78.5607 28.6579 78.1347 29.1138C77.2827 29.9889 76.5796 30.5506 76.0791 30.5506C75.5786 30.5506 75.2643 30.2942 75.2643 29.2929C75.2643 29.1667 75.2808 29.0568 75.2808 28.9632C74.7266 29.5086 73.6884 30.5465 72.9853 30.5465C72.0423 30.5465 71.8189 29.708 71.8189 28.8899C71.8189 28.5969 71.8561 28.3242 71.9099 28.0352C71.8727 28.0352 71.8355 28.0881 71.7983 28.0881C71.761 28.0881 71.7238 28.0352 71.7238 27.9985C71.7238 27.9253 71.7775 27.909 72.0216 27.6159C73.0225 26.4152 74.5198 25.4872 75.7978 25.4872C76.3521 25.4872 76.592 25.8861 76.592 26.3786C76.592 26.578 76.5754 26.7612 76.5382 26.8711L76.5754 26.9077C77.2413 25.8698 77.2041 25.6337 77.5929 25.6134L78.4821 25.5768L78.4863 25.5808ZM72.9894 30.3349C74.0648 30.3349 76.3769 27.7136 76.3769 26.3664C76.3769 26.0041 76.1908 25.7111 75.802 25.7111C74.3047 25.7111 72.5634 28.4422 72.5634 29.7528C72.5634 30.0988 72.6917 30.3349 72.9894 30.3349ZM83.3337 22.1048L84.4794 22.0316L83.2759 23.851H85.439C85.4763 23.851 85.53 23.8876 85.53 23.9609C85.53 24.0138 85.5135 24.0708 85.439 24.0708H83.1435C82.5686 25.072 79.6278 29.2237 79.6278 30.0622C79.6278 30.2453 79.7395 30.3349 79.9794 30.3349C80.5336 30.3349 81.183 29.8627 82.0144 29.0405C82.9574 28.1288 83.0691 27.8398 83.1601 27.8398C83.2345 27.8398 83.251 27.8764 83.251 27.9497C83.251 28.0026 82.6596 28.6783 82.2501 29.0609C81.1209 30.1721 80.455 30.5547 79.938 30.5547C79.3094 30.5384 79.0695 30.0825 79.0695 29.6633C79.0695 28.6254 79.6982 27.734 80.7901 26.2036L80.7528 26.1669C80.4013 26.5862 80.1242 26.8792 79.6237 27.4409C79.4583 27.6241 78.9578 28.2224 78.8999 28.2224C78.842 28.2224 78.8089 28.2061 78.8089 28.1491C78.8089 28.0759 78.8834 28.0026 79.603 27.2008C80.1573 26.5984 81.2864 25.2878 82.1385 24.0708H81.4725C81.3981 24.0708 81.3815 24.0179 81.3815 23.9609C81.3815 23.9039 81.4353 23.851 81.456 23.851H82.2336L83.3255 22.1048H83.3337ZM83.9624 30.1883C84.74 30.1354 85.6665 29.5859 86.7005 28.4585C87.1803 27.9497 87.1803 27.8561 87.2754 27.8561C87.3292 27.8561 87.3664 27.8927 87.3664 27.9456C87.3664 28.0189 86.8287 28.6213 86.4399 28.9998C85.6624 29.7813 84.7359 30.3471 83.8135 30.4936L81.1664 35.3535L80.0373 35.5L82.9036 30.3634C82.7175 30.2372 82.6803 30.0337 82.6803 29.8342C82.6803 29.5086 82.9036 29.2685 83.1973 29.2685C83.2883 29.2685 83.3834 29.2847 83.4371 29.3214L85.5672 25.589L85.53 25.5523C84.7897 26.1914 84.4588 26.6269 83.9749 27.1357C83.4372 27.7177 83.1807 28.1003 83.1063 28.1003C83.0525 28.1003 83.0153 28.0474 83.0153 28.0108C83.0153 27.9578 83.3503 27.5549 84.5332 26.2809C85.5341 25.1901 85.8485 25.1534 86.2001 24.5144C87.0314 23.0206 89.2732 19.0318 91.1427 19.0318C91.6431 19.0318 91.8293 19.3411 91.8293 19.8703C91.8293 21.6368 89.145 23.4928 86.167 25.8413L83.9666 30.1761L83.9624 30.1883ZM86.3862 25.4343C87.809 24.2132 91.5315 21.7182 91.5315 19.679C91.5315 19.3859 91.3454 19.2597 91.0145 19.2597C89.5338 19.2597 87.8669 22.463 86.3531 25.3977L86.3903 25.4343H86.3862ZM91.1964 29.0202C91.2337 29.0365 91.2874 29.0568 91.3991 29.0568C92.0278 29.0568 92.6565 28.6946 93.1197 28.1654C93.3596 27.8927 93.3803 27.8561 93.4341 27.8561C93.5085 27.8561 93.5251 27.8927 93.5251 27.9456C93.5251 27.9823 93.4878 28.0555 93.0618 28.491C92.5986 28.9632 91.9534 29.2725 91.2296 29.2725C91.1013 29.2725 91.0434 29.2725 90.9896 29.2563C90.4147 29.8953 89.6578 30.5506 88.6197 30.5506C87.8793 30.5506 87.474 29.9116 87.474 28.9306C87.474 28.2753 87.565 28.0922 87.565 27.9823C87.565 27.909 87.5485 27.8724 87.5112 27.8724C87.3623 27.8724 87.2341 28.1654 87.1762 28.1654C87.1183 28.1654 87.0645 28.1288 87.0645 28.0759C87.0645 27.9863 87.6932 27.3473 88.1399 26.9281C89.2112 25.9268 90.3403 25.4913 91.1758 25.4913C91.8789 25.4913 92.2842 26.0204 92.2842 26.749C92.2842 27.4776 91.7465 28.4788 91.1923 29.0242L91.1964 29.0202ZM91.2337 25.707C89.9391 25.707 88.2185 28.1288 88.2185 29.6592C88.2185 30.168 88.4418 30.3349 88.6983 30.3349C90.1583 30.3349 91.883 28.1858 91.883 26.5292C91.883 26.0937 91.6969 25.7111 91.2337 25.7111V25.707ZM93.6574 30.5506C95.5269 27.5834 96.5072 26.4519 96.5072 25.9634C96.5072 25.8169 96.379 25.707 96.1929 25.707C95.9323 25.707 95.4897 25.9064 94.7494 26.6554C93.6202 27.8032 93.4548 28.1125 93.3803 28.1125C93.3265 28.1125 93.2893 28.0759 93.2893 28.023C93.2893 27.9334 93.918 27.2781 94.3813 26.7653C95.1754 25.9268 95.7503 25.4913 96.2673 25.4913C96.7305 25.4913 96.987 25.9105 96.987 26.346C96.987 27.0746 96.1928 28.312 95.8206 28.8045L95.8578 28.8411C96.8381 27.7136 97.7439 27.1112 97.9134 26.6187C98.0996 26.0896 98.4884 25.4913 99.1336 25.4913C99.448 25.4913 99.5761 25.5808 99.5761 25.7843C99.5761 26.4966 97.504 27.042 97.504 28.2957C97.504 28.662 97.7811 28.9144 98.1161 28.9144C98.4139 28.9144 98.7076 28.7882 98.9475 28.5521C99.3528 28.1532 99.5017 27.8602 99.5761 27.8602C99.6299 27.8602 99.6878 27.8968 99.6878 27.9497C99.6878 28.0026 99.39 28.3323 99.2246 28.5317C98.8523 28.951 98.447 29.0975 98.0955 29.0975C97.6901 29.0975 97.2807 28.8248 97.2807 28.3852C97.2807 27.9456 97.4089 27.6566 97.6529 27.3677L97.6156 27.331C96.6519 28.2061 95.7668 29.2603 94.8197 30.4448L93.6533 30.5547L93.6574 30.5506ZM103.113 30.5506C103.485 29.8749 105.76 26.6187 105.76 25.9797C105.76 25.8169 105.685 25.7233 105.52 25.707C104.742 25.6175 101.615 29.6592 101.078 30.4407L99.874 30.5506C101.669 27.7462 102.703 26.2524 102.703 25.9634C102.703 25.764 102.612 25.707 102.426 25.707C101.909 25.707 101.28 26.2524 100.668 26.8914C99.7995 27.8032 99.6134 28.1125 99.5389 28.1125C99.4645 28.1125 99.448 28.0392 99.448 28.0026C99.448 27.9497 99.8533 27.5101 100.54 26.7449C101.392 25.7965 102 25.4872 102.447 25.4872C102.893 25.4872 103.187 25.7233 103.187 26.1791C103.187 26.981 102.5 27.9823 102.132 28.6376L102.169 28.6742C102.819 27.9823 104.63 25.4872 105.611 25.4872C106.016 25.4872 106.239 25.7233 106.239 26.3053C106.239 27.1072 105.664 27.9985 105.334 28.6009L105.371 28.6376C106.02 27.909 107.869 25.4872 108.907 25.4872C109.259 25.4872 109.557 25.7599 109.557 26.4152C109.557 27.5997 107.761 28.9998 107.67 29.9278C107.654 30.1273 107.761 30.3267 107.968 30.3267C108.303 30.3267 108.969 29.8546 109.652 29.1626C110.892 27.8683 110.818 27.852 110.909 27.852C110.963 27.852 111 27.8683 111 27.9416C111 28.0311 110.425 28.6335 109.945 29.126C109.019 30.0744 108.427 30.5465 107.91 30.5465C107.356 30.5465 107.116 30.0744 107.116 29.3824C107.116 27.852 109.077 26.5414 109.077 25.8698C109.077 25.7965 109.023 25.707 108.837 25.707C107.782 25.707 104.783 29.6958 104.283 30.4407L103.117 30.5506H103.113ZM0 27.3839H51.9078V26.9769H0V27.3839Z" fill="#D0D0D0"/>
</svg>
