<svg width="151" height="21" viewBox="0 0 151 21" fill="none" xmlns="http://www.w3.org/2000/svg">
<path d="M137.202 10.1275C136.967 10.2365 136.74 9.90942 136.748 9.62675C136.748 9.52984 136.785 9.38851 136.69 9.26736C136.517 9.04123 135.956 8.55262 135.511 8.20939C135.337 8.07613 135.057 7.7329 135.057 7.7329C135.057 7.7329 135.011 8.02768 135.597 10.4142C135.973 11.9406 135.985 13.3054 136.014 13.79C136.051 14.4038 135.997 14.747 135.849 14.9772C135.7 15.2074 135.172 15.4739 135.172 15.4739C135.172 15.4739 134.789 17.4566 134.706 17.824C134.578 18.3692 134.467 19.3343 134.525 19.73C134.595 20.2388 135.061 20.4245 135.329 20.4932C136.026 20.6749 136.158 20.8082 136.01 20.9737H133.638C133.415 20.9737 133.209 20.6991 133.366 20.3478C133.485 20.0853 133.543 19.8148 133.539 19.5887C133.539 19.4716 133.514 18.7609 133.452 18.2359C133.341 17.295 133.51 16.552 133.51 16.552C133.51 16.552 132.792 17.0043 132.673 17.0972C132.289 17.4041 131.592 17.8038 131.394 17.9896C131.208 18.1632 131.237 18.7649 131.505 19.2252C131.666 19.5039 131.563 20.1257 131.216 19.7744C131.105 19.6614 130.482 18.7649 130.367 18.5913C130.301 18.4943 129.855 18.1955 130.103 17.8644C130.226 17.7029 130.457 17.6423 130.561 17.5656C131.398 16.9599 132.466 15.2074 133.403 14.6461C133.848 14.3796 133.968 14.3069 133.968 14.3069C133.836 13.9515 133.452 12.8209 133.159 12.1465C132.759 11.2177 132.458 10.5555 132.565 9.52176C132.607 9.14622 132.862 8.50417 132.904 8.41533C133.209 7.74501 133.114 6.74761 133.114 6.74761C133.019 6.87279 132.788 7.35332 132.763 7.3937C132.71 7.4785 132.582 7.95499 132.553 8.0519C132.351 8.73433 132.025 9.36427 131.827 9.93768C131.806 9.99421 131.881 10.9391 131.089 10.7332C130.688 10.6282 130.853 10.1073 131.072 9.93768C131.109 9.90941 131.311 9.68732 131.328 9.63079C131.588 8.80298 131.732 7.55926 131.967 6.97778C132.054 6.76376 132.648 5.32621 132.813 4.78107C133.135 3.73521 133.609 2.52782 133.708 2.05133C133.828 1.486 133.84 0.791457 134.199 0.456297C134.789 -0.0928797 135.407 0.0201888 135.754 0.238245C136.204 0.516871 136.245 1.30833 136.179 1.59099C136.047 2.16036 135.828 2.78223 135.358 2.69743C135.044 2.64089 135.04 2.91952 135.049 3.08508C135.057 3.28295 135.201 3.77963 135.387 4.14305C135.614 4.59532 135.96 5.07989 135.96 5.5483C135.96 6.01672 135.403 6.38418 135.395 6.53763C135.387 6.67492 135.742 6.9697 135.985 7.29275C136.373 7.80155 136.81 8.48397 137.057 8.8151C137.123 8.90393 137.35 9.13411 137.429 9.26736C137.548 9.46523 137.59 9.93364 137.189 10.1154L137.202 10.1275ZM150.398 19.4554C150.212 19.4675 148.999 19.5402 148.839 19.3666C148.195 18.6761 147.531 16.2088 147.16 15.4456C146.953 15.0216 145.918 11.5448 145.188 10.0386L145.2 9.09372C145.2 9.09372 145.505 9.21487 145.576 9.25929C145.831 9.42081 146.706 9.93768 147.069 10.3496C147.184 10.4828 147.37 10.7816 147.407 10.8462C147.568 11.1047 148.018 11.0966 148.327 10.9028C148.475 10.8099 148.595 10.3374 148.199 10.0709C148.084 9.99421 147.684 9.84481 147.457 9.66309C147.304 9.53791 145.992 8.38706 145.827 8.20939C145.72 8.09228 145.242 7.65617 145.242 7.65617C145.217 7.3412 145.06 5.47158 144.854 4.66396C144.746 4.23997 144.639 3.96942 144.643 3.75944C144.643 3.60196 144.606 2.85491 144.973 2.91952C145.567 3.02451 145.906 1.83732 145.827 1.13065C145.761 0.528982 145.386 0 144.528 0C144.198 0 143.575 0.319005 143.451 0.856068C143.299 1.53446 143.447 1.78482 143.451 2.12806C143.451 2.22497 143.464 2.4188 143.451 2.51571C143.439 2.62878 143.352 3.19814 143.216 3.35159C143.026 3.56561 142.535 3.84827 142.09 4.56301C141.743 5.12026 141.43 6.43264 141.195 7.19987C140.832 8.39514 140.638 10.2365 140.357 10.6928C140.155 11.0199 140.052 11.3672 140.081 11.7023C140.143 12.3807 140.91 12.203 141.063 11.9083C141.224 11.6014 141.207 11.1612 141.228 10.9472C141.282 10.3778 142.243 7.81366 142.243 7.81366C142.243 7.81366 142.181 9.51772 142.156 9.80039C142.156 9.80039 141.966 10.4021 141.826 11.246C141.76 11.6296 141.756 11.9688 141.698 12.5907C141.62 13.4629 141.463 14.5451 141.286 15.3285C140.514 16.12 140.089 17.5696 139.334 18.5307C139.207 18.6962 138.538 19.1525 139 19.6896C139.248 19.9803 139.747 20.3842 139.887 20.5053C139.957 20.5659 140.353 20.9414 140.63 20.9778C140.819 21.002 141.174 20.9979 141.207 20.8001C141.224 20.6951 140.824 20.5093 140.782 20.4569C140.56 20.1863 140.403 19.7461 140.382 19.4998C140.37 19.3868 140.419 19.2979 140.461 19.2212C140.601 18.9385 142.16 16.8428 142.61 16.0796C143.059 15.3164 143.624 13.4468 143.95 12.6634C144.21 13.4427 145.538 15.704 146.141 16.8105C146.413 17.6423 146.854 18.3894 147.65 19.8027C147.791 20.053 147.82 20.6264 148.026 20.7314C148.158 20.796 148.348 20.7637 148.698 20.5901C149.717 20.0934 151 20.0207 151 19.7825C151 19.5685 150.571 19.4514 150.394 19.4635L150.398 19.4554ZM116.96 12.8532L116.965 12.841C116.96 12.841 116.956 12.841 116.96 12.8532ZM24.2262 12.0011C24.1024 12.2394 22.9763 12.1869 21.3098 12.1869C20.7117 12.1869 19.2968 12.3282 19.2968 11.8881C19.2968 11.5933 19.9279 10.6686 20.1548 10.2284L21.5738 7.76924C21.8048 7.36543 21.813 7.11103 22.143 7.11103C22.2915 7.11103 22.5102 7.43004 22.6834 7.89038L23.4342 9.8125C23.661 10.4222 24.3334 11.779 24.2262 11.9971V12.0011ZM24.2262 12.0011C24.1024 12.2394 22.9763 12.1869 21.3098 12.1869C20.7117 12.1869 19.2968 12.3282 19.2968 11.8881C19.2968 11.5933 19.9279 10.6686 20.1548 10.2284L21.5738 7.76924C21.8048 7.36543 21.813 7.11103 22.143 7.11103C22.2915 7.11103 22.5102 7.43004 22.6834 7.89038L23.4342 9.8125C23.661 10.4222 24.3334 11.779 24.2262 11.9971V12.0011ZM24.2262 12.0011C24.1024 12.2394 22.9763 12.1869 21.3098 12.1869C20.7117 12.1869 19.2968 12.3282 19.2968 11.8881C19.2968 11.5933 19.9279 10.6686 20.1548 10.2284L21.5738 7.76924C21.8048 7.36543 21.813 7.11103 22.143 7.11103C22.2915 7.11103 22.5102 7.43004 22.6834 7.89038L23.4342 9.8125C23.661 10.4222 24.3334 11.779 24.2262 11.9971V12.0011ZM24.2262 12.0011C24.1024 12.2394 22.9763 12.1869 21.3098 12.1869C20.7117 12.1869 19.2968 12.3282 19.2968 11.8881C19.2968 11.5933 19.9279 10.6686 20.1548 10.2284L21.5738 7.76924C21.8048 7.36543 21.813 7.11103 22.143 7.11103C22.2915 7.11103 22.5102 7.43004 22.6834 7.89038L23.4342 9.8125C23.661 10.4222 24.3334 11.779 24.2262 11.9971V12.0011ZM24.2262 12.0011C24.1024 12.2394 22.9763 12.1869 21.3098 12.1869C20.7117 12.1869 19.2968 12.3282 19.2968 11.8881C19.2968 11.5933 19.9279 10.6686 20.1548 10.2284L21.5738 7.76924C21.8048 7.36543 21.813 7.11103 22.143 7.11103C22.2915 7.11103 22.5102 7.43004 22.6834 7.89038L23.4342 9.8125C23.661 10.4222 24.3334 11.779 24.2262 11.9971V12.0011ZM24.2262 12.0011C24.1024 12.2394 22.9763 12.1869 21.3098 12.1869C20.7117 12.1869 19.2968 12.3282 19.2968 11.8881C19.2968 11.5933 19.9279 10.6686 20.1548 10.2284L21.5738 7.76924C21.8048 7.36543 21.813 7.11103 22.143 7.11103C22.2915 7.11103 22.5102 7.43004 22.6834 7.89038L23.4342 9.8125C23.661 10.4222 24.3334 11.779 24.2262 11.9971V12.0011ZM24.2262 12.0011C24.1024 12.2394 22.9763 12.1869 21.3098 12.1869C20.7117 12.1869 19.2968 12.3282 19.2968 11.8881C19.2968 11.5933 19.9279 10.6686 20.1548 10.2284L21.5738 7.76924C21.8048 7.36543 21.813 7.11103 22.143 7.11103C22.2915 7.11103 22.5102 7.43004 22.6834 7.89038L23.4342 9.8125C23.661 10.4222 24.3334 11.779 24.2262 11.9971V12.0011ZM100.894 18.7487C100.894 18.8416 100.881 18.9305 100.861 19.0153C100.836 19.1001 100.803 19.1808 100.762 19.2535C100.72 19.3262 100.667 19.3948 100.609 19.4554C100.551 19.516 100.481 19.5685 100.411 19.6089C100.337 19.6533 100.258 19.6856 100.172 19.7098C100.085 19.734 99.9984 19.7461 99.9077 19.7461C99.8169 19.7461 99.7303 19.734 99.6437 19.7098C99.5612 19.6856 99.4828 19.6533 99.4085 19.6089C99.3343 19.5685 99.2683 19.516 99.2105 19.4554C99.1528 19.3948 99.0992 19.3302 99.0579 19.2535C99.0167 19.1808 98.9837 19.1001 98.9631 19.0153C98.9424 18.9305 98.93 18.8416 98.93 18.7487C98.93 18.6559 98.9424 18.567 98.9631 18.4822C98.9878 18.3974 99.0167 18.3167 99.0579 18.244C99.0992 18.1713 99.1528 18.1027 99.2105 18.0421C99.2683 17.9815 99.3384 17.929 99.4085 17.8846C99.4828 17.8402 99.5612 17.8079 99.6437 17.7836C99.7262 17.7594 99.8169 17.7473 99.9077 17.7473C100.048 17.7473 100.176 17.7715 100.295 17.824C100.415 17.8765 100.522 17.9492 100.609 18.038C100.7 18.1269 100.77 18.2359 100.819 18.3571C100.869 18.4782 100.894 18.6074 100.894 18.7447V18.7487ZM100.44 19.2414L100.345 19.1404C100.345 19.1404 100.32 19.1243 100.304 19.1243C100.279 19.1364 100.254 19.1485 100.229 19.1647C100.205 19.1768 100.184 19.1929 100.155 19.205C100.126 19.2172 100.097 19.2252 100.06 19.2333C100.023 19.2414 99.9778 19.2454 99.9242 19.2454C99.8623 19.2454 99.8004 19.2333 99.7468 19.2131C99.6932 19.1929 99.6437 19.1566 99.6066 19.1162C99.5653 19.0758 99.5364 19.0233 99.5117 18.9587C99.491 18.8981 99.4787 18.8255 99.4787 18.7447C99.4787 18.6639 99.491 18.5993 99.5117 18.5347C99.5323 18.4742 99.5653 18.4217 99.6066 18.3772C99.6478 18.3328 99.6973 18.3005 99.755 18.2763C99.8128 18.2521 99.8788 18.2399 99.953 18.2399C100.011 18.2399 100.064 18.248 100.102 18.2561C100.143 18.2682 100.176 18.2803 100.201 18.2965C100.225 18.3086 100.246 18.3248 100.262 18.3369C100.279 18.349 100.295 18.353 100.308 18.353C100.32 18.353 100.328 18.353 100.337 18.3449C100.345 18.3369 100.353 18.3328 100.357 18.3248L100.427 18.2238C100.37 18.1673 100.3 18.1188 100.221 18.0865C100.143 18.0502 100.048 18.034 99.9324 18.034C99.8293 18.034 99.7344 18.0502 99.6478 18.0865C99.5612 18.1228 99.4869 18.1713 99.4209 18.2319C99.3549 18.2924 99.3096 18.3692 99.2724 18.454C99.2394 18.5428 99.2188 18.6357 99.2188 18.7407C99.2188 18.8457 99.2353 18.9385 99.2683 19.0274C99.3013 19.1162 99.3467 19.1889 99.4085 19.2495C99.4663 19.3141 99.5405 19.3625 99.623 19.3948C99.7055 19.4312 99.8004 19.4473 99.9035 19.4473C100.023 19.4473 100.126 19.4271 100.213 19.3908C100.3 19.3545 100.37 19.302 100.432 19.2333L100.44 19.2414ZM100.894 18.7487C100.894 18.8416 100.881 18.9305 100.861 19.0153C100.836 19.1001 100.803 19.1808 100.762 19.2535C100.72 19.3262 100.667 19.3948 100.609 19.4554C100.551 19.516 100.481 19.5685 100.411 19.6089C100.337 19.6533 100.258 19.6856 100.172 19.7098C100.085 19.734 99.9984 19.7461 99.9077 19.7461C99.8169 19.7461 99.7303 19.734 99.6437 19.7098C99.5612 19.6856 99.4828 19.6533 99.4085 19.6089C99.3343 19.5685 99.2683 19.516 99.2105 19.4554C99.1528 19.3948 99.0992 19.3302 99.0579 19.2535C99.0167 19.1808 98.9837 19.1001 98.9631 19.0153C98.9424 18.9305 98.93 18.8416 98.93 18.7487C98.93 18.6559 98.9424 18.567 98.9631 18.4822C98.9878 18.3974 99.0167 18.3167 99.0579 18.244C99.0992 18.1713 99.1528 18.1027 99.2105 18.0421C99.2683 17.9815 99.3384 17.929 99.4085 17.8846C99.4828 17.8402 99.5612 17.8079 99.6437 17.7836C99.7262 17.7594 99.8169 17.7473 99.9077 17.7473C100.048 17.7473 100.176 17.7715 100.295 17.824C100.415 17.8765 100.522 17.9492 100.609 18.038C100.7 18.1269 100.77 18.2359 100.819 18.3571C100.869 18.4782 100.894 18.6074 100.894 18.7447V18.7487ZM100.44 19.2414L100.345 19.1404C100.345 19.1404 100.32 19.1243 100.304 19.1243C100.279 19.1364 100.254 19.1485 100.229 19.1647C100.205 19.1768 100.184 19.1929 100.155 19.205C100.126 19.2172 100.097 19.2252 100.06 19.2333C100.023 19.2414 99.9778 19.2454 99.9242 19.2454C99.8623 19.2454 99.8004 19.2333 99.7468 19.2131C99.6932 19.1929 99.6437 19.1566 99.6066 19.1162C99.5653 19.0758 99.5364 19.0233 99.5117 18.9587C99.491 18.8981 99.4787 18.8255 99.4787 18.7447C99.4787 18.6639 99.491 18.5993 99.5117 18.5347C99.5323 18.4742 99.5653 18.4217 99.6066 18.3772C99.6478 18.3328 99.6973 18.3005 99.755 18.2763C99.8128 18.2521 99.8788 18.2399 99.953 18.2399C100.011 18.2399 100.064 18.248 100.102 18.2561C100.143 18.2682 100.176 18.2803 100.201 18.2965C100.225 18.3086 100.246 18.3248 100.262 18.3369C100.279 18.349 100.295 18.353 100.308 18.353C100.32 18.353 100.328 18.353 100.337 18.3449C100.345 18.3369 100.353 18.3328 100.357 18.3248L100.427 18.2238C100.37 18.1673 100.3 18.1188 100.221 18.0865C100.143 18.0502 100.048 18.034 99.9324 18.034C99.8293 18.034 99.7344 18.0502 99.6478 18.0865C99.5612 18.1228 99.4869 18.1713 99.4209 18.2319C99.3549 18.2924 99.3096 18.3692 99.2724 18.454C99.2394 18.5428 99.2188 18.6357 99.2188 18.7407C99.2188 18.8457 99.2353 18.9385 99.2683 19.0274C99.3013 19.1162 99.3467 19.1889 99.4085 19.2495C99.4663 19.3141 99.5405 19.3625 99.623 19.3948C99.7055 19.4312 99.8004 19.4473 99.9035 19.4473C100.023 19.4473 100.126 19.4271 100.213 19.3908C100.3 19.3545 100.37 19.302 100.432 19.2333L100.44 19.2414ZM24.2262 12.0011C24.1024 12.2394 22.9763 12.1869 21.3098 12.1869C20.7117 12.1869 19.2968 12.3282 19.2968 11.8881C19.2968 11.5933 19.9279 10.6686 20.1548 10.2284L21.5738 7.76924C21.8048 7.36543 21.813 7.11103 22.143 7.11103C22.2915 7.11103 22.5102 7.43004 22.6834 7.89038L23.4342 9.8125C23.661 10.4222 24.3334 11.779 24.2262 11.9971V12.0011ZM130.367 8.64954L128.869 9.89327C128.861 9.92961 128.873 10.2082 128.779 10.3173C128.395 10.7534 127.958 10.5595 127.908 10.5595L126.642 11.4075L126.023 10.5474C125.957 10.5797 126.205 12.6674 125.833 14.5451C125.681 15.3366 125.433 17.2304 125.367 17.6908C125.318 18.0138 125.054 19.7219 125.074 19.8188C125.186 20.3115 126.815 20.4286 127.034 20.788C127.091 20.8889 127.009 20.9495 126.997 20.9778H123.985C123.985 20.9778 123.742 20.8001 123.808 20.4972C123.837 20.3559 123.915 20.1378 123.932 20.0773C124.072 19.5079 123.911 18.5711 123.915 18.1592C123.923 17.0528 124.06 15.276 124.064 15.1751C124.064 15.1549 124.084 15.0983 124.064 15.0943C124.039 15.0862 124.022 15.1549 124.01 15.1751C123.981 15.2275 123.222 16.2371 122.455 16.8347C122.278 16.972 121.308 17.9573 121.201 18.135C121.201 18.135 121.387 19.205 121.655 19.2818C122.273 19.4554 123.346 19.1808 123.478 19.5241C123.548 19.7098 123.061 19.9925 122.888 20.049C122.678 20.1217 121.729 20.4891 121.494 20.6103C121.37 20.6749 121.085 20.7072 120.966 20.5295C120.859 20.368 120.846 20.2751 120.805 20.0853C120.71 19.6735 120.31 18.9426 120.31 18.9426C120.265 18.9466 120.067 19.2818 120.05 19.4635C120.025 19.7461 120.182 20.1944 120.252 20.2953C120.359 20.4528 120.483 20.6305 120.574 20.7112C120.669 20.796 120.636 20.9737 120.623 20.9778C120.623 20.9778 120.182 21.0626 119.877 20.901C119.699 20.8041 119.497 20.4972 119.473 20.4609C119.407 20.368 118.693 19.3948 118.553 19.1283C118.495 19.0233 118.503 18.8618 118.553 18.7447C118.61 18.6034 118.986 18.4338 119.163 18.3651C119.357 18.2884 119.732 17.8038 119.737 17.7715C119.745 17.606 118.784 15.7364 118.697 15.6233C117.79 14.4119 116.969 12.8491 116.969 12.8491C116.969 12.8491 116.969 12.8491 116.969 12.8572C116.907 13.0026 115.892 15.3527 115.438 15.9827C115.306 16.1603 113.669 18.6316 113.747 19.52C113.755 19.5806 114.7 19.4917 114.824 19.4796C114.886 19.4756 115.273 19.4352 115.339 19.5523C115.422 19.7058 115.327 19.8309 115.302 19.8754C115.261 19.9481 115.092 20.0248 115.018 20.0692C114.873 20.158 114.18 20.372 114.18 20.372C114.172 20.4205 114.502 20.4811 114.547 20.4972C114.605 20.5215 115.121 20.578 115.187 20.6466C115.414 20.8687 115.042 20.9697 114.997 20.9778H112.147C112.126 20.9778 111.928 20.9454 111.907 20.8647C111.808 20.4932 111.998 19.9844 111.965 19.8713C111.953 19.8269 110.835 17.4243 110.633 17.396C110.365 17.3556 109.094 18.8941 109.094 18.8941C109.222 19.2656 109.304 19.4635 109.494 19.5927C109.783 19.7946 110.579 19.7704 110.769 19.8148C110.802 19.8229 111.227 19.8067 111.297 19.9521C111.392 20.1419 111.239 20.2549 110.888 20.4528C110.785 20.5093 109.247 20.9778 108.801 20.9778H108.43C108.22 20.9778 108.017 20.6507 107.861 20.364C107.786 20.2307 107.118 19.2939 107.197 18.886C107.246 18.6276 107.506 18.3853 107.506 18.3853L106.677 16.5117L106.062 17.4566C106.062 17.4566 106.578 19.9884 106.702 20.0975C106.801 20.1863 107.126 20.4205 107.485 20.5336C107.704 20.6022 107.91 20.9778 107.597 20.9778H0V0.084796H102.321C103.076 0.084796 103.509 0.266511 103.674 0.428034C104.02 0.767232 104.185 1.15488 104.156 1.73636C104.111 2.62878 103.769 3.03662 103.525 3.03662C103.422 3.03662 103.237 3.00836 103.237 3.00836C103.146 3.31525 102.997 3.7877 103.063 4.01383C103.092 4.11075 103.43 4.51456 103.43 4.51456C103.67 3.6706 104.045 3.42428 104.09 3.23449C104.128 3.07701 104.239 2.68531 104.251 2.52379C104.264 2.33804 104.26 1.60311 104.284 1.27602C104.309 1.01355 104.445 0.153441 105.402 0.145365C106.021 0.145365 106.475 0.702618 106.545 1.24372C106.582 1.54657 106.169 3.1295 105.353 3.06085C105.221 3.04874 105.291 3.39601 105.402 3.74328C105.46 3.92096 105.542 4.10267 105.646 4.28843C106.054 4.99913 106.347 5.73001 106.347 5.73001C106.347 5.73001 106.598 4.53071 107.308 3.76751C107.72 3.32332 107.824 2.6409 107.844 2.52379C107.861 2.42688 107.852 2.23305 107.844 2.13613C107.832 1.91404 107.65 1.51831 107.733 0.920679C107.778 0.593595 108.112 0.266507 108.665 0.0888318C108.855 0.0282608 109.416 0.0807596 109.824 0.395729C110.047 0.565328 110.15 1.03778 110.138 1.61118C110.125 2.08364 109.663 3.14969 109.148 3.04874C108.999 3.02047 108.97 3.55349 109.007 3.69887C109.057 3.88058 109.457 4.93855 109.544 5.42312C109.729 6.4811 109.647 7.53907 109.75 7.63195C109.82 7.69252 110.393 8.10843 110.406 8.0196C110.414 7.94691 110.624 6.14997 111.433 4.29246C111.718 3.63829 113.223 2.83472 113.306 2.72165C113.557 2.37438 113.231 2.09979 113.194 1.25583C113.174 0.779341 113.438 0.274587 114.098 0.0928738C114.292 0.040379 114.906 0.0524897 115.401 0.480525C115.62 0.670314 115.661 1.32448 115.513 1.94635C115.426 2.3017 115.232 2.89125 114.597 2.77415C114.424 2.74185 114.415 2.94779 114.403 2.96798C114.395 2.98817 114.444 3.08104 114.436 3.2991C114.436 3.40005 114.329 3.501 114.353 3.57772C114.692 4.67204 115.162 5.70983 115.162 5.70983L115.199 5.54426C114.914 5.04354 115.62 4.05018 115.781 3.63426C116.189 2.58436 115.871 1.9625 116.362 0.916637C116.441 0.747038 116.672 0.27055 117.27 0.214017C117.81 0.157484 118.458 0.41592 118.623 0.730889C118.874 1.2195 118.747 1.72829 118.672 2.03518C118.483 2.7903 118.173 2.97201 117.662 2.97201C117.505 2.97201 117.369 3.85635 117.975 4.74069C118.115 4.94259 118.549 5.42312 118.635 6.06114C118.718 6.64666 118.392 6.89298 118.454 7.55926C118.454 7.59964 119.473 8.73837 119.671 8.85952C119.761 8.91605 120.97 9.62675 121.085 9.71559C121.18 9.78827 121.271 9.93768 121.283 9.96595C121.403 10.2527 121.259 10.5313 121.143 10.5757C121.098 10.5959 120.797 10.6242 120.747 10.6282C120.479 10.6524 120.376 10.4788 120.351 10.4344C120.31 10.3617 120.005 10.0184 119.955 9.96595C119.712 9.71155 118.462 8.91201 118.371 8.96854C118.223 9.06142 118.693 11.0845 118.742 11.2339C118.833 11.5125 120.058 14.5613 120.161 14.852C120.339 15.3487 120.76 16.7701 120.76 16.7701C120.76 16.7701 121.63 15.4052 121.927 15.0337C122.096 14.8278 122.418 14.3957 122.587 14.1857C122.624 14.1413 122.702 14.0444 122.727 13.9919C122.768 13.9031 123.243 12.0132 123.292 11.7831C123.35 11.5125 123.061 11.1612 123.032 10.5555C122.999 9.81654 123.412 9.14622 123.433 9.017C123.441 8.96047 123.428 8.85144 123.433 8.79491C123.445 8.62127 123.532 8.27804 123.544 8.1044C123.552 7.99537 123.544 6.83241 123.544 6.83241C123.544 6.83241 123.301 7.57138 123.103 7.95499C122.938 8.274 122.649 10.0184 122.641 10.1234C122.632 10.184 122.649 10.5555 122.641 10.6161C122.632 10.6888 122.616 10.8301 122.583 10.8947C122.562 10.9351 122.434 11.141 122.414 11.1733C122.385 11.2097 122.261 11.4721 122.047 11.5327C121.622 11.6498 121.432 11.242 121.399 10.9512C121.378 10.7897 121.539 10.6686 121.593 10.6161C121.626 10.5878 121.704 10.5394 121.733 10.507C121.758 10.4788 121.816 10.4101 121.82 10.3698C121.836 10.2082 121.659 8.61723 121.972 7.37754C122.08 6.95759 122.269 6.43668 122.36 6.2267C122.447 6.02076 122.665 5.62906 122.756 5.42312C122.855 5.20507 123.164 4.36111 123.437 3.98961C123.738 3.58176 124.472 3.06489 124.678 2.83068C124.695 2.81049 124.703 2.70147 124.703 2.6732C124.728 2.05537 124.447 1.7929 124.472 1.30025C124.501 0.694542 124.922 0.218051 125.499 0.121137C126.337 -0.0201953 126.617 0.403801 126.745 0.537058C127.013 0.815684 127.013 1.44563 127.001 1.5062C126.984 1.56677 126.708 2.98817 126.085 2.89125C125.792 2.84683 125.759 2.93567 125.788 3.25872C125.788 3.29506 125.837 3.41216 125.846 3.58176C125.854 3.70694 125.763 3.74732 125.755 3.77559C125.705 3.92904 125.854 4.33285 125.99 4.65589C126.151 5.03143 126.163 5.79462 126.155 6.27515C126.147 6.8001 126.155 7.45023 126.184 7.45427C126.341 7.48657 128.238 5.77443 128.238 5.77443L130.396 8.66569L130.367 8.64954ZM39.6578 2.41072C39.6578 2.15228 39.0721 2.11594 38.7462 2.11594C38.0903 2.11594 36.9766 2.1644 36.2052 2.1644C34.2664 2.1644 33.4497 2.14017 32.8887 2.14017C32.4679 2.14017 31.7625 2.28151 31.7295 2.58436C31.6223 3.54946 32.8433 2.59648 33.7054 3.79175C34.0767 4.30458 33.8251 5.85924 33.7797 6.259C33.7797 6.259 33.1155 14.6945 32.8639 16.5803C32.7814 17.1981 32.3731 17.6383 32.0843 17.8886C31.7213 18.2036 31.4449 18.2319 31.2758 18.2723C31.0489 18.2238 30.7437 18.1632 30.3807 17.8927C29.9764 17.5898 29.5845 16.5359 29.2628 15.5627C29.2628 15.5627 27.8809 11.8235 26.5238 8.26188C25.2863 5.01528 24.2839 1.98673 23.9911 1.98673C23.6404 1.98673 23.2857 3.02451 23.1372 3.27083L14.9325 17.0608C14.3097 18.2076 13.0433 18.1592 13.0433 18.7447C13.0433 18.9385 13.1423 19.0556 13.563 19.0556H19.0204C19.2473 19.0556 19.2927 18.7972 19.2927 18.6962C19.2927 17.7675 16.566 18.5509 16.731 16.7459C16.8548 15.4012 17.8819 13.58 18.7028 13.4589C19.0493 13.4104 19.9403 13.4346 21.2603 13.4346C23.0052 13.4346 23.7889 13.4548 24.3623 13.5356C25.2203 13.6567 25.7359 16.5843 25.6864 16.8993C25.4142 18.6034 23.8261 18.1552 23.8343 18.7407C23.8343 18.882 23.8137 19.0637 24.2633 19.0637H30.9087C31.0035 19.0637 31.1438 19.0637 31.2799 19.0395C31.3336 19.0395 31.4037 19.0395 31.4903 19.0395H38.1027C38.2182 19.0395 38.7173 18.9587 38.7338 18.6357C38.771 17.719 36.4403 18.454 36.5022 16.1078C36.5146 15.5667 37.2694 7.40177 37.5994 4.48225C37.7933 2.74184 39.6537 3.20219 39.6537 2.42284L39.6578 2.41072ZM54.3346 14.5451C53.7984 14.5047 53.2415 17.6665 47.9078 17.7473C46.4022 17.7715 46.1217 17.5777 46.1753 16.0311C46.1836 15.8171 46.3032 14.7753 46.3692 13.7658C46.4558 12.413 46.394 11.0118 46.8477 10.7897C47.6727 10.4424 48.7287 10.5192 48.7287 10.5192C51.3935 10.4626 50.7582 12.8814 51.3646 12.9259C51.6245 12.946 51.7977 12.6755 51.806 12.4332C51.8967 10.1154 52.0782 8.7626 52.2308 7.86615C52.3051 7.43004 52.2515 7.19987 51.9586 7.19987C51.2243 7.19987 51.7523 8.97662 49.3639 9.40062L47.5201 9.47734C46.8436 9.47734 46.7405 9.31985 46.8271 8.66973C46.9302 7.88634 47.0045 6.84048 47.0787 6.04902C47.1901 4.82145 47.2313 3.85635 47.4747 3.62618C47.9202 3.20622 48.5967 3.37178 49.2402 3.37178C50.2921 3.37178 52.4453 3.39601 53.0847 4.17132C53.7447 4.83356 53.3033 6.39226 53.9922 6.24688C54.4212 6.15401 54.3552 5.7179 54.3635 4.78511C54.3676 4.23189 54.5862 3.30314 54.6027 2.40668C54.6027 2.16844 54.281 2.1321 53.9922 2.1321C53.456 2.1321 52.1071 2.13613 46.6126 2.13613C45.0574 2.13613 43.5229 2.11191 41.9678 2.11191C41.8936 2.11191 41.3037 2.18055 41.3161 2.5884C41.3367 3.40005 43.424 2.63686 43.424 4.40957C43.424 4.79319 43.4817 5.86731 43.4116 7.15141L42.4711 16.2371C42.1576 18.6599 40.3591 17.6787 40.3591 18.8255C40.3591 18.9708 40.5983 19.0274 40.9407 19.0274H51.5543C53.0146 18.7689 54.2108 17.501 54.6605 15.2074C54.8131 14.4199 54.3346 14.5411 54.3346 14.5411V14.5451ZM67.4109 2.37842C67.2087 2.37842 66.6477 2.87106 66.4456 2.87106C65.6866 2.87106 64.0449 1.8777 62.2752 1.8777C59.6724 1.8777 56.7849 4.20766 56.8302 6.67896C56.855 8.11247 56.8302 9.38447 58.2492 10.5232C60.3117 12.1304 62.1432 12.2757 63.6406 12.9945C64.6141 13.4629 65.3442 14.1615 65.2329 15.4295C65.0555 17.4202 63.2405 18.2601 61.6235 18.2601C60.0065 18.2601 58.7442 17.2668 57.9894 16.2694C57.0365 15.0095 56.8797 13.6244 56.3971 13.6164C56.1207 13.6164 55.8732 13.7456 55.964 14.2584C56.0918 14.9853 56.5662 17.9977 56.5662 17.9977C56.6281 18.2682 57.383 18.4419 58.3235 18.6599C59.264 18.878 60.3901 19.1485 61.2027 19.2373C63.9747 19.5402 67.7656 17.2708 67.6377 12.7038C67.5841 10.8341 65.8351 9.45311 64.1851 8.91605C60.1962 7.61579 59.1361 6.98989 59.2846 5.25352C59.4331 3.52523 60.9635 2.99221 62.5062 3.00028C63.7355 3.00836 65.1875 3.91692 65.897 4.88202C66.8787 6.21458 66.6642 7.28063 67.2253 7.26044C67.4769 7.25237 67.7326 7.01412 67.7326 6.79203C67.7326 6.02479 67.7574 3.21026 67.7574 3.21026C67.7574 2.86299 67.844 2.38246 67.415 2.38246L67.4109 2.37842ZM81.737 14.5451C81.2008 14.5047 80.6439 17.6665 75.3102 17.7473C73.8046 17.7715 73.5241 17.5777 73.5777 16.0311C73.586 15.8171 73.7056 14.7753 73.7716 13.7658C73.8583 12.413 73.7964 11.0118 74.2501 10.7897C75.0751 10.4424 76.1311 10.5192 76.1311 10.5192C78.7959 10.4626 78.1648 12.8814 78.767 12.9259C79.0269 12.946 79.2001 12.6755 79.2084 12.4332C79.2991 10.1154 79.4806 8.7626 79.6332 7.86615C79.7075 7.43004 79.6539 7.19987 79.361 7.19987C78.6268 7.19987 79.1548 8.97662 76.7664 9.40062L74.9225 9.47734C74.246 9.47734 74.1429 9.31985 74.2295 8.66973C74.3326 7.88634 74.4069 6.84048 74.477 6.04902C74.5925 4.82145 74.6296 3.85635 74.8771 3.62618C75.3226 3.20622 75.9991 3.37178 76.6426 3.37178C77.6945 3.37178 79.8478 3.39601 80.4871 4.17132C81.1471 4.83356 80.7058 6.39226 81.3946 6.24688C81.8236 6.15401 81.7576 5.7179 81.7659 4.78511C81.77 4.23189 81.9886 3.30314 82.0051 2.40668C82.0051 2.16844 81.6834 2.1321 81.3946 2.1321C80.8584 2.1321 79.5095 2.13613 74.015 2.13613C72.4599 2.13613 70.9254 2.11191 69.3702 2.11191C69.296 2.11191 68.7061 2.18055 68.7185 2.5884C68.7391 3.40005 70.8264 2.63686 70.8264 4.40957C70.8264 4.79319 70.8841 5.86731 70.814 7.15141L69.8735 16.2371C69.56 18.6599 67.7615 17.6787 67.7615 18.8255C67.7615 18.9708 68.0007 19.0274 68.3431 19.0274H78.9568C80.417 18.7689 81.6133 17.501 82.0629 15.2074C82.2155 14.4199 81.737 14.5411 81.737 14.5411V14.5451ZM99.0126 14.5492C99.0126 14.3109 98.9177 14.3311 98.7032 14.3311C98.0803 14.3311 95.9724 17.4727 92.1527 17.4243C88.5969 17.3798 86.7737 14.0323 86.8685 10.6242C87.0707 3.49293 91.7195 2.81453 92.9488 2.92356C94.211 3.03258 95.1969 3.27891 95.9683 3.74733C98.2865 5.15257 98.7155 7.69251 99.1899 7.66021C99.623 7.6279 99.524 7.29275 99.5075 6.64262C99.491 6.03287 99.5158 2.55205 99.3632 2.4188C98.8145 1.95038 98.6083 3.43639 97.9813 3.34756C97.3667 3.25872 95.8074 2.02307 92.3548 2.02307C89.8427 2.02307 86.8479 3.15373 85.0535 5.50388C83.7129 7.26044 83.1808 9.6106 83.0322 11.3147C82.5868 16.4147 86.753 19.205 91.1008 19.205C95.0484 19.205 99.0126 15.5869 99.0126 14.5492ZM101.054 18.7487C101.054 18.6438 101.042 18.5428 101.013 18.4459C100.984 18.349 100.947 18.2601 100.898 18.1753C100.848 18.0905 100.79 18.0138 100.72 17.9452C100.65 17.8765 100.572 17.816 100.489 17.7675C100.407 17.719 100.312 17.6787 100.217 17.6544C100.122 17.6262 100.019 17.614 99.9118 17.614C99.8046 17.614 99.7055 17.6262 99.6107 17.6544C99.5158 17.6827 99.425 17.719 99.3384 17.7675C99.2559 17.816 99.1775 17.8765 99.1074 17.9452C99.0373 18.0138 98.9795 18.0905 98.93 18.1753C98.8805 18.2601 98.8434 18.349 98.8145 18.4459C98.7857 18.5428 98.7733 18.6438 98.7733 18.7487C98.7733 18.8537 98.7857 18.9547 98.8145 19.0516C98.8393 19.1485 98.8805 19.2374 98.93 19.3222C98.9795 19.407 99.0414 19.4837 99.1074 19.5523C99.1775 19.621 99.2518 19.6775 99.3384 19.73C99.425 19.7784 99.5158 19.8188 99.6107 19.8431C99.7055 19.8713 99.8087 19.8834 99.9118 19.8834C100.015 19.8834 100.118 19.8713 100.217 19.8431C100.316 19.8188 100.407 19.7784 100.489 19.73C100.572 19.6815 100.65 19.621 100.72 19.5523C100.79 19.4837 100.848 19.407 100.898 19.3222C100.947 19.2374 100.984 19.1485 101.013 19.0516C101.038 18.9547 101.054 18.8537 101.054 18.7528V18.7487ZM103.488 20.2025C103.488 20.2025 103.026 19.7058 103.113 19.4716C103.183 19.2818 103.331 18.9305 103.331 18.9305C103.307 18.7972 102.704 17.3112 102.704 17.3112C102.704 17.3112 102.296 19.3545 102.325 19.415C102.626 20.0571 103.488 20.2025 103.488 20.2025ZM104.643 17.1699L103.938 15.6394L103.711 15.9181C103.703 15.9786 104.177 17.8079 104.177 17.8079L104.639 17.1699H104.643ZM105.476 19.9804L105.072 18.5993L104.664 19.3181C104.664 19.3181 104.804 19.9238 104.977 20.053C105.093 20.1378 105.476 19.9804 105.476 19.9804ZM109.639 16.0877C109.647 15.8777 108.632 14.3513 108.521 14.3351C108.269 14.3028 107.737 15.2154 107.737 15.3325C107.745 15.6839 108.512 17.4081 108.512 17.4081C108.512 17.4081 109.63 16.2976 109.639 16.0917V16.0877ZM111.478 11.6377C111.47 11.6094 111.388 12.09 110.864 12.1021C110.418 12.1142 110.204 11.67 110.216 11.3591C110.224 11.1006 110.41 10.8826 110.41 10.8826C110.426 10.8139 110.311 9.50964 110.311 9.50964C110.257 9.42888 109.775 9.15834 109.709 9.19872C109.618 9.25121 109.746 10.2567 109.729 11.0199C109.721 11.4843 110.051 12.1707 110.245 12.6916C110.604 13.6487 110.95 14.3432 110.95 14.3432C111.074 14.3432 111.276 13.7738 111.421 13.2933C111.581 12.7563 111.478 11.6377 111.478 11.6377ZM112.39 15.9019C112.365 15.8938 111.883 16.2896 111.854 16.4107L112.27 17.4525L112.39 15.9019ZM115.645 9.10584C115.636 9.017 114.716 7.46638 114.692 7.46638C114.485 7.82173 114.263 10.3738 114.234 11.1653C114.221 11.5489 114.481 13.257 114.316 14.5815C114.407 13.9636 114.708 11.9406 114.952 11.2541C115.282 10.3334 115.669 9.63079 115.645 9.10584ZM100.832 18.3611C100.881 18.4822 100.906 18.6115 100.906 18.7487C100.906 18.8416 100.894 18.9305 100.873 19.0153C100.848 19.1001 100.815 19.1808 100.774 19.2535C100.733 19.3262 100.679 19.3948 100.621 19.4554C100.564 19.516 100.493 19.5685 100.423 19.6089C100.349 19.6533 100.271 19.6856 100.184 19.7098C100.097 19.734 100.011 19.7461 99.92 19.7461C99.8293 19.7461 99.7427 19.734 99.6561 19.7098C99.5735 19.6856 99.4952 19.6533 99.4209 19.6089C99.3467 19.5685 99.2807 19.516 99.2229 19.4554C99.1652 19.3948 99.1115 19.3302 99.0703 19.2535C99.029 19.1808 98.996 19.1001 98.9754 19.0153C98.9548 18.9305 98.9424 18.8416 98.9424 18.7487C98.9424 18.6559 98.9548 18.567 98.9754 18.4822C99.0002 18.3974 99.029 18.3167 99.0703 18.244C99.1115 18.1713 99.1652 18.1027 99.2229 18.0421C99.2807 17.9815 99.3508 17.929 99.4209 17.8846C99.4952 17.8402 99.5735 17.8079 99.6561 17.7836C99.7385 17.7594 99.8293 17.7473 99.92 17.7473C100.06 17.7473 100.188 17.7715 100.308 17.824C100.427 17.8765 100.535 17.9492 100.621 18.038C100.712 18.1269 100.782 18.2359 100.832 18.3571V18.3611ZM100.452 19.2414L100.357 19.1404C100.357 19.1404 100.333 19.1243 100.316 19.1243C100.291 19.1364 100.267 19.1485 100.242 19.1647C100.217 19.1768 100.196 19.1929 100.168 19.205C100.139 19.2172 100.11 19.2252 100.073 19.2333C100.036 19.2414 99.9902 19.2454 99.9365 19.2454C99.8747 19.2454 99.8128 19.2333 99.7592 19.2131C99.7056 19.1929 99.656 19.1566 99.6189 19.1162C99.5777 19.0758 99.5488 19.0233 99.524 18.9587C99.5034 18.8981 99.491 18.8255 99.491 18.7447C99.491 18.6639 99.5034 18.5993 99.524 18.5347C99.5447 18.4742 99.5777 18.4217 99.6189 18.3772C99.6602 18.3328 99.7097 18.3005 99.7674 18.2763C99.8252 18.2521 99.8912 18.2399 99.9654 18.2399C100.023 18.2399 100.077 18.248 100.114 18.2561C100.155 18.2682 100.188 18.2803 100.213 18.2965C100.238 18.3086 100.258 18.3248 100.275 18.3369C100.291 18.349 100.308 18.353 100.32 18.353C100.333 18.353 100.341 18.353 100.349 18.3449C100.357 18.3369 100.366 18.3328 100.37 18.3248L100.44 18.2238C100.382 18.1673 100.312 18.1188 100.234 18.0865C100.155 18.0502 100.06 18.034 99.9448 18.034C99.8417 18.034 99.7468 18.0502 99.6602 18.0865C99.5736 18.1228 99.4993 18.1713 99.4333 18.2319C99.3673 18.2924 99.3219 18.3692 99.2848 18.454C99.2518 18.5428 99.2312 18.6357 99.2312 18.7407C99.2312 18.8457 99.2477 18.9385 99.2807 19.0274C99.3137 19.1162 99.359 19.1889 99.4209 19.2495C99.4787 19.3141 99.5529 19.3625 99.6354 19.3948C99.7179 19.4312 99.8128 19.4473 99.9159 19.4473C100.036 19.4473 100.139 19.4271 100.225 19.3908C100.312 19.3545 100.382 19.302 100.444 19.2333L100.452 19.2414ZM23.4466 9.81654C23.6734 10.4263 24.3458 11.7831 24.2385 12.0011C24.1148 12.2394 22.9887 12.1869 21.3222 12.1869C20.724 12.1869 19.3092 12.3282 19.3092 11.8881C19.3092 11.5933 19.9403 10.6686 20.1672 10.2284L21.5862 7.76924C21.8172 7.36543 21.8254 7.11103 22.1554 7.11103C22.3039 7.11103 22.5225 7.43004 22.6958 7.89038L23.4466 9.8125V9.81654ZM24.2385 12.0011C24.1148 12.2394 22.9887 12.1869 21.3222 12.1869C20.724 12.1869 19.3092 12.3282 19.3092 11.8881C19.3092 11.5933 19.9403 10.6686 20.1672 10.2284L21.5862 7.76924C21.8172 7.36543 21.8254 7.11103 22.1554 7.11103C22.3039 7.11103 22.5225 7.43004 22.6958 7.89038L23.4466 9.8125C23.6734 10.4222 24.3458 11.779 24.2385 11.9971V12.0011ZM24.2385 12.0011C24.1148 12.2394 22.9887 12.1869 21.3222 12.1869C20.724 12.1869 19.3092 12.3282 19.3092 11.8881C19.3092 11.5933 19.9403 10.6686 20.1672 10.2284L21.5862 7.76924C21.8172 7.36543 21.8254 7.11103 22.1554 7.11103C22.3039 7.11103 22.5225 7.43004 22.6958 7.89038L23.4466 9.8125C23.6734 10.4222 24.3458 11.779 24.2385 11.9971V12.0011ZM24.2385 12.0011C24.1148 12.2394 22.9887 12.1869 21.3222 12.1869C20.724 12.1869 19.3092 12.3282 19.3092 11.8881C19.3092 11.5933 19.9403 10.6686 20.1672 10.2284L21.5862 7.76924C21.8172 7.36543 21.8254 7.11103 22.1554 7.11103C22.3039 7.11103 22.5225 7.43004 22.6958 7.89038L23.4466 9.8125C23.6734 10.4222 24.3458 11.779 24.2385 11.9971V12.0011ZM24.2385 12.0011C24.1148 12.2394 22.9887 12.1869 21.3222 12.1869C20.724 12.1869 19.3092 12.3282 19.3092 11.8881C19.3092 11.5933 19.9403 10.6686 20.1672 10.2284L21.5862 7.76924C21.8172 7.36543 21.8254 7.11103 22.1554 7.11103C22.3039 7.11103 22.5225 7.43004 22.6958 7.89038L23.4466 9.8125C23.6734 10.4222 24.3458 11.779 24.2385 11.9971V12.0011ZM24.2385 12.0011C24.1148 12.2394 22.9887 12.1869 21.3222 12.1869C20.724 12.1869 19.3092 12.3282 19.3092 11.8881C19.3092 11.5933 19.9403 10.6686 20.1672 10.2284L21.5862 7.76924C21.8172 7.36543 21.8254 7.11103 22.1554 7.11103C22.3039 7.11103 22.5225 7.43004 22.6958 7.89038L23.4466 9.8125C23.6734 10.4222 24.3458 11.779 24.2385 11.9971V12.0011ZM24.2385 12.0011C24.1148 12.2394 22.9887 12.1869 21.3222 12.1869C20.724 12.1869 19.3092 12.3282 19.3092 11.8881C19.3092 11.5933 19.9403 10.6686 20.1672 10.2284L21.5862 7.76924C21.8172 7.36543 21.8254 7.11103 22.1554 7.11103C22.3039 7.11103 22.5225 7.43004 22.6958 7.89038L23.4466 9.8125C23.6734 10.4222 24.3458 11.779 24.2385 11.9971V12.0011ZM24.2385 12.0011C24.1148 12.2394 22.9887 12.1869 21.3222 12.1869C20.724 12.1869 19.3092 12.3282 19.3092 11.8881C19.3092 11.5933 19.9403 10.6686 20.1672 10.2284L21.5862 7.76924C21.8172 7.36543 21.8254 7.11103 22.1554 7.11103C22.3039 7.11103 22.5225 7.43004 22.6958 7.89038L23.4466 9.8125C23.6734 10.4222 24.3458 11.779 24.2385 11.9971V12.0011ZM24.2385 12.0011C24.1148 12.2394 22.9887 12.1869 21.3222 12.1869C20.724 12.1869 19.3092 12.3282 19.3092 11.8881C19.3092 11.5933 19.9403 10.6686 20.1672 10.2284L21.5862 7.76924C21.8172 7.36543 21.8254 7.11103 22.1554 7.11103C22.3039 7.11103 22.5225 7.43004 22.6958 7.89038L23.4466 9.8125C23.6734 10.4222 24.3458 11.779 24.2385 11.9971V12.0011Z" fill="#D0D0D0"/>
</svg>
