<svg width="74" height="72" viewBox="0 0 74 72" fill="none" xmlns="http://www.w3.org/2000/svg">
<path d="M50.0788 37.7092C47.4415 36.6956 44.2834 37.4343 42.0596 39.6174C41.9273 39.7488 41.9645 39.8349 42.0596 39.9581C42.5101 40.5203 42.9607 41.0866 43.3988 41.6611C43.5104 41.8088 43.589 41.8417 43.7378 41.7021C44.0023 41.46 44.3041 41.2712 44.6224 41.1071C45.569 40.6188 46.5569 40.3151 47.6399 40.549C48.4708 40.7296 48.8924 41.2425 48.8676 42.0838C48.8593 42.486 48.7725 42.884 48.7353 43.2862C48.7147 43.5037 48.6279 43.5324 48.4295 43.4626C47.7763 43.2328 47.0984 43.1261 46.404 43.1056C43.374 43.0153 40.6707 44.5953 40.1416 47.9357C39.8026 50.0943 40.7451 51.6619 42.8449 52.3021C43.7626 52.5811 44.7051 52.655 45.6889 52.6673C47.5531 52.6304 49.3843 52.2528 51.1783 51.6455C51.3643 51.5839 51.4098 51.4813 51.4346 51.3008C51.8604 48.3256 52.2903 45.3545 52.7325 42.3793C53.0467 40.2658 52.0546 38.4643 50.0746 37.7051L50.0788 37.7092ZM48.136 46.5897C48.012 47.3858 47.8962 48.1819 47.797 48.9822C47.7598 49.2735 47.6647 49.4541 47.334 49.4541C47.1522 49.4541 46.9662 49.4951 46.7843 49.5197C46.3337 49.5567 45.8831 49.5608 45.4284 49.5197C44.6265 49.4418 44.0809 49.0478 43.9651 48.4528C43.8039 47.6156 44.238 46.7087 45.0192 46.3394C45.9989 45.8756 47.0034 45.9905 47.9996 46.3106C48.1525 46.3599 48.1525 46.4543 48.1277 46.5938L48.136 46.5897ZM26.0046 40.9799C25.926 40.2002 25.6284 39.5149 25.1117 38.9321C24.0122 37.701 22.5489 37.3317 20.9781 37.344C18.8493 37.3563 17.047 38.2099 15.5052 39.6421C15.3564 39.7775 15.3481 39.8678 15.4804 40.0278C15.9103 40.5654 16.3278 41.1071 16.7329 41.6611C16.8858 41.8704 16.9726 41.8663 17.1834 41.7103C18.1962 40.9347 19.3164 40.4587 20.6309 40.5531C21.5981 40.627 22.1562 41.1276 22.2099 42.0181C22.2347 42.4942 22.1024 42.962 22.0239 43.4298C21.995 43.6104 21.8999 43.557 21.7883 43.5201C21.2137 43.3354 20.6267 43.2041 20.0191 43.1795C19.6677 43.1508 19.3164 43.1508 18.965 43.1795C15.9351 43.3601 13.8807 45.2355 13.4508 48.2148C13.1697 50.1599 14.0378 51.5839 15.902 52.2446C16.675 52.5196 17.4811 52.6222 18.2913 52.6509C20.3746 52.7289 22.3753 52.3144 24.3387 51.6619C24.5206 51.6003 24.5868 51.5183 24.6157 51.3377C24.8968 49.491 25.1944 47.6484 25.4796 45.8018C25.6615 44.6445 25.831 43.4832 26.0087 42.3259C26.0501 41.8786 26.0501 41.4313 26.0087 40.984L26.0046 40.9799ZM21.4121 46.6471C21.2757 47.4761 21.1476 48.3092 21.0194 49.1422C20.9946 49.3146 20.9244 49.4172 20.726 49.4459C20.2878 49.5156 19.8538 49.5813 19.3164 49.5813C19.1138 49.5895 18.8204 49.569 18.5269 49.5157C17.4935 49.331 17.0388 48.6333 17.3075 47.6197C17.5472 46.7251 18.2747 46.1793 19.4115 46.0767C20.0191 46.0234 20.6143 46.1178 21.1931 46.3024C21.3749 46.3599 21.4452 46.4543 21.4121 46.6512V46.6471ZM46.2304 15.4998C46.189 15.5655 46.156 15.6311 46.1146 15.6927C45.4243 16.7925 44.7299 17.8841 44.0437 18.988C43.9403 19.1562 43.8618 19.1891 43.6758 19.0947C39.4347 16.9197 34.247 18.3068 31.6552 22.2299C31.5106 22.4515 31.3866 22.4597 31.1799 22.3325C30.502 21.9139 29.8199 21.4995 29.1296 21.0973C28.9353 20.9865 28.9477 20.8921 29.0593 20.728C31.5767 17.1044 34.9539 14.8063 39.3934 14.2194C41.6669 13.9199 43.8783 14.24 45.9451 15.2946C46.0485 15.348 46.1725 15.3767 46.2345 15.4998H46.2304ZM21.7098 26.3172C23.6526 26.1408 25.2357 25.2544 26.5792 23.8919C27.1744 23.2887 27.6994 22.6239 28.1417 21.9016C28.2657 21.7005 28.3566 21.7087 28.5344 21.8195C29.2536 22.2628 29.977 22.706 30.7128 23.1245C30.9443 23.2559 30.9608 23.3461 30.8161 23.5595C29.0263 26.2639 26.5461 27.9793 23.3591 28.6441C20.7673 29.1858 18.2706 28.8328 15.8896 27.692C15.5865 27.547 15.5121 27.3309 15.6664 27.0436C15.9392 26.5265 16.2368 26.0177 16.4807 25.4842C16.6337 25.1518 16.7949 25.1723 17.0801 25.3159C18.1383 25.8576 19.2585 26.2105 20.449 26.3131C20.8706 26.3624 21.2923 26.3624 21.7139 26.3131L21.7098 26.3172ZM15.8524 24.7537C15.8194 24.8112 15.7863 24.8768 15.7491 24.9425C15.3936 25.5704 15.0298 26.1941 14.6867 26.8302C14.5793 27.0313 14.5007 27.0395 14.2982 26.941C10.8301 25.201 6.70473 25.7386 3.84013 28.3034C3.26142 28.8205 2.74059 29.3909 2.32723 30.0516C2.18255 30.2856 2.05027 30.3512 1.79812 30.1912C1.34343 29.9039 0.876326 29.629 0.400961 29.3704C0.19428 29.2555 0.161211 29.1693 0.29762 28.96C2.19908 26.108 4.8446 24.3269 8.2011 23.617C10.7639 23.0753 13.2441 23.3708 15.5961 24.5608C15.8194 24.6758 15.84 24.6922 15.8483 24.7578L15.8524 24.7537ZM21.7098 26.3172C21.2881 26.428 20.8665 26.428 20.4449 26.3172C20.8665 26.3172 21.2881 26.3172 21.7098 26.3172ZM69.5605 37.2373C69.2133 37.2373 68.8661 37.2373 68.5188 37.2373C68.8661 37.1265 69.2133 37.1306 69.5605 37.2373ZM20.015 43.1754C19.6636 43.1754 19.3123 43.1754 18.9609 43.1754C19.3123 43.0851 19.6636 43.0851 20.015 43.1754ZM67.8533 40.8363C68.1509 40.7337 68.4486 40.7131 68.7462 40.8363C68.4486 40.8363 68.1509 40.8363 67.8533 40.8363ZM0.049603 48.4651C0.049603 48.1614 0.0702716 47.8372 0.107474 47.4966L0.82259 42.289C0.938331 41.4149 1.19462 40.6639 1.59558 40.0278C1.99654 39.3917 2.4843 38.8747 3.05888 38.4766C3.63345 38.0785 4.26176 37.779 4.95207 37.582C5.64239 37.385 6.32857 37.2824 7.01475 37.2824C7.89521 37.2824 8.69713 37.4548 9.42051 37.7954L10.2224 32.1897H14.2362L11.4832 51.4813C10.5283 51.8219 9.53212 52.0928 8.50285 52.2939C7.46945 52.495 6.48564 52.5935 5.55145 52.5935C4.76606 52.5935 4.01788 52.5196 3.30276 52.3677C2.58764 52.2159 1.97174 51.9451 1.45503 51.5552C0.938331 51.1654 0.545638 50.6401 0.281086 49.9753C0.128142 49.5567 0.0537367 49.056 0.0537367 48.4651H0.049603ZM7.47358 40.4423C7.18836 40.4423 6.89487 40.4792 6.60139 40.5572C6.30377 40.6352 6.03095 40.7501 5.78293 40.9142C5.53491 41.0743 5.31996 41.2836 5.13809 41.5421C4.95621 41.7965 4.83633 42.0961 4.77846 42.4367L4.03441 47.4433C4.01374 47.5951 4.00547 47.7387 4.00547 47.8701C4.00547 48.0958 4.04268 48.305 4.12122 48.4979C4.21629 48.7811 4.36923 49.0109 4.58005 49.1791C4.79086 49.3515 5.04715 49.4746 5.35303 49.5485C5.65892 49.6264 5.97308 49.6634 6.29963 49.6634C6.83287 49.6634 7.33304 49.5608 7.79187 49.3515L8.99475 40.8157C8.78393 40.7008 8.56072 40.6105 8.32097 40.5449C8.08122 40.4792 7.80013 40.4464 7.47358 40.4464V40.4423ZM37.2728 37.5697H41.5428L34.1767 52.3103H30.4234L27.2116 37.5697H31.4527L32.6556 44.9687L32.8292 48.8098H32.8871L34.0031 44.94L37.2687 37.5697H37.2728ZM61.3015 37.2865C61.6653 37.2865 62.0332 37.3111 62.4052 37.3563C62.7772 37.4055 63.1369 37.4999 63.48 37.6394C63.823 37.7831 64.1289 37.9718 64.3976 38.2099C64.6663 38.4479 64.873 38.7557 65.0301 39.1332C65.584 38.4889 66.2288 38.017 66.9646 37.7256C67.7004 37.4302 68.4196 37.2865 69.1306 37.2865C69.8416 37.2865 70.4782 37.3891 71.1065 37.5984C71.7389 37.8077 72.2804 38.1196 72.7393 38.5382C73.1981 38.9567 73.5412 39.4861 73.7727 40.1304C73.9256 40.549 74 41.0127 74 41.5257C74 41.7719 73.9793 42.0387 73.9421 42.3218L72.5367 52.3103H68.5808L69.9863 42.2356C70.0069 42.1618 70.0152 42.0838 70.0152 42.0099C70.0152 41.6857 69.8705 41.4395 69.5853 41.2712C69.2422 41.0455 68.8495 40.9306 68.4114 40.9306C67.9732 40.9306 67.5557 41.0414 67.163 41.2589C66.7703 41.4764 66.5471 41.7965 66.4892 42.211L65.0549 52.3144H61.2437L62.6491 42.3259V42.1536C62.6491 41.7924 62.4962 41.5175 62.1903 41.3287C61.8472 41.0825 61.4255 40.9512 60.9295 40.9306C60.6443 40.9306 60.3508 40.9717 60.0573 41.0579C59.7597 41.144 59.5075 41.2918 59.2967 41.497L57.7756 52.3103H53.8776L55.7418 39.1086C56.4693 38.5587 57.3374 38.1155 58.3501 37.7872C59.3629 37.4548 60.3467 37.2906 61.3015 37.2906V37.2865ZM1.918 63.3945C2.04201 63.3945 2.16188 63.3698 2.28589 63.3165C2.4099 63.2631 2.52151 63.1893 2.62071 63.0908C2.71992 62.9923 2.80673 62.8733 2.877 62.7297C2.94727 62.5901 2.99687 62.426 3.02167 62.2413C2.86046 62.307 2.69925 62.3521 2.53804 62.3808C2.37683 62.4096 2.21975 62.426 2.06267 62.426C1.81052 62.426 1.57077 62.3891 1.34756 62.3111C1.12021 62.2331 0.930064 62.1223 0.768853 61.9746C0.607642 61.8268 0.487767 61.6463 0.409228 61.437C0.355491 61.2975 0.330689 61.1374 0.330689 60.9651C0.330689 60.883 0.338957 60.7927 0.351358 60.6942L0.591107 59.0117C0.636577 58.7039 0.735784 58.4372 0.892861 58.2156C1.0458 57.9899 1.23595 57.8093 1.45917 57.6698C1.68238 57.5302 1.9304 57.4277 2.19908 57.362C2.4719 57.2963 2.74472 57.2676 3.02167 57.2676C3.33583 57.2758 3.64172 57.3209 3.93107 57.4071C4.22042 57.4933 4.46844 57.6164 4.67512 57.7765L3.99721 62.4752C3.95174 62.7871 3.85666 63.0621 3.71612 63.2919C3.57558 63.5217 3.40197 63.7105 3.19942 63.8582C2.99687 64.0059 2.77366 64.1167 2.52564 64.1906C2.28176 64.2645 2.03374 64.3014 1.78159 64.3014C1.59558 64.3014 1.40956 64.2809 1.23182 64.2398C1.04994 64.1988 0.88046 64.1372 0.723383 64.0634C0.566305 63.9854 0.425762 63.891 0.301754 63.7761C0.177745 63.6612 0.0785387 63.5299 0 63.3822L0.727517 62.7789C0.843258 62.9636 1.01274 63.1154 1.23595 63.2303C1.45917 63.3452 1.68652 63.4027 1.918 63.4027V63.3945ZM2.81913 58.2361C2.69098 58.2361 2.56284 58.2525 2.43057 58.2812C2.30242 58.3099 2.18255 58.3551 2.07921 58.4166C1.97173 58.4782 1.8808 58.5562 1.80226 58.6588C1.72372 58.7614 1.67825 58.8763 1.65758 59.0199L1.39716 60.6819V60.7599C1.39716 60.8543 1.41783 60.9404 1.45503 61.0184C1.5005 61.1087 1.56251 61.1826 1.64518 61.24C1.72372 61.2975 1.82293 61.3426 1.93453 61.3754C2.04614 61.4083 2.16601 61.4247 2.28589 61.4247C2.4347 61.4247 2.58351 61.4042 2.73232 61.3672C2.88113 61.3303 3.00927 61.2728 3.12088 61.2031L3.52597 58.4454C3.4433 58.3797 3.33583 58.3305 3.21182 58.2976C3.08781 58.2607 2.95554 58.2443 2.81913 58.2443V58.2361ZM14.1783 58.7244C14.1783 58.8188 14.17 58.9214 14.1576 59.0322L13.6947 62.3357H12.6406L13.0953 59.0815V58.9953C13.0953 58.8927 13.0746 58.8024 13.0374 58.7244C12.9878 58.6218 12.9134 58.5398 12.8266 58.4741C12.7357 58.4084 12.6323 58.3633 12.5125 58.3346C12.3926 58.3058 12.2686 58.2894 12.1404 58.2894C12.004 58.2894 11.8717 58.3058 11.7395 58.3346C11.6072 58.3633 11.4915 58.4084 11.3881 58.4659L10.8466 62.3357H9.78427L10.4415 57.6698C10.7185 57.5426 11.0202 57.4441 11.3426 57.3702C11.6651 57.3004 11.9792 57.2635 12.2892 57.2635C12.5662 57.2717 12.8266 57.3086 13.0746 57.3743C13.3185 57.44 13.5293 57.5466 13.7071 57.6862C13.8848 57.8257 14.0171 58.0063 14.108 58.2238C14.1576 58.3715 14.1866 58.5356 14.1866 58.7244H14.1783ZM17.3529 57.2635C17.5472 57.2635 17.7415 57.2881 17.9399 57.3374C18.1383 57.3866 18.3161 57.4605 18.4773 57.5631C18.6385 57.6657 18.779 57.8011 18.8948 57.9652C19.0105 58.1294 19.0849 58.3346 19.118 58.5685L18.1011 58.9337C18.068 58.708 17.9647 58.548 17.7911 58.4495C17.6175 58.351 17.4273 58.2976 17.2206 58.2894C17.1049 58.2894 16.9892 58.3058 16.8734 58.3346C16.7577 58.3633 16.6543 58.4084 16.5593 58.4659C16.4642 58.5233 16.3857 58.5931 16.3237 58.6752C16.2575 58.7573 16.2203 58.8557 16.2079 58.9624L15.9558 60.6901C15.9475 60.7147 15.9475 60.7435 15.9475 60.7681C15.9475 60.8502 15.964 60.924 15.9971 60.9897C16.0343 61.08 16.0922 61.1538 16.1707 61.2154C16.2492 61.2769 16.3402 61.3221 16.4477 61.3549C16.5551 61.3877 16.6667 61.4042 16.7908 61.4042C16.9974 61.396 17.2 61.3385 17.4067 61.2236C17.6092 61.1087 17.758 60.9404 17.849 60.7229L18.7666 61.1251C18.6633 61.3631 18.531 61.5642 18.3698 61.7284C18.2086 61.8966 18.0308 62.0279 17.8366 62.1305C17.6423 62.2331 17.4397 62.307 17.2289 62.3562C17.0181 62.4055 16.8114 62.4301 16.6213 62.4301C16.3774 62.4301 16.1418 62.3932 15.9186 62.3193C15.6953 62.2454 15.5011 62.1346 15.3399 61.9869C15.1745 61.8392 15.0505 61.6586 14.9678 61.4411C14.9182 61.2934 14.8893 61.1292 14.8893 60.9528C14.8893 60.8707 14.8976 60.7804 14.91 60.6819L15.1497 58.9706C15.1869 58.6834 15.282 58.4331 15.4267 58.2156C15.5713 58.0022 15.7491 57.8216 15.9558 57.6821C16.1624 57.5426 16.3898 57.4358 16.6337 57.3661C16.8776 57.2963 17.1256 57.2594 17.3695 57.2594L17.3529 57.2635ZM19.5479 61.0266C19.5479 60.924 19.5561 60.8214 19.5685 60.7188L20.2961 55.5317H21.3584L20.6309 60.7188C20.6226 60.764 20.6226 60.805 20.6226 60.8419C20.6226 60.9938 20.6722 61.1251 20.7673 61.2359C20.883 61.3713 21.0938 61.437 21.3956 61.437L21.2592 62.426C20.635 62.426 20.1803 62.2742 19.8951 61.9664C19.6636 61.7243 19.5479 61.4083 19.5479 61.0266ZM29.1255 57.2635C29.2081 57.2635 29.2949 57.2635 29.3859 57.2717C29.4768 57.2799 29.576 57.2922 29.6876 57.3209L29.5512 58.2525C29.4396 58.2197 29.3156 58.2033 29.1751 58.2033H29.1089C28.9394 58.2115 28.7824 58.2443 28.6294 58.3058C28.4765 58.3674 28.3442 58.4536 28.2326 58.5685C28.121 58.6834 28.0507 58.8229 28.0259 58.9912L27.5506 62.3316H26.4882L26.9636 58.9706C27.0132 58.6136 27.1455 58.3017 27.3563 58.0391C27.5671 57.7765 27.8151 57.5877 28.1045 57.4728C28.3153 57.3825 28.522 57.3251 28.7245 57.3004C28.9229 57.2758 29.0593 57.2635 29.1296 57.2635H29.1255ZM3.20355 66.8334C3.4433 66.8334 3.67065 66.8662 3.88973 66.936C4.10881 67.0017 4.29896 67.1084 4.45604 67.252C4.61312 67.3956 4.72886 67.5762 4.79913 67.7937C4.84873 67.9332 4.87767 68.0933 4.87767 68.2738C4.87767 68.3682 4.8694 68.4708 4.857 68.5734L4.4023 71.9056H3.34823L3.80293 68.6226C3.81119 68.5775 3.81119 68.5364 3.81119 68.4995C3.81119 68.4174 3.79879 68.3436 3.77399 68.2779C3.72852 68.1835 3.66238 68.1056 3.57971 68.044C3.49704 67.9825 3.39783 67.9373 3.27796 67.9086C3.15808 67.8799 3.04234 67.8634 2.91833 67.8634C2.76952 67.8634 2.62071 67.8799 2.46777 67.9168C2.31483 67.9537 2.18255 68.003 2.06681 68.0768L1.53357 71.9097H0.471232L1.43023 65.1098H2.4843L2.21149 67.0304C2.54217 66.9032 2.86873 66.8375 3.19942 66.8375L3.20355 66.8334ZM12.7315 66.8334C12.8142 66.8334 12.901 66.8334 12.992 66.8416C13.0829 66.8498 13.1821 66.8621 13.2937 66.8909L13.1573 67.8224C13.0457 67.7896 12.9217 67.7732 12.7811 67.7732H12.715C12.5455 67.7814 12.3884 67.8142 12.2355 67.8758C12.0826 67.9373 11.9503 68.0235 11.8387 68.1384C11.7271 68.2533 11.6568 68.3928 11.632 68.5611L11.1566 71.9015H10.0943L10.5697 68.5406C10.6193 68.1835 10.7515 67.8717 10.9624 67.609C11.1732 67.3464 11.4212 67.1576 11.7105 67.0427C11.9213 66.9524 12.128 66.895 12.3306 66.8703C12.529 66.8457 12.6654 66.8334 12.7357 66.8334H12.7315ZM21.4493 66.9278H22.7845L20.3746 69.2218L22.0776 71.9015H20.8293L19.5313 69.8661L19.1924 70.1656L18.9485 71.9056H17.8862L18.8452 65.1057H19.9075L19.366 68.9386L21.4452 66.9319L21.4493 66.9278ZM24.0618 72C23.8344 72 23.6236 71.9631 23.4252 71.8851C23.2268 71.8071 23.049 71.6963 22.9044 71.5486C22.7556 71.4008 22.6481 71.2203 22.5737 71.011C22.5282 70.8756 22.5075 70.7278 22.5075 70.5678C22.5075 70.4775 22.5158 70.3872 22.5282 70.297L22.7804 68.5693C22.8258 68.241 22.9209 67.9701 23.0697 67.7485C23.2185 67.5269 23.4004 67.3464 23.6112 67.211C23.822 67.0755 24.0618 66.977 24.3222 66.9196C24.5826 66.8621 24.8513 66.8334 25.12 66.8334C25.43 66.8334 25.7442 66.8744 26.0625 66.9565C26.3807 67.0386 26.666 67.1453 26.9181 67.2725L26.2691 71.9015H25.4093L25.3308 71.4706C25.1448 71.6553 24.9422 71.7907 24.7232 71.8728C24.5041 71.9549 24.285 71.9959 24.0659 71.9959L24.0618 72ZM25.0869 67.7362C24.9464 67.7362 24.8058 67.7485 24.6653 67.7814C24.5247 67.8101 24.4007 67.8593 24.285 67.925C24.1693 67.9907 24.07 68.0768 23.9832 68.1835C23.9006 68.2902 23.8468 68.4174 23.8303 68.5611L23.5781 70.3011C23.5699 70.3462 23.5699 70.3872 23.5699 70.4242C23.5699 70.5021 23.5823 70.5637 23.6071 70.617C23.6402 70.7073 23.6898 70.7812 23.76 70.8386C23.8303 70.8961 23.9171 70.9412 24.0163 70.97C24.1155 70.9987 24.223 71.0151 24.3387 71.0151H24.3966C24.5661 71.0151 24.7314 70.9905 24.9009 70.9371C25.0869 70.8797 25.244 70.8017 25.3763 70.7073L25.7814 67.9045C25.6904 67.8552 25.583 67.8142 25.4631 67.7855C25.3391 67.7567 25.2151 67.7403 25.0869 67.7403V67.7362ZM29.2081 72H29.0263C28.7865 72 28.5716 71.9631 28.3731 71.8933C28.1747 71.8235 28.0135 71.7169 27.8854 71.5732C27.7572 71.4296 27.6622 71.2449 27.6043 71.0192C27.5712 70.8961 27.5547 70.7607 27.5547 70.6047C27.5547 70.4898 27.563 70.3626 27.5836 70.2313L28.2409 65.6885H29.2081L29.1131 66.9278H30.0721L29.9481 67.8963H28.9891L28.6418 70.219C28.6294 70.297 28.6212 70.3708 28.6212 70.4406C28.6212 70.535 28.6336 70.6211 28.6584 70.6909C28.708 70.8017 28.7824 70.8797 28.8774 70.9371C28.9725 70.9905 29.0841 71.0233 29.2164 71.0397C29.3487 71.052 29.4892 71.0603 29.638 71.0603L29.514 71.9713C29.4231 71.9918 29.3239 72 29.2123 72H29.2081ZM31.3576 71.9056H30.2953L31.0021 66.9196H32.0645L31.3576 71.9056ZM9.70573 67.8019C9.61893 67.5926 9.49905 67.4161 9.32957 67.2684C9.16423 67.1248 8.96995 67.014 8.74673 66.9401C8.52352 66.8662 8.2879 66.8293 8.04815 66.8293C7.8084 66.8293 7.55625 66.8662 7.30823 66.9401C7.06022 67.014 6.83287 67.1248 6.62619 67.2684C6.41951 67.412 6.24589 67.5885 6.09708 67.8019C6.08055 67.8224 6.06815 67.847 6.05575 67.8716L6.93208 68.3887C6.95274 68.3395 6.98168 68.2943 7.01475 68.2492C7.07675 68.163 7.15942 68.0891 7.2545 68.0317C7.34957 67.9742 7.45705 67.9332 7.56865 67.9045C7.68026 67.8758 7.79187 67.8593 7.90347 67.8593C8.00681 67.8593 8.11016 67.8717 8.2135 67.9045C8.31684 67.9332 8.40778 67.9742 8.48631 68.0317C8.56485 68.0891 8.62272 68.163 8.67233 68.2533C8.7054 68.3107 8.72193 68.3764 8.72193 68.4544C8.72193 68.4872 8.72193 68.5159 8.71366 68.5488L8.65579 68.9714H5.77053L5.65892 69.7676L5.58452 70.2805C5.57212 70.3708 5.56798 70.457 5.56798 70.5391C5.56798 70.7237 5.59692 70.892 5.65479 71.0397C5.73746 71.249 5.86147 71.4255 6.02681 71.5732C6.19216 71.7169 6.39057 71.8235 6.61792 71.8933C6.84527 71.9631 7.08502 72 7.3289 72C7.57279 72 7.8084 71.9631 8.05229 71.8933C8.3003 71.8235 8.52352 71.7169 8.7302 71.5732C8.93688 71.4296 9.11049 71.249 9.2593 71.0356C9.40398 70.8222 9.49492 70.5719 9.53625 70.2846L9.78014 68.5529C9.79254 68.4626 9.80081 68.3764 9.80081 68.2943C9.80081 68.1138 9.77187 67.9537 9.714 67.806L9.70573 67.8019ZM8.47805 70.2313C8.45738 70.3462 8.41604 70.4488 8.35404 70.5432C8.2879 70.6376 8.20936 70.7155 8.11016 70.7771C8.01508 70.8428 7.91174 70.8879 7.80013 70.9207C7.69266 70.9535 7.58519 70.97 7.48185 70.97C7.37437 70.97 7.2669 70.9535 7.15942 70.9207C7.05195 70.8879 6.96101 70.8387 6.87834 70.7771C6.79567 70.7155 6.73779 70.6335 6.70059 70.5391C6.66752 70.4816 6.65099 70.416 6.65099 70.338C6.65099 70.3052 6.65099 70.2723 6.65926 70.2354L6.72539 69.7717H8.54418L8.47805 70.2354V70.2313ZM17.448 67.8019C17.3612 67.5926 17.2413 67.4161 17.0718 67.2684C16.9065 67.1248 16.7122 67.014 16.489 66.9401C16.2658 66.8662 16.0302 66.8293 15.7904 66.8293C15.5507 66.8293 15.2985 66.8662 15.0505 66.9401C14.8025 67.014 14.5751 67.1248 14.3685 67.2684C14.1618 67.412 13.9882 67.5885 13.8393 67.8019C13.8228 67.8224 13.8104 67.847 13.798 67.8716L14.6743 68.3887C14.695 68.3395 14.7239 68.2943 14.757 68.2492C14.819 68.163 14.9017 68.0891 14.9968 68.0317C15.0918 67.9742 15.1993 67.9332 15.3109 67.9045C15.4225 67.8758 15.5341 67.8593 15.6457 67.8593C15.7491 67.8593 15.8524 67.8717 15.9558 67.9045C16.0591 67.9332 16.15 67.9742 16.2286 68.0317C16.3071 68.0891 16.365 68.163 16.4146 68.2533C16.4477 68.3107 16.4642 68.3764 16.4642 68.4544C16.4642 68.4872 16.4642 68.5159 16.4559 68.5488L16.3981 68.9714H13.5128L13.4012 69.7676L13.3268 70.2805C13.3144 70.3708 13.3102 70.457 13.3102 70.5391C13.3102 70.7237 13.3392 70.892 13.3971 71.0397C13.4797 71.249 13.6037 71.4255 13.7691 71.5732C13.9344 71.7169 14.1328 71.8235 14.3602 71.8933C14.5875 71.9631 14.8273 72 15.0712 72C15.315 72 15.5507 71.9631 15.7945 71.8933C16.0426 71.8235 16.2658 71.7169 16.4725 71.5732C16.6791 71.4296 16.8528 71.249 17.0016 71.0356C17.1462 70.8222 17.2372 70.5719 17.2785 70.2846L17.5224 68.5529C17.5348 68.4626 17.5431 68.3764 17.5431 68.2943C17.5431 68.1138 17.5141 67.9537 17.4563 67.806L17.448 67.8019ZM16.2203 70.2313C16.1996 70.3462 16.1583 70.4488 16.0963 70.5432C16.0302 70.6376 15.9516 70.7155 15.8524 70.7771C15.7573 70.8428 15.654 70.8879 15.5424 70.9207C15.4349 70.9535 15.3274 70.97 15.2241 70.97C15.1166 70.97 15.0092 70.9535 14.9017 70.9207C14.7942 70.8879 14.7033 70.8387 14.6206 70.7771C14.5379 70.7155 14.4801 70.6335 14.4429 70.5391C14.4098 70.4816 14.3933 70.416 14.3933 70.338C14.3933 70.3052 14.3933 70.2723 14.4015 70.2354L14.4677 69.7717H16.2864L16.2203 70.2354V70.2313ZM9.36678 58.232C9.27997 58.0227 9.16009 57.8462 8.99062 57.6985C8.82527 57.5549 8.63099 57.4441 8.40778 57.3702C8.18456 57.2963 7.94895 57.2594 7.7092 57.2594C7.46945 57.2594 7.2173 57.2963 6.96928 57.3702C6.72126 57.4441 6.49391 57.5549 6.28723 57.6985C6.08055 57.8421 5.90694 58.0186 5.75813 58.232C5.74159 58.2525 5.72919 58.2771 5.71679 58.3017L6.59312 58.8188C6.61379 58.7696 6.64272 58.7244 6.67579 58.6793C6.7378 58.5931 6.82047 58.5192 6.91554 58.4618C7.01061 58.4043 7.11809 58.3633 7.22969 58.3346C7.3413 58.3058 7.45291 58.2894 7.56452 58.2894C7.66786 58.2894 7.7712 58.3017 7.87454 58.3346C7.97788 58.3633 8.06882 58.4043 8.14736 58.4618C8.2259 58.5192 8.28377 58.5931 8.33337 58.6834C8.36644 58.7408 8.38297 58.8065 8.38297 58.8845C8.38297 58.9173 8.38297 58.946 8.37471 58.9789L8.31684 59.4015H5.43157L5.31996 60.1977L5.24556 60.7106C5.23316 60.8009 5.22902 60.8871 5.22902 60.9692C5.22902 61.1538 5.25796 61.3221 5.31583 61.4698C5.3985 61.6791 5.52251 61.8556 5.68786 62.0033C5.8532 62.1469 6.05161 62.2536 6.27896 62.3234C6.50631 62.3932 6.74606 62.4301 6.98995 62.4301C7.23383 62.4301 7.46945 62.3932 7.71333 62.3234C7.96135 62.2536 8.18456 62.1469 8.39124 62.0033C8.59792 61.8597 8.77153 61.6791 8.92034 61.4657C9.06502 61.2523 9.15596 61.002 9.1973 60.7147L9.44118 58.983C9.45358 58.8927 9.46185 58.8065 9.46185 58.7244C9.46185 58.5439 9.43291 58.3838 9.37504 58.2361L9.36678 58.232ZM8.13909 60.6614C8.11842 60.7763 8.07709 60.8789 8.01508 60.9733C7.94894 61.0677 7.87041 61.1456 7.7712 61.2072C7.67613 61.2728 7.57279 61.318 7.46118 61.3508C7.3537 61.3836 7.24623 61.4001 7.14289 61.4001C7.03542 61.4001 6.92794 61.3836 6.82047 61.3508C6.71299 61.318 6.62205 61.2687 6.53938 61.2072C6.45671 61.1456 6.39884 61.0635 6.36164 60.9692C6.32857 60.9117 6.31203 60.8461 6.31203 60.7681C6.31203 60.7353 6.31203 60.7024 6.3203 60.6655L6.38644 60.2018H8.20523L8.13909 60.6655V60.6614ZM26.0955 58.232C26.0087 58.0227 25.8888 57.8462 25.7194 57.6985C25.554 57.5549 25.3597 57.4441 25.1365 57.3702C24.9133 57.2963 24.6777 57.2594 24.4379 57.2594C24.1982 57.2594 23.946 57.2963 23.698 57.3702C23.45 57.4441 23.2227 57.5549 23.016 57.6985C22.8093 57.8421 22.6357 58.0186 22.4869 58.232C22.4703 58.2525 22.4579 58.2771 22.4455 58.3017L23.3219 58.8188C23.3425 58.7696 23.3715 58.7244 23.4045 58.6793C23.4665 58.5931 23.5492 58.5192 23.6443 58.4618C23.7394 58.4043 23.8468 58.3633 23.9584 58.3346C24.07 58.3058 24.1817 58.2894 24.2933 58.2894C24.3966 58.2894 24.4999 58.3017 24.6033 58.3346C24.7066 58.3633 24.7976 58.4043 24.8761 58.4618C24.9546 58.5192 25.0125 58.5931 25.0621 58.6834C25.0952 58.7408 25.1117 58.8065 25.1117 58.8845C25.1117 58.9173 25.1117 58.946 25.1035 58.9789L25.0456 59.4015H22.1603L22.0487 60.1977L21.9743 60.7106C21.9619 60.8009 21.9578 60.8871 21.9578 60.9692C21.9578 61.1538 21.9867 61.3221 22.0446 61.4698C22.1273 61.6791 22.2513 61.8556 22.4166 62.0033C22.5819 62.1469 22.7804 62.2536 23.0077 62.3234C23.2351 62.3932 23.4748 62.4301 23.7187 62.4301C23.9626 62.4301 24.1982 62.3932 24.4421 62.3234C24.6901 62.2536 24.9133 62.1469 25.12 62.0033C25.3267 61.8597 25.5003 61.6791 25.6491 61.4657C25.7938 61.2523 25.8847 61.002 25.926 60.7147L26.1699 58.983C26.1823 58.8927 26.1906 58.8065 26.1906 58.7244C26.1906 58.5439 26.1617 58.3838 26.1038 58.2361L26.0955 58.232ZM24.8678 60.6614C24.8472 60.7763 24.8058 60.8789 24.7438 60.9733C24.6777 61.0677 24.5992 61.1456 24.4999 61.2072C24.4049 61.2728 24.3015 61.318 24.1899 61.3508C24.0824 61.3836 23.975 61.4001 23.8716 61.4001C23.7642 61.4001 23.6567 61.3836 23.5492 61.3508C23.4417 61.318 23.3508 61.2687 23.2681 61.2072C23.1855 61.1456 23.1276 61.0635 23.0904 60.9692C23.0573 60.9117 23.0408 60.8461 23.0408 60.7681C23.0408 60.7353 23.0408 60.7024 23.049 60.6655L23.1152 60.2018H24.934L24.8678 60.6655V60.6614ZM20.9368 10.1239L22.2265 12.7708L25.0208 11.8064L24.0494 14.5806L26.7156 15.8609L24.0494 17.1413L25.0208 19.9154L22.2265 18.951L20.9368 21.5979L19.6471 18.951L16.8528 19.9154L17.8242 17.1413L15.158 15.8609L17.8242 14.5806L16.8528 11.8064L19.6471 12.7708L20.9368 10.1239ZM41.4147 6.93531C41.4147 10.7641 38.2856 13.8706 34.4289 13.8706C30.5722 13.8706 27.4431 10.7641 27.4431 6.93531C27.4431 3.10653 30.5722 0 34.4289 0C38.2856 0 41.4147 3.10653 41.4147 6.93531ZM12.0578 18.0852C12.0578 20.293 10.2555 22.0863 8.02748 22.0863C5.79946 22.0863 3.99721 20.2971 3.99721 18.0852C3.99721 15.8732 5.79946 14.084 8.02748 14.084C10.2555 14.084 12.0578 15.8732 12.0578 18.0852Z" fill="#D0D0D0"/>
</svg>
