<svg width="144" height="54" viewBox="0 0 144 54" fill="none" xmlns="http://www.w3.org/2000/svg">
<path d="M36.8659 7.90656H46.3182V23.3547H30.9679V19.869L39.4455 11.3374L39.8625 10.9177L36.8659 7.90199V7.90656Z" fill="#D0D0D0"/>
<path d="M27.3502 0L38.2078 10.9268L27.3547 21.8491L24.9067 19.3854V6.72491H20.6724L27.3502 0Z" fill="#D0D0D0"/>
<path d="M8.38228 7.90656V17.4236L10.9663 14.8231L11.3834 14.4079L20.2735 23.3547H23.7371V7.90656H8.38228Z" fill="#D0D0D0"/>
<path d="M0.521282 27L11.3789 16.0777L22.232 27.0046L19.7839 29.4682H7.20812V33.734L0.521282 27Z" fill="#D0D0D0"/>
<path d="M8.38228 46.0934V30.6453H23.7325V34.131L15.255 42.6626L14.8424 43.0823L15.255 43.502L17.8345 46.098H8.37775L8.38228 46.0934Z" fill="#D0D0D0"/>
<path d="M27.3548 54L16.4972 43.0777L27.3548 32.1509L29.7983 34.6146V47.2705H34.0416L27.3548 54Z" fill="#D0D0D0"/>
<path d="M46.3227 46.0934H30.9679V30.6453H34.4315L42.909 39.1815L43.3216 39.5967L43.7386 39.1815L46.3182 36.5809V46.098L46.3227 46.0934Z" fill="#D0D0D0"/>
<path d="M43.3261 37.9268L32.4775 27.0046L34.9256 24.5409H47.4969V20.2751L54.1837 27.0046L43.3306 37.9268H43.3261Z" fill="#D0D0D0"/>
<path d="M66.6371 16.1462C68.9401 16.1462 69.7606 14.9463 69.7606 13.5046C69.7606 11.9534 69.135 10.8401 67.1584 10.8401H65.3768V16.1462H66.6325H66.6371ZM61.6729 7.93849H67.639C71.0889 7.93849 73.5642 9.96874 73.5642 13.4179C73.5642 16.4518 71.0889 19.0068 66.5101 19.0068H65.3813V23.3729H61.6729V7.93849Z" fill="#D0D0D0"/>
<path d="M89.1728 22.5198L90.2155 19.8554C91.5121 20.3481 92.8857 20.5853 94.2684 20.5534C96.1135 20.5534 96.9567 19.9877 96.9567 19.0478C96.9567 16.5385 89.6715 17.2138 89.6715 11.9762C89.6715 9.01065 92.4686 7.7195 95.1842 7.7195C96.8434 7.67388 98.4845 8.0343 99.976 8.76884L98.9152 11.3466C97.7501 10.9405 96.5261 10.7261 95.293 10.7124C93.7561 10.7124 93.2756 11.3009 93.2756 11.9579C93.2756 14.0064 100.697 14.0064 100.697 18.9201C100.697 22.3053 97.4872 23.6147 94.3183 23.6147C91.8022 23.6147 90.3288 23.1539 89.1774 22.5243" fill="#D0D0D0"/>
<path d="M102.637 7.93849H106.323V14.2026H112.357V7.93849H116.043V23.3684H112.357V17.0176H106.323V23.3684H102.637V7.93849Z" fill="#D0D0D0"/>
<path d="M123.554 16.169L125.096 10.2334L126.633 16.169H123.554ZM127.612 7.94305H122.58L117.421 23.3729H121.238L122.693 18.8562H127.508L128.963 23.3729H132.78L127.616 7.94305H127.612Z" fill="#D0D0D0"/>
<path d="M79.1902 16.169L80.7316 10.2334L82.2729 16.169H79.1902ZM83.2476 7.94305H78.211L73.0474 23.3729H76.8645L78.3198 18.8562H83.1388L84.5895 23.3729H88.4112L83.2476 7.94305Z" fill="#D0D0D0"/>
<path d="M132.572 45.9976C131.411 44.4601 131.438 44.1453 132.957 41.3897C131.946 40.5319 131.443 39.4233 131.474 38.0774C131.524 36.1749 132.526 34.9294 134.199 34.2085C135.827 33.5059 137.495 33.6245 139.181 34.0443C139.811 34.1994 140.487 34.2496 141.14 34.2405C142.028 34.2313 142.921 34.1264 143.905 34.0534C143.905 34.8564 143.923 35.5864 143.887 36.3118C143.882 36.4258 143.615 36.6038 143.461 36.6174C143.012 36.6585 142.554 36.6311 142.024 36.6311C142.051 37.0007 142.06 37.2835 142.087 37.5664C142.255 39.2134 141.579 40.4316 140.183 41.2437C138.828 42.0284 137.35 42.1881 135.817 42.0375C135.428 42.001 135.033 41.9645 134.562 41.9189C134.539 42.1835 134.521 42.4071 134.498 42.6215C134.453 43.0321 134.63 43.1781 135.038 43.169C136.103 43.1507 137.168 43.137 138.234 43.1781C138.896 43.2055 139.571 43.2785 140.215 43.4245C142.278 43.8898 143.252 45.3772 142.935 47.485C142.749 48.7168 142.146 49.6932 141.108 50.3729C140.709 50.633 140.274 50.8748 139.82 51.0162C137.522 51.7325 135.196 51.6869 132.902 51.0162C131.538 50.6147 130.939 49.6521 130.994 48.2606C131.026 47.4576 131.506 46.9056 132.055 46.4037C132.218 46.2531 132.404 46.1254 132.576 45.9885L132.572 45.9976ZM136.756 46.1436C136.13 46.1436 135.5 46.1208 134.874 46.1573C134.684 46.1664 134.394 46.2988 134.344 46.4448C133.963 47.5352 134.136 48.2241 135.151 48.5982C136.402 49.059 137.685 49.1046 138.959 48.6849C139.249 48.5891 139.535 48.4248 139.775 48.2286C140.546 47.5945 140.374 46.6409 139.431 46.317C139.122 46.2121 138.778 46.171 138.447 46.1573C137.885 46.13 137.318 46.1482 136.756 46.1482V46.1436ZM136.747 40.0027C137.921 40.0073 138.819 39.1541 138.823 38.0226C138.832 36.8593 137.957 35.9696 136.81 35.9742C135.559 35.9742 134.725 36.8228 134.725 38.0774C134.725 39.2271 135.532 39.9936 136.747 40.0027Z" fill="#D0D0D0"/>
<path d="M106.368 7.9978C106.368 9.74062 106.364 11.4378 106.368 13.135C106.373 14.376 106.223 14.2345 107.474 14.2391C108.916 14.2437 110.358 14.2163 111.799 14.2528C112.361 14.2665 112.57 14.1114 112.556 13.5137C112.52 11.9169 112.543 10.3155 112.543 8.71866C112.543 8.49054 112.543 8.26698 112.543 7.95218C113.69 7.95218 114.769 7.94306 115.843 7.96587C115.938 7.96587 116.079 8.16661 116.106 8.29892C116.151 8.49966 116.12 8.71866 116.12 8.92852C116.12 13.4498 116.12 17.9711 116.12 22.4924C116.12 22.7388 116.12 22.9851 116.12 23.2634H112.538C112.538 22.976 112.538 22.7296 112.538 22.4878C112.538 20.8454 112.525 19.2075 112.547 17.5651C112.552 17.1088 112.42 16.9309 111.94 16.94C110.267 16.9628 108.594 16.9628 106.926 16.94C106.486 16.9355 106.35 17.086 106.355 17.524C106.373 19.1847 106.364 20.8454 106.364 22.5061C106.364 22.7342 106.364 22.9623 106.364 23.2452H102.823V7.9978H106.364H106.368Z" fill="#D0D0D0"/>
<path d="M74.8743 30.9191V46.1071H71.3655C71.3655 45.8608 71.3655 45.6372 71.3655 45.4136C71.3655 43.7758 71.3564 42.1333 71.37 40.4954C71.37 40.0346 71.2702 39.8156 70.7444 39.8248C69.1169 39.8567 67.4848 39.8521 65.8573 39.8248C65.345 39.8156 65.2226 40.0255 65.2272 40.4954C65.2453 42.1151 65.2362 43.7301 65.2362 45.3498C65.2362 45.5779 65.2362 45.806 65.2362 46.098H61.7273C61.7137 45.879 61.6865 45.6509 61.6865 45.4273C61.6865 40.8467 61.6956 36.2616 61.6729 31.681C61.6729 31.0742 61.8316 30.8643 62.4436 30.9054C63.169 30.9556 63.9079 30.9419 64.6333 30.9054C65.0957 30.8826 65.2498 31.0286 65.2453 31.5076C65.2181 33.1683 65.2498 34.829 65.2272 36.4897C65.2181 37.0098 65.3858 37.1923 65.9072 37.1832C67.5166 37.1604 69.1214 37.1604 70.7308 37.1832C71.2294 37.1923 71.379 37.0052 71.3745 36.5262C71.3564 34.8427 71.3791 33.1637 71.3564 31.4802C71.3519 31.0422 71.4833 30.8917 71.9231 30.9054C72.8796 30.9327 73.8407 30.9145 74.8743 30.9145V30.9191Z" fill="#D0D0D0"/>
<path d="M117.62 23.3091C117.969 22.2643 118.278 21.329 118.59 20.3983C119.91 16.4564 121.238 12.5191 122.539 8.56811C122.698 8.07993 122.915 7.91569 123.423 7.93394C124.697 7.975 125.971 7.95675 127.245 7.9385C127.598 7.93394 127.762 8.05712 127.87 8.39017C129.484 13.2491 131.107 18.1034 132.726 22.9578C132.753 23.0353 132.766 23.1174 132.812 23.2954C131.633 23.2954 130.495 23.3136 129.362 23.2726C129.23 23.2726 129.054 22.976 128.99 22.7844C128.6 21.6347 128.219 20.4758 127.87 19.3124C127.748 18.9018 127.558 18.7421 127.122 18.7513C125.871 18.7786 124.615 18.7832 123.364 18.7513C122.893 18.7376 122.702 18.9338 122.575 19.3535C122.231 20.4987 121.836 21.6256 121.501 22.7753C121.378 23.1996 121.17 23.3273 120.748 23.3136C119.751 23.2817 118.749 23.3045 117.625 23.3045L117.62 23.3091ZM125.336 10.3474C125.264 10.3565 125.191 10.3657 125.123 10.3702C124.633 12.2682 124.139 14.1661 123.632 16.1325H126.841C126.329 14.1615 125.835 12.2545 125.341 10.3474H125.336Z" fill="#D0D0D0"/>
<path d="M105.765 34.058C105.765 32.8626 105.802 31.6901 105.752 30.5176C105.724 29.8925 105.933 29.7146 106.531 29.7557C107.279 29.8059 108.037 29.7785 108.789 29.7648C109.12 29.7602 109.288 29.8515 109.283 30.221C109.274 35.4769 109.274 40.7373 109.265 45.9931C109.265 46.0524 109.233 46.1117 109.206 46.2121H105.833C105.788 45.9885 105.743 45.7695 105.702 45.5688C105.625 45.5551 105.575 45.5277 105.552 45.5414C101.948 47.6675 98.1445 45.7193 97.7954 41.5129C97.7002 40.3996 97.7274 39.2226 97.9813 38.1413C98.5571 35.6959 100.697 34.1994 103.53 34.0671C104.233 34.0352 104.94 34.0625 105.765 34.0625V34.058ZM105.765 40.0575V38.6066C105.765 36.7589 105.702 36.7041 103.829 36.8319C102.46 36.9231 101.563 37.6166 101.359 38.9853C101.227 39.8795 101.254 40.8331 101.413 41.7273C101.626 42.9181 102.524 43.5431 103.734 43.502C104.251 43.4838 104.763 43.3515 105.276 43.2602C105.647 43.1964 105.779 42.9637 105.77 42.585C105.752 41.7455 105.765 40.9015 105.765 40.062V40.0575Z" fill="#D0D0D0"/>
<path d="M88.2797 23.3091C87.1509 23.3091 86.0674 23.3273 84.9839 23.2863C84.8207 23.2817 84.5895 23.0171 84.5215 22.8255C84.118 21.6575 83.7372 20.4758 83.3836 19.2896C83.2657 18.8973 83.0844 18.7513 82.6809 18.7558C81.407 18.7741 80.1331 18.7786 78.8592 18.7558C78.415 18.7467 78.2382 18.9292 78.1157 19.3307C77.7712 20.4758 77.3768 21.6073 77.0323 22.7525C76.9144 23.1539 76.7421 23.3364 76.2933 23.3182C75.2778 23.2817 74.2623 23.3091 73.1562 23.3091C73.2559 22.9851 73.3239 22.7707 73.3919 22.5563C74.9469 17.9164 76.5109 13.2765 78.0432 8.62742C78.22 8.09818 78.4512 7.91113 79.0088 7.93394C80.2601 7.97956 81.5158 7.93394 82.7671 7.96587C82.9711 7.97044 83.2929 8.16662 83.3564 8.34455C85.0157 13.2354 86.6477 18.1308 88.2797 23.0308C88.2979 23.0855 88.2797 23.1539 88.2797 23.3091ZM80.8585 10.352C80.7905 10.352 80.7179 10.352 80.6499 10.352C80.1558 12.259 79.6617 14.1661 79.1539 16.1279H82.3636C81.8513 14.157 81.3572 12.2499 80.8585 10.3474V10.352Z" fill="#D0D0D0"/>
<path d="M61.7319 15.6169C61.7319 13.2856 61.7455 10.9497 61.7228 8.61829C61.7183 8.10275 61.8633 7.92481 62.3938 7.9385C64.5199 7.99781 66.6597 7.89288 68.7769 8.07537C71.4652 8.30349 73.1562 10.0828 73.4962 12.7335C73.7999 15.106 72.4716 17.2731 70.1188 18.2677C68.8177 18.8151 67.4576 18.9703 66.0704 18.9018C65.4629 18.8745 65.268 19.0843 65.2906 19.6866C65.3314 20.6948 65.2816 21.7031 65.3088 22.7114C65.3224 23.1859 65.1501 23.3364 64.6877 23.3182C63.917 23.2863 63.1418 23.2817 62.3711 23.3182C61.8724 23.341 61.7228 23.1631 61.7273 22.6749C61.7455 20.3207 61.7364 17.9666 61.7364 15.6124L61.7319 15.6169ZM65.2997 13.4498C65.2997 14.1844 65.2816 14.9235 65.3133 15.658C65.3224 15.8314 65.5173 16.1553 65.608 16.1462C66.5373 16.0823 67.503 16.1051 68.3734 15.8268C69.5339 15.4573 70.0145 14.2209 69.7787 12.7883C69.5793 11.5564 68.8585 10.8812 67.571 10.7763C66.9907 10.7307 66.4013 10.7672 65.8165 10.7352C65.3904 10.7124 65.277 10.9223 65.2861 11.3055C65.3042 12.0218 65.2906 12.7335 65.2906 13.4498H65.2997Z" fill="#D0D0D0"/>
<path d="M89.3224 22.424C89.6352 21.6301 89.9526 20.818 90.2745 19.9877C91.0043 20.1565 91.6844 20.38 92.378 20.4622C93.2665 20.5625 94.1687 20.5899 95.0618 20.5625C95.5061 20.5488 95.9775 20.3983 96.3719 20.193C97.2288 19.7367 97.3693 18.7285 96.6258 18.1034C96.1407 17.6928 95.5378 17.4145 94.962 17.1271C93.9194 16.607 92.8041 16.2055 91.8113 15.6032C90.1838 14.6087 89.54 13.0803 89.8619 11.1823C90.1022 9.76344 91.0089 8.86009 92.2737 8.33998C94.4226 7.45489 96.6031 7.61457 98.7747 8.2898C99.1645 8.41298 99.5408 8.59547 99.967 8.76884C99.6587 9.52619 99.3958 10.2288 99.0648 10.904C99.0013 11.0363 98.6704 11.1185 98.48 11.0911C97.469 10.9542 96.4671 10.7398 95.4562 10.6348C95.0164 10.5892 94.5268 10.6759 94.1052 10.8265C93.1079 11.1869 92.9492 12.2225 93.8196 12.8202C94.4679 13.2628 95.225 13.5502 95.9277 13.9152C96.8888 14.4125 97.8952 14.8459 98.7973 15.4436C100.176 16.3515 100.856 17.6882 100.688 19.3717C100.516 21.0918 99.5408 22.2552 97.9859 22.8619C95.2295 23.9341 92.4641 23.7835 89.7304 22.7205C89.6534 22.6886 89.5808 22.6475 89.5083 22.6065C89.4584 22.5745 89.4131 22.5243 89.3134 22.4376L89.3224 22.424Z" fill="#D0D0D0"/>
<path d="M121.029 34.1127C121.052 34.5553 121.075 34.8792 121.097 35.3263C121.406 35.1347 121.61 35.0069 121.818 34.8792C123.196 34.026 124.665 33.5926 126.297 33.8846C128.061 34.1948 128.967 35.121 129.026 37.0281C129.112 39.9252 129.072 42.8314 129.09 45.7285C129.09 46.057 128.963 46.1801 128.646 46.1756C127.766 46.1665 126.891 46.1619 126.012 46.1756C125.536 46.1847 125.545 45.8745 125.545 45.5414C125.545 43.4792 125.549 41.4216 125.545 39.3594C125.545 38.8986 125.522 38.4333 125.463 37.977C125.386 37.3611 125.032 36.987 124.402 36.9186C123.36 36.8045 122.353 36.9779 121.415 37.4341C121.229 37.5254 121.079 37.8949 121.075 38.1367C121.052 40.573 121.038 43.0139 121.075 45.4547C121.084 46.0524 120.889 46.2166 120.327 46.1893C119.533 46.1482 118.74 46.171 117.947 46.1801C117.607 46.1847 117.466 46.0661 117.471 45.7057C117.48 41.9828 117.471 38.2645 117.489 34.5416C117.489 34.3956 117.684 34.131 117.797 34.131C118.858 34.099 119.919 34.1127 121.029 34.1127Z" fill="#D0D0D0"/>
<path d="M82.7761 46.1847C79.3081 46.2394 77.2771 43.3743 77.744 39.2682C78.1339 35.819 80.6001 33.8892 84.1135 34.1081C88.2752 34.3682 89.5446 37.1421 89.395 40.6871C89.3406 41.9235 89.0142 43.096 88.2299 44.0906C87.0013 45.6555 85.3149 46.1756 82.7761 46.1893V46.1847ZM86.0538 40.135C85.936 39.5145 85.877 38.8347 85.6775 38.2051C85.3874 37.2835 84.6757 36.8456 83.7236 36.7999C82.7217 36.7497 81.8649 37.0463 81.4569 38.0272C80.8857 39.4005 80.8812 40.8239 81.4116 42.2109C81.7788 43.169 82.5812 43.5203 83.914 43.4382C84.8525 43.3834 85.4735 42.9226 85.732 41.9873C85.8906 41.4079 85.9405 40.7966 86.0538 40.135Z" fill="#D0D0D0"/>
<path d="M91.9473 46.1528C91.9337 45.8517 91.911 45.6235 91.911 45.3954C91.911 40.4133 91.9201 35.4312 91.8974 30.4491C91.8974 29.8287 92.0833 29.6507 92.6772 29.6827C93.5884 29.7283 94.5042 29.6964 95.497 29.6964C95.497 30.0112 95.497 30.2347 95.497 30.4628C95.497 35.4221 95.497 40.386 95.497 45.3452C95.497 46.1528 95.497 46.1528 94.6674 46.1528C93.7924 46.1528 92.9175 46.1528 91.9473 46.1528Z" fill="#D0D0D0"/>
<path d="M111.808 34.3545H115.231C115.245 34.5917 115.267 34.7925 115.267 34.9978C115.267 38.488 115.254 41.9828 115.281 45.473C115.285 46.0661 115.1 46.244 114.537 46.2166C113.785 46.1756 113.032 46.2029 112.28 46.2075C111.994 46.2075 111.799 46.1482 111.804 45.7923C111.808 42.0101 111.804 38.2234 111.804 34.3591L111.808 34.3545Z" fill="#D0D0D0"/>
<path d="M115.154 28.866C115.154 29.8788 115.172 30.8232 115.136 31.7631C115.131 31.9 114.882 32.1372 114.737 32.1418C113.948 32.1828 113.15 32.1646 112.361 32.1783C111.999 32.1874 111.894 32.0049 111.899 31.6718C111.908 30.8962 111.881 30.1161 111.913 29.3405C111.922 29.1762 112.121 28.8842 112.244 28.8797C113.177 28.8386 114.111 28.8569 115.149 28.8569L115.154 28.866Z" fill="#D0D0D0"/>
</svg>
