<svg width="147" height="29" viewBox="0 0 147 29" fill="none" xmlns="http://www.w3.org/2000/svg">
<path d="M0 10.8337C0 10.3645 0.135989 10.0167 0.412088 9.79019C0.688187 9.5637 1.07555 9.45046 1.57005 9.45046C1.88324 9.45046 2.1717 9.4909 2.43955 9.57179C2.70741 9.65268 2.88461 9.72144 2.97939 9.77402V28.0551H0V10.8296V10.8337ZM11.8104 10.0733C11.9959 10.3079 12.2885 10.7002 12.6923 11.2503C13.0962 11.8003 13.5577 12.4474 14.0728 13.1876C14.5879 13.9277 15.1483 14.7447 15.7582 15.6385C16.364 16.5324 16.9821 17.4424 17.6085 18.3726C18.2349 19.3028 18.8407 20.2209 19.4299 21.1229C20.0192 22.0248 20.5508 22.8579 21.0288 23.6143V10.8296C21.0288 10.3605 21.169 10.0126 21.4409 9.78615C21.717 9.55966 22.092 9.44641 22.5742 9.44641C22.9038 9.44641 23.2005 9.48686 23.456 9.56775C23.7115 9.64863 23.8887 9.71739 23.9794 9.76997V28.0511H20.8599C20.3984 27.3635 19.8874 26.595 19.3269 25.7336C18.7665 24.8761 18.1813 23.9823 17.5755 23.0521C16.9698 22.1218 16.3516 21.1876 15.7253 20.2492C15.0989 19.3109 14.4972 18.4171 13.9162 17.5678C13.3352 16.7184 12.7953 15.9378 12.2885 15.226C11.7816 14.5142 11.3448 13.9115 10.978 13.4262V28.0511H8.05219V10.9874C8.05219 10.6072 8.20879 10.2553 8.52198 9.93175C8.83516 9.60819 9.30494 9.44237 9.93131 9.44237C10.4093 9.44237 10.8008 9.51921 11.1058 9.67291C11.4107 9.8266 11.6456 9.95602 11.8104 10.0652V10.0733ZM32.8104 10.0733C32.9959 10.3079 33.2885 10.7002 33.6923 11.2503C34.0961 11.8003 34.5577 12.4474 35.0728 13.1876C35.5879 13.9277 36.1483 14.7447 36.7582 15.6385C37.364 16.5324 37.9821 17.4424 38.6085 18.3726C39.2349 19.3028 39.8407 20.2209 40.4299 21.1229C41.0192 22.0248 41.5508 22.8579 42.0288 23.6143V10.8296C42.0288 10.3605 42.169 10.0126 42.4409 9.78615C42.717 9.55966 43.092 9.44641 43.5742 9.44641C43.9038 9.44641 44.2005 9.48686 44.456 9.56775C44.7115 9.64863 44.8887 9.71739 44.9794 9.76997V28.0511H41.8599C41.3983 27.3635 40.8874 26.595 40.3269 25.7336C39.7665 24.8761 39.1813 23.9823 38.5755 23.0521C37.9698 22.1218 37.3517 21.1876 36.7253 20.2492C36.0989 19.3109 35.4972 18.4171 34.9162 17.5678C34.3352 16.7184 33.7953 15.9378 33.2885 15.226C32.7816 14.5142 32.3448 13.9115 31.978 13.4262V28.0511H29.0522V10.9874C29.0522 10.6072 29.2088 10.2553 29.522 9.93175C29.8352 9.60819 30.3049 9.44237 30.9313 9.44237C31.4093 9.44237 31.8008 9.51921 32.1058 9.67291C32.4107 9.8266 32.6456 9.95602 32.8104 10.0652V10.0733ZM72.9354 10.8337C72.9354 10.3645 73.0756 10.0167 73.3475 9.79019C73.6236 9.5637 74.011 9.45046 74.5055 9.45046C74.8187 9.45046 75.1071 9.4909 75.375 9.57179C75.6429 9.65268 75.8201 9.72144 75.9148 9.77402V25.5111H85.158V28.0551H72.9313V10.8296L72.9354 10.8337ZM86.8723 28.0592C87.4409 26.5425 88.0591 24.9732 88.7225 23.3473C89.386 21.7214 90.033 20.1522 90.6676 18.6355C91.3022 17.1188 91.9038 15.7113 92.4766 14.409C93.0453 13.1107 93.5357 12.0349 93.9396 11.1855C94.3063 10.3928 94.6896 9.84682 95.0852 9.54753C95.4808 9.24823 95.9835 9.09859 96.5893 9.09859C97.158 9.09859 97.5907 9.18757 97.8874 9.36957C98.1799 9.55157 98.4025 9.71335 98.5508 9.85895C98.8805 10.4171 99.2761 11.1896 99.7376 12.1764C100.195 13.1593 100.685 14.2432 101.201 15.4282C101.716 16.6092 102.235 17.8428 102.758 19.1249C103.282 20.407 103.776 21.6284 104.234 22.7932C104.691 23.958 105.103 25.0056 105.462 25.9358C105.82 26.866 106.092 27.5738 106.277 28.0632H103.076C102.985 27.865 102.87 27.5819 102.729 27.2098C102.589 26.8418 102.441 26.4333 102.276 25.9924C102.111 25.5516 101.934 25.0905 101.753 24.6092C101.567 24.132 101.394 23.6749 101.229 23.2422H91.7102C91.2857 24.2695 90.919 25.2118 90.6058 26.0571C90.2926 26.9065 90.0453 27.5738 89.8599 28.0632H86.8805L86.8723 28.0592ZM96.5028 11.861C96.3008 12.2776 96.0577 12.8033 95.7733 13.4464C95.489 14.0895 95.1758 14.8013 94.8338 15.5859C94.4918 16.3706 94.1374 17.2078 93.7706 18.0895C93.4038 18.9752 93.0453 19.861 92.6951 20.7427H100.228C99.8983 19.8772 99.544 18.9874 99.1648 18.0733C98.7857 17.1633 98.4272 16.2937 98.0893 15.4727C97.7472 14.6517 97.4423 13.9196 97.1662 13.2806C96.8901 12.6416 96.6676 12.1643 96.5028 11.8569V11.861ZM113.032 10.0733C113.217 10.3079 113.51 10.7002 113.913 11.2503C114.317 11.8003 114.779 12.4474 115.294 13.1876C115.809 13.9277 116.37 14.7447 116.979 15.6385C117.585 16.5324 118.203 17.4424 118.83 18.3726C119.456 19.3028 120.062 20.2209 120.651 21.1229C121.24 22.0248 121.772 22.8579 122.25 23.6143V10.8296C122.25 10.3605 122.39 10.0126 122.666 9.78615C122.942 9.55966 123.317 9.44641 123.799 9.44641C124.129 9.44641 124.426 9.48686 124.681 9.56775C124.937 9.64863 125.114 9.71739 125.205 9.76997V28.0511H122.085C121.624 27.3635 121.113 26.595 120.552 25.7336C119.992 24.8761 119.407 23.9823 118.801 23.0521C118.195 22.1218 117.577 21.1876 116.951 20.2492C116.324 19.3109 115.723 18.4171 115.141 17.5678C114.56 16.7184 114.021 15.9378 113.514 15.226C113.007 14.5142 112.57 13.9115 112.203 13.4262V28.0511H109.277V10.9874C109.277 10.6072 109.434 10.2553 109.747 9.93175C110.06 9.60819 110.53 9.44237 111.157 9.44237C111.635 9.44237 112.026 9.51921 112.331 9.67291C112.636 9.8266 112.871 9.95602 113.036 10.0652L113.032 10.0733ZM147 18.7407C147 20.1481 146.769 21.4262 146.312 22.5748C145.85 23.7235 145.183 24.7022 144.309 25.5152C143.435 26.3281 142.376 26.955 141.136 27.3959C139.896 27.8367 138.503 28.0592 136.957 28.0592H130.277V11.0763C130.277 10.5546 130.426 10.1502 130.718 9.87108C131.011 9.59201 131.456 9.45046 132.041 9.45046H136.953C138.499 9.45046 139.891 9.6729 141.132 10.1138C142.372 10.5546 143.431 11.1775 144.305 11.9823C145.179 12.7872 145.846 13.7619 146.308 14.9065C146.765 16.0551 146.996 17.3291 146.996 18.7407H147ZM143.909 18.7407C143.909 17.7457 143.753 16.8316 143.44 15.9904C143.126 15.1491 142.673 14.4252 142.071 13.8104C141.474 13.1957 140.732 12.7224 139.85 12.3868C138.968 12.0511 137.946 11.8852 136.788 11.8852H133.257V25.6163H136.788C137.946 25.6163 138.968 25.4464 139.85 25.1026C140.732 24.7588 141.474 24.2816 142.071 23.6668C142.669 23.0521 143.126 22.3281 143.44 21.4869C143.753 20.6456 143.909 19.7316 143.909 18.7366V18.7407ZM66.3008 13.3696C66.2514 13.2482 66.206 13.1309 66.1525 13.0096C65.7445 12.0672 65.2376 11.1613 64.7555 10.2472C64.5989 9.93984 64.4382 9.63246 64.2981 9.32104C64.1456 8.98939 64.0508 8.63347 63.9684 8.27351C63.8736 7.84075 63.8489 7.41203 63.956 6.97927C64.0096 6.75278 64.1044 6.54247 64.2445 6.30384C63.886 6.44945 63.6387 6.65167 63.4409 6.90243C62.9876 7.49292 62.8187 8.16835 62.7033 8.85592C62.6744 9.02174 62.658 9.18756 62.6332 9.35339C62.4767 8.85996 62.2665 8.39484 62.0275 7.93782C61.6525 7.2179 61.1827 6.54247 60.75 5.85086C60.2225 5.00152 59.7321 4.14004 59.5467 3.17341C59.4313 2.58696 59.4643 2.0086 59.5962 1.43428C59.6703 1.11477 59.8063 0.807381 59.9382 0.5C59.625 0.686047 59.3324 0.884227 59.0604 1.10667C58.0797 1.90344 57.3874 2.84985 57.1442 4.0268C56.9959 4.7548 57.0536 5.47068 57.2596 6.17847C57.2967 6.30789 57.342 6.43731 57.3338 6.57078C57.3049 6.9995 56.9464 7.2543 56.5508 7.12083C56.353 7.05208 56.2335 6.90647 56.147 6.74469C55.9945 6.46562 55.9244 6.16229 55.9203 5.85491C55.9121 5.44641 55.9203 5.03792 55.9203 4.63347C55.9203 4.59302 55.9533 4.54449 55.8791 4.51213C55.8173 4.58089 55.7514 4.64561 55.6937 4.71841C55.261 5.24823 55.0302 5.84277 54.8901 6.47776C54.6923 7.35541 54.5975 8.2452 54.5687 9.13499C54.5398 10.0612 54.0206 10.7487 53.3571 11.408C53.283 11.4606 53.2047 11.5131 53.1305 11.5657C53.1181 11.2705 53.1593 11.0116 53.2212 10.7528C53.3283 10.2877 53.6003 9.87513 53.8146 9.44641C53.897 9.27655 53.9959 9.10668 54.0536 8.8721C53.8805 8.99748 53.7528 9.08645 53.6332 9.17948C52.5041 10.045 51.717 11.1087 51.2308 12.3544C51.0247 12.8842 50.8846 13.4262 50.794 13.9722C49.7967 15.4525 49.2157 17.224 49.2157 19.1249C49.2157 24.2937 53.5014 28.5 58.7679 28.5C64.0343 28.5 68.3201 24.2937 68.3201 19.1249C68.3201 16.957 67.5618 14.9591 66.2967 13.3696H66.3008ZM58.772 25.6325C55.1168 25.6325 52.1415 22.7123 52.1415 19.1249C52.1415 15.5374 55.1168 12.6173 58.772 12.6173C62.4272 12.6173 65.4025 15.5374 65.4025 19.1249C65.4025 22.7123 62.4272 25.6325 58.772 25.6325Z" fill="#D0D0D0"/>
</svg>
