<?xml version="1.0" encoding="UTF-8"?><svg id="Layer_2" xmlns="http://www.w3.org/2000/svg" viewBox="0 0 710.81 167.81"><defs><style>.cls-1{opacity:.45;}.cls-1,.cls-2{fill:#fff;}</style></defs><g id="Layer_2-2"><g id="_3"><g id="LOGO"><g id="TXT"><g><path class="cls-2" d="m215.82,73.73v-30.85h4.79v30.85h-4.79Z"/><path class="cls-2" d="m264,73.73v-6.97l-31.49-19.46v26.43h-4.79v-30.85h6.24l30.03,18.5v-18.5h4.78v30.85h-4.78Z"/><path class="cls-2" d="m289.06,73.73v-26.75h-16.59v-4.1h37.96v4.1h-16.59v26.75h-4.79Z"/><path class="cls-2" d="m314.12,73.73v-30.85h35.64v3.78h-30.85v9.3h29.94v3.78h-29.94v9.84h31.45v4.15h-36.23Z"/><path class="cls-2" d="m394.24,52.68c0-5.98-3.92-9.8-12.08-9.8h-26.48v30.85h4.79v-11.26h21.69c.29,0,.57-.02.85-.03l4.93,11.28h5.28l-5.47-12.04c4.37-1.4,6.49-4.62,6.49-9.02Zm-12.12,5.84h-21.65v-11.67h21.65c4.51,0,7.06,2.06,7.06,5.84s-2.55,5.84-7.06,5.84Z"/><path class="cls-2" d="m435.84,73.73v-6.97l-31.49-19.46v26.43h-4.79v-30.85h6.24l30.03,18.5v-18.5h4.78v30.85h-4.78Z"/><path class="cls-2" d="m481.27,73.73l-3.87-8.75h-23.74l-3.87,8.75h-5.33l14.04-30.85h14.04l14.04,30.85h-5.29Zm-11.9-27.21h-7.7l-6.61,14.81h20.87l-6.56-14.81Z"/><path class="cls-2" d="m499.32,73.73v-26.75h-16.59v-4.1h37.96v4.1h-16.59v26.75h-4.79Z"/><path class="cls-2" d="m524.74,73.73v-30.85h4.78v30.85h-4.78Z"/><path class="cls-2" d="m556.46,74.71c-13.49,0-20.92-4.01-20.92-16.41s7.43-16.41,20.92-16.41,20.87,4.01,20.87,16.41-7.38,16.41-20.87,16.41Zm0-28.89c-11.17,0-15.9,3.14-15.9,12.49s4.74,12.49,15.9,12.49,15.91-3.14,15.91-12.49-4.69-12.49-15.91-12.49Z"/><path class="cls-2" d="m619.17,73.73v-6.97l-31.49-19.46v26.43h-4.79v-30.85h6.24l30.03,18.5v-18.5h4.78v30.85h-4.78Z"/><path class="cls-2" d="m664.6,73.73l-3.87-8.75h-23.74l-3.87,8.75h-5.33l14.04-30.85h14.04l14.04,30.85h-5.29Zm-11.9-27.21h-7.7l-6.61,14.81h20.87l-6.56-14.81Z"/><path class="cls-2" d="m673.8,73.73v-30.85h4.79v26.48h32.22v4.38h-37.01Z"/></g><g><path class="cls-2" d="m262.77,120v-22.97l-16.73,22.97h-6.24l-16.86-22.97v22.97h-7.11v-30.85h10.94l16.32,22.06,16.09-22.06h10.8v30.85h-7.2Z"/><path class="cls-2" d="m276.61,120v-30.85h36.6v6.02h-28.89v6.24h27.98v5.56h-27.98v6.43h29.53v6.61h-37.23Z"/><path class="cls-2" d="m319.31,120v-30.85h36.6v6.02h-28.89v6.24h27.98v5.56h-27.98v6.43h29.53v6.61h-37.23Z"/><path class="cls-2" d="m374.64,120v-24.34h-15.68v-6.52h39.01v6.52h-15.68v24.34h-7.66Z"/><path class="cls-2" d="m431.24,89.15h7.66v18.73c0,11.62-6.84,12.76-20.87,12.76-11.67,0-16.68-2.05-16.68-12.71v-18.78h8.02v19.05c0,4.88,2.32,6.11,10.16,6.11s11.71-1.09,11.71-6.06v-19.1Z"/><path class="cls-2" d="m452.92,112.07v7.93h-7.66v-30.85h25.38c8.7,0,13.08,4.33,13.08,11.07s-4.38,11.85-13.4,11.85h-17.41Zm0-16.77v10.39h17.09c3.05,0,5.51-.64,5.51-5.47,0-3.74-2.37-4.92-5.47-4.92h-17.14Z"/></g><g><path class="cls-2" d="m489.75,104.78c.89-1.35,1.84-2.86,2.21-4.12h-2.15v-4.03h4.21v3.63c-.43,1.57-1.38,3.23-2.4,4.52h-1.88Z"/><path class="cls-2" d="m498.11,118.68v-2.49c.68-2.43,3.35-5.07,5.81-6.3,2.12-1.04,4.58-1.69,6.95-2.24,3.72-.86,8.92-1.35,8.92-4.18,0-2.64-4.46-3.14-8.55-3.14-5.07,0-8.36,1.26-8.98,3.29l-3.72-1.32c1.04-3.08,4.89-5.07,12.7-5.07,4.3,0,12.76.46,12.76,6.21,0,2.86-1.35,4.15-4,5.23-5.23,2.15-14.54,2.15-16.54,6.58h20.48v3.44h-25.83Z"/><path class="cls-2" d="m536.82,109.39v-2.74h6.67c4.37,0,5.69-1.08,5.69-3.11,0-3.01-5.17-3.26-8.24-3.26-4.86,0-8.3,1.23-9.01,3.32l-3.72-1.32c1.01-3.08,4.92-5.07,12.54-5.07,4.3,0,12.39.28,12.39,5.87,0,2.95-2.28,4.43-4.18,4.8,3.35.25,5.17,2.46,5.17,4.83,0,4.37-4.86,6.61-13.04,6.61-6.79,0-11.47-2-12.94-5.66l4-1.04c.98,2,3.91,3.54,9.25,3.54s8.21-1.14,8.21-3.54c0-2.18-1.54-3.23-6.12-3.23h-6.67Z"/></g></g><g id="ICON"><polygon class="cls-1" points="158.57 0 118.93 22.88 118.93 53.39 92.5 38.14 79.27 45.78 79.28 45.77 79.28 15.26 52.86 0 26.43 15.26 0 30.51 0 122.04 26.43 137.3 52.85 122.04 52.86 152.55 79.29 167.81 105.71 152.55 105.71 106.74 105.72 106.79 118.93 114.41 132.14 106.79 158.57 122.04 158.57 122.04 184.99 106.79 184.99 15.26 158.57 0"/><g><polygon class="cls-2" points="0 30.51 0 122.04 26.43 137.3 26.43 45.77 0 30.51"/><polygon class="cls-2" points="52.86 30.51 52.86 61.02 26.43 45.77 26.43 15.26 52.86 30.51"/></g><polygon class="cls-2" points="145.36 38.14 145.35 68.65 145.35 68.65 118.93 83.9 118.93 53.39 79.29 76.28 79.29 167.81 105.71 152.55 105.71 106.74 105.72 106.79 118.93 114.41 145.35 99.16 158.57 76.28 158.57 76.25 158.57 122.04 184.99 106.79 184.99 15.26 145.36 38.14"/></g></g></g></g></svg>