<svg width="199" height="54" viewBox="0 0 199 54" fill="none" xmlns="http://www.w3.org/2000/svg">
<path d="M23.9104 29.166C23.1364 29.166 22.4274 28.8538 21.92 28.3399C21.4127 27.8326 21.094 27.1236 21.094 26.3496C21.094 25.5755 21.4062 24.8665 21.92 24.3592C22.4339 23.8518 23.1364 23.5331 23.9104 23.5331C24.6844 23.5331 25.3934 23.8453 25.9007 24.3592C26.4081 24.8665 26.7268 25.5755 26.7268 26.3496C26.7268 27.1236 26.4146 27.8326 25.9007 28.3399C25.3869 28.8473 24.6844 29.166 23.9104 29.166ZM12.9113 20.8013C13.2366 20.6126 13.4577 20.3069 13.5488 19.9752C13.6398 19.637 13.6008 19.2662 13.4122 18.941C13.2236 18.6158 12.9179 18.3946 12.5861 18.3035C12.2479 18.2125 11.8771 18.2515 11.5519 18.4401C11.2267 18.6288 11.0055 18.9345 10.9145 19.2662C10.8234 19.6044 10.8624 19.9752 11.0511 20.3004C11.2397 20.6256 11.5454 20.8468 11.8771 20.9378C12.2154 21.0289 12.5861 20.9899 12.9113 20.8013ZM34.4086 20.3004C34.5972 20.6256 34.9029 20.8468 35.2346 20.9378C35.5729 21.0289 35.9436 20.9899 36.2689 20.8013C36.5941 20.6126 36.8152 20.3069 36.9063 19.9752C36.9974 19.637 36.9583 19.2662 36.7697 18.941C36.5811 18.6158 36.2754 18.3946 35.9436 18.3035C35.6054 18.2125 35.2346 18.2515 34.9094 18.4401C34.5842 18.6288 34.3631 18.9345 34.272 19.2662C34.1809 19.6044 34.22 19.9752 34.4086 20.3004ZM23.2339 38.656C22.9087 38.8446 22.6875 39.1503 22.5965 39.4821C22.5054 39.8203 22.5445 40.191 22.7331 40.5163C22.9217 40.8415 23.2274 41.0626 23.5591 41.1537C23.8974 41.2448 24.2681 41.2057 24.5934 41.0171C24.9186 40.8285 25.1397 40.5228 25.2308 40.191C25.3219 39.8528 25.2828 39.4821 25.0942 39.1568C24.9056 38.8316 24.5999 38.6105 24.2681 38.5194C23.9299 38.4283 23.5591 38.4674 23.2339 38.656ZM47.8468 12.5406V35.3843C47.8468 36.8608 47.45 38.2917 46.7345 39.5341C46.019 40.7764 44.9783 41.8367 43.6969 42.5782L33.8102 48.2891L23.9234 54L14.0366 48.2891L4.14984 42.5782C2.86847 41.8367 1.83426 40.7829 1.11226 39.5341C0.396772 38.2917 0 36.8608 0 35.3843V12.5341L9.88678 6.82318L19.7605 1.10576C21.0419 0.36425 22.4794 0 23.9104 0C25.3414 0 26.7789 0.370754 28.0602 1.10576L37.947 6.81667L47.8338 12.5276L47.8468 12.5406ZM33.1988 5.21007C34.5127 6.53048 35.8721 8.16309 37.0169 10.0884C38.1617 12.0137 39.1048 14.2383 39.5861 16.749L42.988 14.7846L46.3898 12.8203L39.7943 9.01518L33.1988 5.21007ZM10.2445 7.74681C13.5423 6.87521 17.8092 6.38738 22.2127 7.60371C26.6162 8.82004 31.1629 11.7405 35.0395 17.6856C34.9615 17.7051 34.8834 17.7312 34.8119 17.7637C34.7338 17.7962 34.6623 17.8287 34.5907 17.8677C34.4411 17.9523 34.311 18.0564 34.1939 18.1735C34.0769 18.2905 33.9793 18.4206 33.8947 18.5572C33.4589 18.31 32.9581 18.1279 32.3922 18.0043C31.8263 17.8808 31.2084 17.8222 30.5384 17.8222C30.4148 17.8222 30.2848 17.8222 30.1547 17.8352C30.0246 17.8352 29.8945 17.8482 29.7579 17.8612C30.0116 18.5182 30.2392 19.2207 30.4344 19.9687C30.6295 20.7167 30.7856 21.4972 30.9092 22.3103C31.5531 22.8241 32.158 23.3575 32.7044 23.8974C33.2508 24.4372 33.7516 24.9901 34.1874 25.543C34.6492 24.847 35.007 24.1641 35.2542 23.5071C35.5013 22.8502 35.6314 22.2127 35.6444 21.6143C35.807 21.6143 35.9697 21.5883 36.1323 21.5428C36.2949 21.4972 36.451 21.4322 36.6006 21.3476C36.6591 21.3151 36.7177 21.2761 36.7697 21.2371C36.8217 21.198 36.8738 21.159 36.9258 21.1135C37.251 21.92 37.5047 22.7656 37.6803 23.6437C37.8559 24.5153 37.9405 25.4194 37.9405 26.3431C37.9405 26.4146 37.9405 26.4796 37.9405 26.5512C37.9405 26.6227 37.9405 26.6878 37.9405 26.7593C38.2917 25.6276 38.5519 24.5088 38.721 23.403C38.8902 22.2973 38.9682 21.2045 38.9487 20.1248C38.9227 18.4857 38.6885 16.8661 38.2397 15.2985C37.7909 13.7244 37.1339 12.1959 36.2689 10.7128C34.9029 8.37124 33.2053 6.48494 31.6507 5.05396C30.0961 3.62298 28.6912 2.64731 27.8846 2.13997C27.8586 2.12045 27.5854 1.95784 27.5854 1.95784C26.4536 1.3074 25.1853 0.982173 23.9234 0.982173C22.6615 0.982173 21.3932 1.3074 20.2614 1.95784L15.253 4.84582L10.251 7.7403L10.2445 7.74681ZM12.5666 32.7695C12.5666 32.7695 12.5991 32.828 12.6121 32.854C12.6252 32.88 12.6447 32.9126 12.6577 32.9386C13.0544 33.589 13.6724 34.0769 14.4594 34.3956C15.2464 34.7208 16.2156 34.8769 17.2954 34.8769C17.4189 34.8769 17.549 34.8769 17.6791 34.8639C17.8092 34.8639 17.9393 34.8509 18.0759 34.8379C17.8157 34.1809 17.5946 33.4784 17.3994 32.7304C17.2043 31.9824 17.0482 31.2019 16.9246 30.3888C16.2807 29.875 15.6757 29.3416 15.1294 28.7952C14.583 28.2554 14.0822 27.7025 13.6464 27.1496C12.9439 28.1968 12.4821 29.231 12.2869 30.1807C12.0918 31.1303 12.1763 32.0084 12.5666 32.7565V32.7695ZM13.0479 26.3561C12.6252 25.7511 12.2674 25.1397 11.9877 24.5413C11.708 23.9429 11.4999 23.351 11.3763 22.7786C11.2137 23.351 11.0901 23.9299 11.0055 24.5283C10.921 25.1267 10.8755 25.7316 10.8755 26.3561C10.8755 26.9805 10.921 27.5854 11.0055 28.1838C11.0901 28.7822 11.2137 29.3611 11.3763 29.9335C11.4999 29.3611 11.708 28.7757 11.9877 28.1708C12.2674 27.5724 12.6252 26.9675 13.0479 26.3561ZM16.6319 26.3561C16.6319 25.9008 16.6449 25.4519 16.6644 25.0161C16.6839 24.5738 16.7165 24.138 16.7555 23.7153C16.2611 24.1445 15.8058 24.5868 15.3765 25.0292C14.9537 25.4715 14.57 25.9203 14.2252 26.3626C14.57 26.8049 14.9603 27.2537 15.3765 27.696C15.7993 28.1383 16.2611 28.5806 16.7555 29.0099C16.7165 28.5806 16.6839 28.1448 16.6644 27.709C16.6449 27.2667 16.6319 26.8179 16.6319 26.3691V26.3561ZM14.5765 35.4428C15.4091 36.2949 16.3522 37.0429 17.3929 37.6413C18.4336 38.2462 19.5589 38.708 20.7492 39.0072C20.3199 38.617 19.9101 38.1421 19.5329 37.6023C19.1556 37.0624 18.8044 36.451 18.4922 35.781C18.2905 35.8005 18.0889 35.8135 17.8938 35.82C17.6986 35.8266 17.5035 35.8331 17.3084 35.8331C16.801 35.8331 16.3132 35.8005 15.8579 35.7355C15.4026 35.6704 14.9733 35.5729 14.5765 35.4428ZM19.0711 34.7403C19.6305 34.6623 20.2093 34.5517 20.8078 34.4086C21.4062 34.2655 22.0111 34.0834 22.6355 33.8687C22.2387 33.6866 21.8485 33.498 21.4517 33.2963C21.0614 33.0947 20.6712 32.8865 20.2809 32.6589C19.8841 32.4312 19.5069 32.1971 19.1361 31.9564C18.7654 31.7157 18.4011 31.4751 18.0564 31.2214C18.18 31.8588 18.3296 32.4768 18.4987 33.0622C18.6678 33.6476 18.8629 34.2004 19.0776 34.7273L19.0711 34.7403ZM23.9169 33.3874C24.4438 33.1727 24.9706 32.9386 25.4975 32.6784C26.0243 32.4247 26.5577 32.1385 27.0846 31.8393C27.6114 31.5336 28.1253 31.2149 28.6131 30.8897C29.1009 30.5644 29.5693 30.2262 30.0181 29.875C30.0961 29.3156 30.1547 28.7432 30.1937 28.1513C30.2327 27.5659 30.2522 26.961 30.2522 26.3561C30.2522 25.7511 30.2327 25.1462 30.1937 24.5608C30.1547 23.9754 30.0961 23.3965 30.0181 22.8372C29.5693 22.4924 29.1009 22.1542 28.6131 21.8225C28.1253 21.4972 27.6179 21.1785 27.0846 20.8728C26.5577 20.5671 26.0243 20.2874 25.4975 20.0337C24.9706 19.7736 24.4438 19.5394 23.9169 19.3247C23.39 19.5394 22.8632 19.7736 22.3363 20.0337C21.8094 20.2874 21.2761 20.5736 20.7492 20.8728C20.2224 21.1785 19.7085 21.4972 19.2207 21.8225C18.7328 22.1477 18.2645 22.4859 17.8157 22.8372C17.7377 23.3965 17.6791 23.9689 17.6401 24.5608C17.6011 25.1462 17.5815 25.7511 17.5815 26.3561C17.5815 26.961 17.6011 27.5659 17.6401 28.1513C17.6791 28.7367 17.7377 29.3156 17.8157 29.875C18.2645 30.2197 18.7328 30.5579 19.2207 30.8897C19.7085 31.2149 20.2159 31.5336 20.7492 31.8393C21.2761 32.145 21.8094 32.4247 22.3363 32.6784C22.8697 32.9386 23.3965 33.1727 23.9169 33.3874ZM29.3546 16.9311C29.5563 16.9116 29.7579 16.8986 29.953 16.8921C30.1482 16.8856 30.3433 16.8791 30.5384 16.8791C31.0458 16.8791 31.5336 16.9116 31.9889 16.9766C32.4442 17.0417 32.8735 17.1392 33.2703 17.2693C32.4377 16.4172 31.4946 15.6692 30.4539 15.0708C29.4132 14.4659 28.2879 14.0041 27.0976 13.7049C27.5269 14.0952 27.9366 14.57 28.3139 15.1099C28.6912 15.6497 29.0424 16.2611 29.3546 16.9376V16.9311ZM28.7692 17.9718C28.2098 18.0499 27.6309 18.1604 27.0325 18.3035C26.4406 18.4466 25.8292 18.6288 25.2048 18.8434C25.6015 19.0255 25.9918 19.2142 26.3886 19.4158C26.7854 19.6174 27.1691 19.8256 27.5594 20.0532C27.9562 20.2809 28.3334 20.5151 28.7042 20.7557C29.0749 20.9964 29.4392 21.2371 29.7839 21.4907C29.6603 20.8533 29.5107 20.2354 29.3416 19.65C29.1725 19.0646 28.9774 18.5052 28.7627 17.9848L28.7692 17.9718ZM23.9234 13.3081C23.0583 13.3081 22.2322 13.6659 21.4842 14.3163C20.7297 14.9668 20.0532 15.9034 19.4809 17.0612C20.1898 17.1718 20.9183 17.3279 21.6598 17.536C22.4014 17.7442 23.1559 17.9978 23.9234 18.2905C24.6844 17.9913 25.4389 17.7377 26.1869 17.536C26.9285 17.3279 27.657 17.1718 28.3659 17.0612C27.7935 15.9034 27.1171 14.9603 26.3626 14.3163C25.6081 13.6724 24.7885 13.3081 23.9234 13.3081ZM20.7427 13.7049C19.5524 14.0041 18.4206 14.4659 17.3864 15.0708C16.3457 15.6692 15.4026 16.4172 14.57 17.2693C14.9668 17.1392 15.3961 17.0417 15.8514 16.9766C16.3067 16.9116 16.7945 16.8791 17.3019 16.8791C17.497 16.8791 17.6856 16.8791 17.8873 16.8921C18.0824 16.8986 18.284 16.9181 18.4857 16.9311C18.7979 16.2611 19.1491 15.6497 19.5264 15.1099C19.9036 14.5635 20.3134 14.0952 20.7427 13.7049ZM18.0499 21.4777C18.4011 21.2306 18.7589 20.9834 19.1296 20.7427C19.5004 20.5021 19.8841 20.2679 20.2744 20.0402C20.6647 19.8126 21.0549 19.6044 21.4452 19.4028C21.842 19.2012 22.2322 19.0125 22.629 18.8304C22.0111 18.6158 21.3997 18.4401 20.8013 18.2905C20.2028 18.1409 19.6305 18.0369 19.0646 17.9588C18.8499 18.4792 18.6613 19.0385 18.4857 19.6239C18.3166 20.2094 18.167 20.8273 18.0434 21.4647L18.0499 21.4777ZM25.2113 33.8752C25.8292 34.0899 26.4406 34.2655 27.039 34.4151C27.6309 34.5582 28.2098 34.6688 28.7757 34.7468C28.9904 34.2265 29.179 33.6671 29.3546 33.0817C29.5237 32.4963 29.6733 31.8783 29.7969 31.2409C29.4457 31.4881 29.0879 31.7352 28.7172 31.9759C28.3464 32.2166 27.9627 32.4507 27.5724 32.6784C27.1821 32.9061 26.7919 33.1142 26.4016 33.3158C26.0113 33.5175 25.6146 33.7061 25.2178 33.8882L25.2113 33.8752ZM27.0976 39.0072C28.2879 38.708 29.4197 38.2462 30.4539 37.6413C31.4946 37.0429 32.4377 36.2949 33.2703 35.4428C32.8735 35.5729 32.4442 35.6704 31.9889 35.7355C31.5336 35.8005 31.0458 35.8331 30.5384 35.8331C30.3433 35.8331 30.1547 35.8331 29.953 35.82C29.7579 35.8135 29.5563 35.794 29.3546 35.781C29.0424 36.451 28.6912 37.0624 28.3139 37.6023C27.9366 38.1421 27.5269 38.617 27.0976 39.0072ZM35.1891 32.9256C35.1891 32.9256 35.2216 32.8735 35.2346 32.8475C35.2477 32.8215 35.2672 32.7955 35.2802 32.7695C35.6704 32.0214 35.7485 31.1498 35.5534 30.1937C35.3582 29.244 34.8964 28.2098 34.1939 27.1626C33.7516 27.7155 33.2573 28.2619 32.7109 28.8082C32.1645 29.3481 31.5661 29.8815 30.9157 30.4018C30.7921 31.2214 30.6295 32.0019 30.4409 32.7434C30.2457 33.4915 30.0181 34.1939 29.7644 34.8509C29.8945 34.8574 30.0246 34.8704 30.1612 34.8769C30.2913 34.8769 30.4214 34.8899 30.5449 34.8899C31.6312 34.8899 32.6003 34.7273 33.3939 34.4021C34.1809 34.0769 34.8054 33.589 35.1956 32.9321L35.1891 32.9256ZM31.2149 26.3561C31.2149 26.8114 31.2019 27.2602 31.1824 27.696C31.1629 28.1383 31.1303 28.5741 31.0913 28.9969C31.5856 28.5676 32.041 28.1253 32.4703 27.683C32.893 27.2407 33.2768 26.7919 33.6215 26.3496C33.2768 25.9073 32.8865 25.4584 32.4703 25.0161C32.0475 24.5738 31.5856 24.1315 31.0913 23.7022C31.1303 24.1315 31.1629 24.5673 31.1824 25.0031C31.2019 25.4454 31.2149 25.8942 31.2149 26.3431V26.3561ZM36.4705 29.9335C36.6331 29.3611 36.7567 28.7822 36.8412 28.1838C36.9258 27.5854 36.9713 26.9805 36.9713 26.3561C36.9713 25.7316 36.9258 25.1267 36.8412 24.5283C36.7567 23.9299 36.6331 23.351 36.4705 22.7786C36.3469 23.351 36.1388 23.9364 35.8591 24.5413C35.5794 25.1397 35.2216 25.7511 34.7988 26.3561C35.2216 26.961 35.5794 27.5724 35.8591 28.1708C36.1388 28.7692 36.3469 29.3611 36.4705 29.9335ZM1.44399 12.8138L5.00193 14.8692L8.55987 16.9246C10.277 15.5977 12.339 14.4659 14.8106 13.6594C17.2823 12.8528 20.1703 12.365 23.5331 12.3325C23.5982 12.3325 23.6567 12.3325 23.7218 12.3325C23.7868 12.3325 23.8453 12.3325 23.9104 12.3325C25.2633 12.3325 26.5707 12.5276 27.8066 12.8853C29.0424 13.2431 30.2132 13.7699 31.2799 14.4334C30.4734 13.5618 29.6343 12.7748 28.7562 12.0723C27.8781 11.3698 26.974 10.7584 26.0243 10.2315C24.6064 9.44447 23.1103 8.84606 21.5428 8.44929C19.9752 8.05252 18.3426 7.85088 16.6514 7.85088H16.5343C13.822 7.86389 11.3373 8.39075 9.32739 9.01518C7.31101 9.64611 5.76295 10.3811 4.91737 10.8169C4.89135 10.8299 4.8198 10.8689 4.80679 10.8755L3.12214 11.8446L1.43749 12.8138H1.44399ZM0.956155 28.8863C1.44399 27.0846 2.17899 25.0942 3.27174 23.1364C4.36449 21.1785 5.82149 19.2532 7.75982 17.5815L4.35799 15.6172L0.956155 13.6529V28.8798V28.8863ZM14.6285 47.4955C12.2219 45.0694 9.67213 41.6285 8.52084 37.2055C7.37606 32.7825 7.62973 27.3838 10.8364 21.0549C10.9535 21.172 11.0901 21.2761 11.2332 21.3606C11.3763 21.4452 11.5324 21.5102 11.7015 21.5558C11.7796 21.5753 11.8576 21.5948 11.9357 21.6013C12.0137 21.6143 12.0918 21.6208 12.1763 21.6208C12.1828 22.2127 12.3194 22.8502 12.5666 23.5071C12.8138 24.1641 13.1715 24.847 13.6333 25.543C14.0756 24.9901 14.57 24.4438 15.1164 23.8974C15.6627 23.351 16.2611 22.8241 16.9116 22.3038C17.0352 21.4842 17.1978 20.7037 17.3864 19.9622C17.5815 19.2142 17.8092 18.5117 18.0629 17.8547C17.9328 17.8482 17.8027 17.8352 17.6661 17.8287C17.536 17.8287 17.4059 17.8157 17.2823 17.8157C16.6124 17.8157 15.9945 17.8808 15.4286 17.9978C14.8627 18.1214 14.3618 18.3035 13.926 18.5507C13.8025 18.3491 13.6464 18.1735 13.4642 18.0304C13.2821 17.8873 13.0805 17.7767 12.8528 17.6986C13.4447 16.9376 14.1212 16.2416 14.8562 15.6172C15.5912 14.9928 16.3912 14.4464 17.2498 13.9846C16.092 14.2448 14.9928 14.583 13.9521 14.9863C12.9048 15.3961 11.9227 15.8774 10.9925 16.4238C9.58107 17.2693 8.30619 18.2775 7.16791 19.4548C6.02963 20.6321 5.03445 21.9656 4.18237 23.4551C2.84245 25.8097 2.0489 28.2228 1.58709 30.2848C1.12527 32.3467 0.988678 34.0508 0.949651 35.007C0.949651 35.0395 0.949651 35.3517 0.949651 35.3517C0.949651 36.6526 1.30089 37.9145 1.93182 39.0137C2.56276 40.113 3.47988 41.0431 4.61166 41.6936L9.61359 44.5816L14.622 47.476L14.6285 47.4955ZM23.4226 44.3539C21.3736 43.5148 19.3247 42.266 17.3604 40.4772C15.3895 38.6885 13.5033 36.3599 11.7666 33.3614C11.1682 32.3272 10.6998 31.2149 10.3746 30.0376C10.0559 28.8603 9.88027 27.6244 9.88027 26.3496C9.88027 26.278 9.88027 26.213 9.88027 26.1414C9.88027 26.0699 9.88027 26.0048 9.88027 25.9333C9.52903 27.065 9.26885 28.1838 9.09974 29.2896C8.93062 30.3953 8.85257 31.4881 8.87208 32.5678C8.8981 34.2069 9.13226 35.8266 9.58107 37.3941C10.0299 38.9682 10.6868 40.4968 11.5519 41.9798C12.9244 44.3214 14.6155 46.2077 16.1701 47.6386C17.7246 49.0696 19.1296 50.0453 19.9362 50.5526C19.9622 50.5722 19.9817 50.5852 20.0012 50.5917C20.0207 50.6047 20.0337 50.6112 20.0467 50.6177L21.7314 51.5869L23.416 52.556V44.3344L23.4226 44.3539ZM37.5893 44.9588C36.6461 45.2125 35.6184 45.4271 34.5387 45.5832C33.4524 45.7393 32.3141 45.8369 31.1303 45.8369C30.0571 45.8369 28.9513 45.7589 27.8261 45.5832C26.7008 45.4076 25.556 45.1279 24.4047 44.7312V52.5755L31.0002 48.7704L37.5958 44.9653L37.5893 44.9588ZM46.8711 23.8063C45.9735 27.0976 44.2693 31.0328 41.0106 34.2395C37.7519 37.4462 32.9516 39.9244 25.8682 40.3081C25.9268 40.061 25.9463 39.8138 25.9138 39.5731C25.8812 39.3325 25.8097 39.0918 25.6861 38.8706C26.2 38.5649 26.6813 38.1291 27.1301 37.5893C27.5789 37.0429 27.9952 36.3859 28.3594 35.6444C27.6504 35.5339 26.9219 35.3777 26.1804 35.1696C25.4389 34.9615 24.6844 34.7078 23.9169 34.4086C23.1559 34.7078 22.4014 34.9615 21.6533 35.1696C20.9118 35.3777 20.1833 35.5339 19.4743 35.6444C19.8451 36.3924 20.2549 37.0494 20.7102 37.5958C21.159 38.1421 21.6403 38.5714 22.1542 38.8771C22.0436 39.0853 21.9721 39.3064 21.933 39.5341C21.9005 39.7617 21.907 39.9959 21.9525 40.2301C20.9704 40.0935 20.0207 39.8528 19.1166 39.5211C18.2125 39.1894 17.3474 38.7666 16.5408 38.2657C17.3474 39.1373 18.1865 39.9244 19.0646 40.6268C19.9427 41.3293 20.8468 41.9407 21.7964 42.4676C23.2339 43.2677 24.7495 43.8661 26.3365 44.2628C27.9236 44.6596 29.5823 44.8547 31.2929 44.8482C34.0053 44.8352 36.49 44.3084 38.4999 43.6839C40.5163 43.053 42.0643 42.318 42.9099 41.8822C42.9359 41.8692 43.2156 41.7131 43.2156 41.7131C44.3474 41.0626 45.2645 40.126 45.8955 39.0332C46.5264 37.934 46.8776 36.6786 46.8776 35.3712V23.8128L46.8711 23.8063ZM46.8711 13.6529L43.3132 15.7083L39.7552 17.7637C40.0545 19.9557 39.9959 22.3558 39.43 24.9511C38.8641 27.5529 37.7974 30.3563 36.0607 33.3549C35.4103 34.4801 34.6102 35.5013 33.6801 36.3989C32.7565 37.2966 31.7092 38.0706 30.5579 38.6885C31.7157 38.4283 32.815 38.0901 33.8557 37.6868C34.9029 37.277 35.8851 36.7957 36.8152 36.2428C38.2267 35.3973 39.5016 34.3891 40.6399 33.2118C41.7781 32.0345 42.7733 30.701 43.6254 29.2115C44.9653 26.8569 45.7589 24.4438 46.2207 22.3818C46.6825 20.3199 46.8191 18.6158 46.8581 17.6596C46.8581 17.6271 46.8581 17.549 46.8581 17.536V13.6529H46.8711Z" fill="#D0D0D0"/>
<path d="M54.9302 30.0181H57.6555C60.602 30.0181 62.5078 31.4881 62.5078 34.8053C62.5078 38.1226 60.6086 39.6707 57.7791 39.6707H54.9302V30.0181ZM57.5254 37.9145C59.1646 37.9145 60.2703 37.1144 60.2703 34.7988C60.2703 32.4833 59.1646 31.7678 57.5254 31.7678H57.1092V37.908H57.5254V37.9145Z" fill="#D0D0D0"/>
<path d="M63.7242 36.0022C63.7242 33.615 65.4283 32.145 67.191 32.145C69.2855 32.145 70.3197 33.6671 70.3197 35.6704C70.3197 36.0607 70.2677 36.4575 70.2286 36.6331H65.8316C66.0267 37.6998 66.7552 38.1877 67.7374 38.1877C68.2903 38.1877 68.7911 38.0185 69.3245 37.7063L70.0465 39.0202C69.292 39.5406 68.3098 39.8463 67.4382 39.8463C65.3438 39.8463 63.7177 38.4348 63.7177 35.9957L63.7242 36.0022ZM68.4594 35.1956C68.4594 34.3891 68.1082 33.8037 67.2366 33.8037C66.5471 33.8037 65.9552 34.2655 65.8056 35.1956H68.4529H68.4594Z" fill="#D0D0D0"/>
<path d="M70.9571 32.3206H73.1426L74.0988 35.7875C74.2874 36.516 74.4825 37.277 74.6712 38.0446H74.7297C74.9183 37.277 75.1135 36.516 75.3021 35.7875L76.2583 32.3206H78.3397L75.9395 39.6707H73.4288L70.9506 32.3206H70.9571Z" fill="#D0D0D0"/>
<path d="M78.9381 36.0022C78.9381 33.615 80.6423 32.145 82.405 32.145C84.4994 32.145 85.5336 33.6671 85.5336 35.6704C85.5336 36.0607 85.4881 36.4575 85.4426 36.6331H81.052C81.2472 37.6998 81.9757 38.1877 82.9578 38.1877C83.5172 38.1877 84.0181 38.0185 84.5449 37.7063L85.2669 39.0202C84.5124 39.5406 83.5302 39.8463 82.6586 39.8463C80.5642 39.8463 78.9381 38.4348 78.9381 35.9957V36.0022ZM83.6733 35.1956C83.6733 34.3891 83.3221 33.8037 82.4505 33.8037C81.761 33.8037 81.1691 34.2655 81.0195 35.1956H83.6733Z" fill="#D0D0D0"/>
<path d="M87.0361 37.3876V29.2961H89.2151V37.4787C89.2151 37.947 89.4298 38.0966 89.6054 38.0966C89.69 38.0966 89.7485 38.0966 89.8721 38.0706L90.1323 39.6772C89.8916 39.7813 89.5339 39.8593 89.0395 39.8593C87.55 39.8528 87.0361 38.8772 87.0361 37.3941V37.3876Z" fill="#D0D0D0"/>
<path d="M90.8412 36.0022C90.8412 33.5565 92.5584 32.145 94.4187 32.145C96.279 32.145 97.9962 33.5565 97.9962 36.0022C97.9962 38.4478 96.279 39.8528 94.4187 39.8528C92.5584 39.8528 90.8412 38.4413 90.8412 36.0022ZM95.7716 36.0022C95.7716 34.7338 95.3228 33.9077 94.4252 33.9077C93.5276 33.9077 93.0788 34.7338 93.0788 36.0022C93.0788 37.2705 93.5276 38.0966 94.4252 38.0966C95.3228 38.0966 95.7716 37.277 95.7716 36.0022Z" fill="#D0D0D0"/>
<path d="M99.4922 32.3206H101.268L101.424 33.0426H101.483C102.061 32.5288 102.809 32.145 103.577 32.145C105.353 32.145 106.445 33.615 106.445 35.8786C106.445 38.4023 104.949 39.8463 103.356 39.8463C102.725 39.8463 102.133 39.5666 101.6 39.0788L101.671 40.2431V42.396H99.4922V32.3206ZM104.208 35.9046C104.208 34.5842 103.805 33.9272 102.933 33.9272C102.484 33.9272 102.1 34.1289 101.671 34.5842V37.6023C102.068 37.947 102.478 38.0706 102.842 38.0706C103.603 38.0706 104.208 37.4266 104.208 35.9046Z" fill="#D0D0D0"/>
<path d="M107.98 32.3206H109.756L109.912 33.2638H109.964C110.569 32.6589 111.226 32.145 112.189 32.145C113.223 32.145 113.848 32.5873 114.218 33.3809C114.862 32.7044 115.558 32.145 116.527 32.145C118.114 32.145 118.823 33.2703 118.823 35.1111V39.6707H116.644V35.3907C116.644 34.3305 116.352 33.9988 115.74 33.9988C115.37 33.9988 114.953 34.233 114.491 34.7143V39.6707H112.312V35.3907C112.312 34.3305 112.02 33.9988 111.408 33.9988C111.044 33.9988 110.621 34.233 110.159 34.7143V39.6707H107.98V32.3206Z" fill="#D0D0D0"/>
<path d="M120.241 36.0022C120.241 33.615 121.946 32.145 123.708 32.145C125.803 32.145 126.837 33.6671 126.837 35.6704C126.837 36.0607 126.785 36.4575 126.746 36.6331H122.349C122.544 37.6998 123.272 38.1877 124.255 38.1877C124.814 38.1877 125.315 38.0185 125.842 37.7063L126.564 39.0202C125.809 39.5406 124.827 39.8463 123.955 39.8463C121.861 39.8463 120.235 38.4348 120.235 35.9957L120.241 36.0022ZM124.977 35.1956C124.977 34.3891 124.625 33.8037 123.754 33.8037C123.071 33.8037 122.472 34.2655 122.323 35.1956H124.97H124.977Z" fill="#D0D0D0"/>
<path d="M128.339 32.3206H130.115L130.271 33.2508H130.323C130.941 32.6524 131.683 32.145 132.684 32.145C134.278 32.145 134.961 33.2703 134.961 35.1111V39.6707H132.782V35.3907C132.782 34.3305 132.496 33.9988 131.871 33.9988C131.325 33.9988 130.987 34.2525 130.512 34.7143V39.6707H128.333V32.3206H128.339Z" fill="#D0D0D0"/>
<path d="M137.107 36.9974V34.0313H136.106V32.4052L137.231 32.3207L137.485 30.3693H139.286V32.3207H141.049V34.0313H139.286V36.9713C139.286 37.8039 139.664 38.1356 140.236 38.1356C140.477 38.1356 140.737 38.0641 140.939 37.9925L141.283 39.5731C140.893 39.6967 140.36 39.8398 139.651 39.8398C137.836 39.8398 137.114 38.7015 137.114 36.9909L137.107 36.9974Z" fill="#D0D0D0"/>
<path d="M150.051 30.0181H152.666L155.697 39.6707H153.388L152.126 34.7858C151.86 33.8167 151.599 32.6784 151.339 31.6702H151.281C151.047 32.6914 150.793 33.8232 150.52 34.7858L149.251 39.6707H147.02L150.051 30.0181ZM149.355 35.6769H154V37.3746H149.355V35.6769Z" fill="#D0D0D0"/>
<path d="M164.452 36.0022C164.452 33.615 166.156 32.145 167.919 32.145C170.014 32.145 171.048 33.6671 171.048 35.6704C171.048 36.0607 170.996 36.4575 170.957 36.6331H166.56C166.755 37.6998 167.483 38.1877 168.465 38.1877C169.025 38.1877 169.519 38.0185 170.053 37.7063L170.775 39.0202C170.02 39.5406 169.038 39.8463 168.166 39.8463C166.072 39.8463 164.446 38.4348 164.446 35.9957L164.452 36.0022ZM169.187 35.1956C169.187 34.3891 168.836 33.8037 167.965 33.8037C167.275 33.8037 166.683 34.2655 166.534 35.1956H169.187Z" fill="#D0D0D0"/>
<path d="M172.55 32.3206H174.326L174.482 33.2508H174.534C175.152 32.6524 175.894 32.145 176.895 32.145C178.495 32.145 179.172 33.2703 179.172 35.1111V39.6707H176.993V35.3907C176.993 34.3305 176.707 33.9988 176.082 33.9988C175.536 33.9988 175.198 34.2525 174.723 34.7143V39.6707H172.544V32.3206H172.55Z" fill="#D0D0D0"/>
<path d="M180.596 36.0022C180.596 33.5565 182.398 32.145 184.421 32.145C185.325 32.145 186.021 32.4702 186.567 32.9386L185.54 34.337C185.188 34.0378 184.889 33.9012 184.544 33.9012C183.497 33.9012 182.827 34.7273 182.827 35.9957C182.827 37.264 183.53 38.0901 184.473 38.0901C184.954 38.0901 185.416 37.8494 185.8 37.5502L186.652 38.9747C185.936 39.6056 185.026 39.8528 184.226 39.8528C182.183 39.8528 180.596 38.4413 180.596 36.0022Z" fill="#D0D0D0"/>
<path d="M187.745 42.3961L188.135 40.7374C188.272 40.7699 188.473 40.835 188.629 40.835C189.345 40.835 189.722 40.4382 189.917 39.8658L190.028 39.4821L187.192 32.3206H189.377L190.431 35.4818C190.646 36.1453 190.815 36.8412 191.01 37.5632H191.068C191.231 36.8673 191.4 36.1713 191.582 35.4818L192.473 32.3206H194.555L192.005 39.7487C191.309 41.5895 190.522 42.5457 188.798 42.5457C188.343 42.5457 188.05 42.4871 187.751 42.3961H187.745Z" fill="#D0D0D0"/>
<path d="M163.268 38.4739C163.268 40.7829 161.681 41.8887 159.288 41.8887C158.136 41.8887 157.291 41.622 156.66 41.3098L157.239 39.8528C157.766 40.139 158.423 40.3797 159.236 40.3797C160.348 40.3797 161.128 39.8918 161.128 38.5454V38.1486H161.102C160.654 38.7666 159.951 39.1698 159.041 39.1698C157.317 39.1698 156.179 37.7649 156.179 35.82C156.179 33.8752 157.336 32.3271 159.119 32.3271C160.049 32.3271 160.797 32.7564 161.311 33.4784H161.337L161.389 32.4768H163.268V38.4804V38.4739ZM161.206 35.755C161.206 34.6427 160.693 33.8687 159.776 33.8687C158.858 33.8687 158.345 34.7078 158.345 35.7745C158.345 36.8412 158.813 37.6543 159.762 37.6543C160.693 37.6543 161.206 36.8608 161.206 35.7485V35.755Z" fill="#D0D0D0"/>
<path d="M54.9302 12.2414H57.1092V21.894H54.9302V12.2414Z" fill="#D0D0D0"/>
<path d="M59.2036 14.5505H60.9793L61.1354 15.4806H61.1874C61.8054 14.8822 62.5469 14.3749 63.5486 14.3749C65.1422 14.3749 65.8251 15.5001 65.8251 17.3409V21.9005H63.6461V17.6206C63.6461 16.5604 63.3599 16.2351 62.7355 16.2351C62.1891 16.2351 61.8509 16.4888 61.3761 16.9506V21.907H59.1971V14.5505H59.2036Z" fill="#D0D0D0"/>
<path d="M67.6789 14.5505H69.4546L69.6107 15.4806H69.6627C70.2807 14.8822 71.0222 14.3749 72.0239 14.3749C73.6174 14.3749 74.3004 15.5001 74.3004 17.3409V21.9005H72.1214V17.6206C72.1214 16.5604 71.8352 16.2351 71.2108 16.2351C70.6644 16.2351 70.3262 16.4888 69.8514 16.9506V21.907H67.6724V14.5505H67.6789Z" fill="#D0D0D0"/>
<path d="M75.7249 18.2255C75.7249 15.7798 77.4421 14.3683 79.3023 14.3683C81.1626 14.3683 82.8798 15.7798 82.8798 18.2255C82.8798 20.6712 81.1626 22.0761 79.3023 22.0761C77.4421 22.0761 75.7249 20.6647 75.7249 18.2255ZM80.6488 18.2255C80.6488 16.9571 80.2 16.1311 79.3023 16.1311C78.4047 16.1311 77.9559 16.9571 77.9559 18.2255C77.9559 19.4939 78.4047 20.3199 79.3023 20.3199C80.2 20.3199 80.6488 19.5004 80.6488 18.2255Z" fill="#D0D0D0"/>
<path d="M83.4717 14.5505H85.6637L86.6199 18.0174C86.8085 18.7459 87.0036 19.5069 87.1923 20.2744H87.2508C87.4394 19.5069 87.6346 18.7459 87.8232 18.0174L88.7793 14.5505H90.8608L88.4606 21.9005H85.9499L83.4717 14.5505Z" fill="#D0D0D0"/>
<path d="M91.3616 19.8581C91.3616 18.31 92.5975 17.471 95.4984 17.1653C95.4529 16.5213 95.1342 16.105 94.3341 16.105C93.7162 16.105 93.0983 16.3652 92.3893 16.7685L91.6153 15.3375C92.5454 14.7651 93.5991 14.3683 94.7504 14.3683C96.6302 14.3683 97.6709 15.4416 97.6709 17.6921V21.894H95.8952L95.7391 21.1395H95.6871C95.0692 21.6794 94.3732 22.0696 93.5471 22.0696C92.2072 22.0631 91.3551 21.0875 91.3551 19.8451L91.3616 19.8581ZM95.4984 19.7605V18.4727C93.9504 18.6808 93.4495 19.1231 93.4495 19.6825C93.4495 20.1573 93.7748 20.385 94.2951 20.385C94.783 20.385 95.1147 20.1378 95.5049 19.7605H95.4984Z" fill="#D0D0D0"/>
<path d="M99.5377 19.2272V16.2611H98.536V14.635L99.6613 14.5505L99.915 12.5991H101.717V14.5505H103.479V16.2611H101.717V19.2012C101.717 20.0337 102.094 20.3655 102.666 20.3655C102.907 20.3655 103.167 20.2939 103.369 20.2224L103.714 21.8029C103.323 21.9265 102.79 22.0696 102.081 22.0696C100.26 22.0696 99.5377 20.9313 99.5377 19.2207V19.2272Z" fill="#D0D0D0"/>
<path d="M108.572 18.2255C108.572 15.7798 110.29 14.3683 112.15 14.3683C114.01 14.3683 115.727 15.7798 115.727 18.2255C115.727 20.6712 114.01 22.0761 112.15 22.0761C110.29 22.0761 108.572 20.6647 108.572 18.2255ZM113.503 18.2255C113.503 16.9571 113.054 16.1311 112.156 16.1311C111.259 16.1311 110.81 16.9571 110.81 18.2255C110.81 19.4939 111.259 20.3199 112.156 20.3199C113.054 20.3199 113.503 19.5004 113.503 18.2255Z" fill="#D0D0D0"/>
<path d="M117.223 14.5505H118.999L119.155 15.4806H119.207C119.825 14.8822 120.567 14.3749 121.568 14.3749C123.168 14.3749 123.845 15.5001 123.845 17.3409V21.9005H121.666V17.6206C121.666 16.5604 121.38 16.2351 120.755 16.2351C120.209 16.2351 119.871 16.4888 119.396 16.9506V21.907H117.217V14.5505H117.223Z" fill="#D0D0D0"/>
<path d="M128.313 19.8581C128.313 18.31 129.549 17.471 132.45 17.1653C132.411 16.5213 132.086 16.105 131.286 16.105C130.668 16.105 130.057 16.3652 129.341 16.7685L128.567 15.3375C129.497 14.7651 130.551 14.3683 131.702 14.3683C133.576 14.3683 134.623 15.4416 134.623 17.6921V21.894H132.847L132.691 21.1395H132.639C132.021 21.6794 131.325 22.0696 130.499 22.0696C129.159 22.0631 128.307 21.0875 128.307 19.8451L128.313 19.8581ZM132.45 19.7605V18.4727C130.902 18.6808 130.401 19.1231 130.401 19.6825C130.401 20.1573 130.727 20.385 131.247 20.385C131.735 20.385 132.067 20.1378 132.457 19.7605H132.45Z" fill="#D0D0D0"/>
<path d="M136.457 14.5505H138.233L138.389 15.4806H138.441C139.059 14.8822 139.8 14.3749 140.802 14.3749C142.402 14.3749 143.079 15.5001 143.079 17.3409V21.9005H140.9V17.6206C140.9 16.5604 140.613 16.2351 139.989 16.2351C139.443 16.2351 139.104 16.4888 138.629 16.9506V21.907H136.451V14.5505H136.457Z" fill="#D0D0D0"/>
<path d="M144.555 18.2255C144.555 15.8253 146.051 14.3683 147.599 14.3683C148.406 14.3683 148.907 14.6675 149.401 15.1359L149.323 14.0236V11.5194H151.502V21.894H149.726L149.57 21.1655H149.518C148.998 21.6858 148.269 22.0696 147.567 22.0696C145.732 22.0696 144.555 20.6191 144.555 18.219V18.2255ZM149.323 19.6304V16.6124C148.939 16.2676 148.503 16.144 148.107 16.144C147.404 16.144 146.786 16.7945 146.786 18.193C146.786 19.5914 147.28 20.2874 148.126 20.2874C148.588 20.2874 148.965 20.1118 149.323 19.6304Z" fill="#D0D0D0"/>
<path d="M156.562 12.2414H159.288C162.234 12.2414 164.14 13.7114 164.14 17.0287C164.14 20.3459 162.241 21.894 159.411 21.894H156.562V12.2414ZM159.158 20.1378C160.797 20.1378 161.902 19.3377 161.902 17.0222C161.902 14.7066 160.797 13.9911 159.158 13.9911H158.748V20.1313H159.158V20.1378Z" fill="#D0D0D0"/>
<path d="M182.164 19.2272V16.2611H181.156V14.635L182.281 14.5505L182.535 12.5991H184.336V14.5505H186.099V16.2611H184.336V19.2012C184.336 20.0337 184.714 20.3655 185.286 20.3655C185.527 20.3655 185.793 20.2939 185.988 20.2224L186.333 21.8029C185.943 21.9265 185.41 22.0696 184.701 22.0696C182.886 22.0696 182.164 20.9313 182.164 19.2207V19.2272Z" fill="#D0D0D0"/>
<path d="M186.912 19.8581C186.912 18.31 188.148 17.471 191.049 17.1653C191.01 16.5213 190.685 16.105 189.885 16.105C189.267 16.105 188.655 16.3652 187.94 16.7685L187.166 15.3375C188.096 14.7651 189.15 14.3683 190.301 14.3683C192.181 14.3683 193.221 15.4416 193.221 17.6921V21.894H191.446L191.29 21.1395H191.238C190.62 21.6794 189.924 22.0696 189.098 22.0696C187.751 22.0631 186.906 21.0875 186.906 19.8451L186.912 19.8581ZM191.049 19.7605V18.4727C189.501 18.6808 189 19.1231 189 19.6825C189 20.1573 189.325 20.385 189.846 20.385C190.366 20.385 190.672 20.1378 191.055 19.7605H191.049Z" fill="#D0D0D0"/>
<path d="M195.049 19.6109V11.5194H197.228V19.702C197.228 20.1703 197.443 20.3199 197.625 20.3199C197.709 20.3199 197.768 20.3199 197.892 20.2939L198.152 21.9005C197.911 22.0046 197.553 22.0826 197.059 22.0826C195.563 22.0761 195.056 21.1004 195.056 19.6174L195.049 19.6109Z" fill="#D0D0D0"/>
<path d="M176.121 20.5216C176.121 22.8307 174.534 23.9364 172.14 23.9364C170.989 23.9364 170.144 23.6697 169.513 23.3575L170.092 21.9005C170.618 22.1867 171.275 22.4274 172.088 22.4274C173.201 22.4274 173.981 21.9395 173.981 20.5931V20.1964H173.955C173.506 20.8143 172.804 21.2176 171.893 21.2176C170.17 21.2176 169.031 19.8126 169.031 17.8678C169.031 15.9229 170.189 14.3749 171.971 14.3749C172.902 14.3749 173.65 14.8042 174.163 15.5262H174.189L174.241 14.5245H176.121V20.5281V20.5216ZM174.059 17.8027C174.059 16.6904 173.545 15.9164 172.628 15.9164C171.711 15.9164 171.197 16.7555 171.197 17.8222C171.197 18.889 171.666 19.702 172.615 19.702C173.545 19.702 174.059 18.9085 174.059 17.7962V17.8027Z" fill="#D0D0D0"/>
<path d="M104.91 11.9942H107.102V13.796H104.91V11.9942ZM104.936 14.9733H107.076V21.894H104.936V14.9733Z" fill="#D0D0D0"/>
<path d="M165.239 11.9942H167.431V13.796H165.239V11.9942ZM165.265 14.9733H167.405V21.894H165.265V14.9733Z" fill="#D0D0D0"/>
<path d="M177.624 11.9942H179.816V13.796H177.624V11.9942ZM177.65 14.9733H179.79V21.894H177.65V14.9733Z" fill="#D0D0D0"/>
</svg>
