<svg width="35" height="35" viewBox="0 0 35 35" fill="none" xmlns="http://www.w3.org/2000/svg">
<path d="M17.5 0C7.85105 0 0 7.85105 0 17.5C0 27.149 7.85105 35 17.5 35C27.149 35 35 27.149 35 17.5C35 7.85105 27.1438 0 17.5 0ZM17.5 31.909C9.55623 31.909 3.09096 25.4438 3.09096 17.5C3.09096 9.55623 9.55623 3.09096 17.5 3.09096C25.4438 3.09096 31.909 9.55623 31.909 17.5C31.909 25.4438 25.4438 31.909 17.5 31.909Z" fill="#AC57FF"/>
<path d="M14.7645 20.1634L11.3335 16.7376L9.14925 18.9218L14.7645 24.5371L25.758 13.5384L23.5737 11.3541L14.7645 20.1634Z" fill="#AC57FF"/>
</svg>
