<svg width="35" height="36" viewBox="0 0 35 36" fill="none" xmlns="http://www.w3.org/2000/svg">
<path d="M23.561 17.93C25.8246 16.1345 27.284 13.3698 27.284 10.2636C27.284 4.87176 22.8946 0.4823 17.5028 0.4823C12.1109 0.4823 7.72148 4.87176 7.72148 10.2636C7.72148 13.3698 9.18096 16.1345 11.4445 17.93C4.76947 20.3973 0 26.8246 0 34.3478V36H35V34.3478C35 26.8246 30.2305 20.3973 23.5555 17.93H23.561ZM17.5028 3.79229C21.0716 3.79229 23.9795 6.70024 23.9795 10.2691C23.9795 13.8379 21.0771 16.7459 17.5028 16.7459C13.9284 16.7459 11.026 13.8434 11.026 10.2691C11.026 6.69473 13.9284 3.79229 17.5028 3.79229ZM3.40362 32.6955C4.22423 25.646 10.2329 20.155 17.5028 20.155C24.7726 20.155 30.7813 25.646 31.6019 32.6955H3.40362Z" fill="#FF2A45"/>
</svg>
