<svg width="140" height="22" viewBox="0 0 140 22" fill="none" xmlns="http://www.w3.org/2000/svg">
<path d="M8.73621 21.9959C7.21705 21.9959 5.80611 21.7405 4.5117 21.238C3.21313 20.7313 2.16012 19.9363 1.34435 18.8571C0.532747 17.7779 0.0832417 16.3692 0 14.6351H5.00282C5.00282 15.2735 5.16515 15.8008 5.49395 16.2168C5.82275 16.6328 6.2681 16.9418 6.82998 17.1395C7.39602 17.3372 8.02034 17.4361 8.70708 17.4361C9.25647 17.4361 9.76841 17.3908 10.2512 17.296C10.7299 17.2013 11.1211 17.0365 11.4166 16.7935C11.7121 16.5546 11.8578 16.225 11.8578 15.8049C11.8578 15.2941 11.7038 14.9111 11.3916 14.6598C11.0795 14.4085 10.5176 14.1202 9.70598 13.7989L5.0819 11.8094C3.56274 11.1627 2.38071 10.4007 1.53581 9.52331C0.690906 8.64595 0.270535 7.45141 0.270535 5.93559C0.270535 4.16027 1.00306 2.72683 2.46395 1.63527C3.92484 0.543718 5.92681 0 8.46984 0C11.0129 0 13.0398 0.601385 14.4216 1.80828C15.8034 3.01517 16.5776 4.73694 16.7482 6.96948H11.7787C11.6538 6.28159 11.3417 5.70081 10.8547 5.23123C10.3636 4.76165 9.56863 4.52687 8.474 4.52687C7.68321 4.52687 7.04225 4.67104 6.55944 4.95937C6.07248 5.24771 5.83108 5.60607 5.83108 6.03445C5.83108 6.42988 5.98508 6.74293 6.29723 6.9736C6.60939 7.20427 7.07554 7.45553 7.69985 7.72739L12.5903 9.77869C14.2135 10.4789 15.4247 11.2986 16.2238 12.2378C17.0188 13.1769 17.4183 14.3056 17.4183 15.6237C17.4183 17.0324 17.077 18.2104 16.3986 19.1578C15.716 20.1052 14.7296 20.8137 13.4394 21.2874C12.145 21.7611 10.58 22 8.74454 22L8.73621 21.9959ZM17.3809 21.4934L24.5355 0.469575H30.9784L37.7376 21.4934H32.4018L31.2448 17.7944H23.9153L22.7583 21.4934H17.3767H17.3809ZM25.2014 14.0831H30.0919L27.6862 6.39281L25.2014 14.0831ZM39.7188 21.4934V0.469575H48.917C50.6359 0.469575 52.0635 0.71672 53.1914 1.21513C54.3194 1.70942 55.1684 2.38495 55.7303 3.2376C56.2963 4.09025 56.5752 5.05411 56.5752 6.12919C56.5752 7.28665 56.2381 8.27111 55.568 9.07433C54.8979 9.87755 54.0197 10.4625 52.9334 10.8291C53.6617 11.0185 54.3277 11.3028 54.927 11.6899C55.5305 12.0771 56.0133 12.5838 56.3754 13.2181C56.7375 13.8483 56.9207 14.631 56.9207 15.5619C56.9207 16.1797 56.8041 16.8306 56.571 17.5184C56.338 18.2063 55.9342 18.853 55.3516 19.4544C54.773 20.0558 53.9656 20.546 52.9292 20.929C51.8929 21.3121 50.5776 21.5016 48.9711 21.5016H39.7104L39.7188 21.4934ZM44.784 4.80696V8.81895H48.6922C49.662 8.81895 50.3529 8.63771 50.7649 8.27111C51.177 7.90451 51.3809 7.43082 51.3809 6.84591C51.3809 6.261 51.177 5.79966 50.7733 5.40423C50.3654 5.0088 49.6828 4.80696 48.7213 4.80696H44.7799H44.784ZM44.784 17.1065H48.8212C49.6745 17.1065 50.3238 16.9459 50.7691 16.6287C51.2103 16.3116 51.435 15.8461 51.435 15.2406C51.435 14.6351 51.2269 14.149 50.8107 13.7824C50.3945 13.4158 49.7327 13.2346 48.8254 13.2346H44.7882V17.1024L44.784 17.1065ZM57.1163 21.4934L64.2709 0.469575H70.7138L77.473 21.4934H72.1372L70.9802 17.7944H63.6507L62.4937 21.4934H57.1121H57.1163ZM64.9368 14.0831H69.8273L67.4216 6.39281L64.9368 14.0831ZM79.4542 0.469575H84.5194V8.75716H92.5439V0.469575H97.655V21.4934H92.5439V13.1728H84.5194V21.4934H79.4542V0.469575ZM99.6361 18.5812C99.6361 17.6503 99.9483 16.88 100.577 16.2621C101.205 15.6443 102.021 15.3394 103.024 15.3394C104.027 15.3394 104.855 15.6484 105.509 16.2621C106.162 16.88 106.491 17.6503 106.491 18.5812C106.491 19.5121 106.162 20.2741 105.509 20.8755C104.855 21.4769 104.027 21.7776 103.024 21.7776C102.021 21.7776 101.205 21.4728 100.577 20.8673C99.9483 20.2617 99.6361 19.4997 99.6361 18.5812ZM108.53 21.4934V0.189478H110.366V21.4975H108.53V21.4934ZM117.791 21.8394C116.588 21.8394 115.598 21.621 114.815 21.1885C114.033 20.756 113.454 20.2 113.075 19.5203C112.697 18.8407 112.505 18.1404 112.505 17.4196C112.505 16.3733 112.759 15.5413 113.271 14.9111C113.783 14.285 114.47 13.8319 115.327 13.5476C116.189 13.2676 117.129 13.1234 118.153 13.1234C118.923 13.1234 119.722 13.2099 120.551 13.3829C121.379 13.5559 122.174 13.7948 122.931 14.0955V15.3189C122.278 15.0388 121.525 14.8122 120.667 14.6433C119.814 14.4744 119.036 14.3921 118.341 14.3921C117.263 14.3921 116.347 14.6227 115.585 15.0799C114.824 15.5413 114.445 16.3157 114.445 17.4155C114.445 18.2393 114.728 18.9395 115.29 19.5162C115.856 20.0887 116.763 20.3771 118.02 20.3771C118.873 20.3771 119.66 20.1752 120.38 19.7675C121.096 19.3597 121.674 18.853 122.111 18.2475C122.548 17.642 122.769 17.0324 122.769 16.4145H123.227C123.227 17.366 123.002 18.2516 122.553 19.0796C122.103 19.9034 121.47 20.5707 120.655 21.0773C119.835 21.584 118.877 21.8352 117.783 21.8352L117.791 21.8394ZM123.015 21.4934L122.777 18.4082V11.83C122.777 10.3348 122.449 9.27617 121.795 8.65006C121.142 8.02396 120.205 7.71092 118.994 7.71092C118.32 7.71092 117.691 7.80565 117.109 7.99925C116.53 8.19285 116.064 8.50178 115.714 8.92192C115.365 9.34619 115.19 9.90226 115.19 10.5902H113.1C113.1 9.53567 113.363 8.69126 113.891 8.06104C114.42 7.43082 115.127 6.9736 116.022 6.69762C116.913 6.42164 117.904 6.28159 118.99 6.28159C120.076 6.28159 121.025 6.46695 121.87 6.83767C122.715 7.20839 123.381 7.80565 123.872 8.62535C124.363 9.44505 124.609 10.5242 124.609 11.8588V21.4934H123.01H123.015ZM126.923 21.4934V0.189478H128.758V18.1116L128.317 21.4975H126.923V21.4934ZM133.399 21.8394C132.363 21.8394 131.434 21.5799 130.606 21.065C129.778 20.546 129.12 19.8004 128.633 18.816C128.146 17.8356 127.905 16.6534 127.905 15.2735H128.758C128.758 16.3486 128.979 17.2548 129.416 17.9921C129.853 18.7295 130.415 19.2855 131.101 19.6604C131.788 20.0352 132.517 20.2247 133.287 20.2247C134.14 20.2247 134.935 19.9775 135.659 19.4874C136.387 18.9972 136.974 18.2846 137.415 17.3578C137.857 16.4269 138.081 15.3106 138.081 14.0049C138.081 12.6991 137.861 11.6076 137.415 10.6972C136.974 9.78693 136.387 9.09081 135.659 8.59652C134.931 8.10635 134.127 7.8592 133.253 7.8592C132.483 7.8592 131.755 8.04868 131.068 8.42352C130.381 8.79835 129.824 9.35443 129.399 10.0917C128.97 10.8291 128.758 11.7435 128.758 12.8392H127.905C127.905 11.4716 128.146 10.2977 128.625 9.32148C129.104 8.34525 129.765 7.59146 130.602 7.06422C131.443 6.53698 132.404 6.27336 133.491 6.27336C134.66 6.27336 135.742 6.58229 136.729 7.20427C137.715 7.82625 138.506 8.71185 139.105 9.86931C139.7 11.0227 140 12.3984 140 13.9966C140 15.5948 139.7 16.9788 139.097 18.1487C138.493 19.3185 137.694 20.2247 136.691 20.8673C135.688 21.5098 134.589 21.8311 133.399 21.8311V21.8394Z" fill="#D0D0D0"/>
</svg>
