<svg width="281" height="153" viewBox="0 0 281 153" fill="none" xmlns="http://www.w3.org/2000/svg">
<path d="M34.707 80.7824C34.9823 81.0394 35.2339 81.274 35.4855 81.5079C36.7997 82.7337 38.1147 83.9587 39.4273 85.1869C40.1696 85.8813 40.1941 86.9433 39.4786 87.6711C38.5643 88.601 37.6454 89.5261 36.7248 90.4488C35.992 91.1831 34.9878 91.1838 34.2589 90.4504C32.8035 88.9868 31.3505 87.5192 29.8966 86.0531C29.8146 85.9704 29.7286 85.8909 29.6221 85.7883C29.238 86.5074 28.8672 87.2026 28.4965 87.897C28.3103 88.2454 28.1328 88.6002 27.9324 88.9407C27.3258 89.9708 26.0503 90.1219 25.2693 89.2374C25.0832 89.0266 24.9483 88.7315 24.8868 88.4538C24.2738 85.6586 23.6822 82.8594 23.0835 80.061C22.7293 78.4056 22.4051 76.7423 22.0075 75.0973C21.7803 74.1555 22.7806 72.9989 23.8605 73.2137C25.6819 73.5756 27.497 73.9662 29.3153 74.3448C31.9318 74.8905 34.5476 75.437 37.1642 75.9803C38.1873 76.1926 38.7545 76.9865 38.5596 77.961C38.4484 78.5186 38.0792 78.8765 37.6059 79.1438C36.6546 79.6807 35.7032 80.2193 34.707 80.7816V80.7824ZM29.9274 70.0867C30.8385 69.1703 31.7291 68.2325 32.5968 67.2748C33.0409 66.7848 32.9794 65.9973 32.5274 65.5415C32.0715 65.0817 31.2613 65.0268 30.7849 65.4866C29.8761 66.3632 28.9871 67.2612 28.1186 68.1776C27.7471 68.569 27.706 69.0757 27.9364 69.5649C28.1699 70.0605 28.5509 70.3802 29.1599 70.4654C29.4194 70.3429 29.7365 70.2792 29.9274 70.0867ZM15.1139 83.8306C15.6156 84.0573 16.1189 84.0064 16.5149 83.6222C17.4078 82.7568 18.285 81.8738 19.1417 80.9718C19.6047 80.4849 19.5669 79.6521 19.1172 79.213C18.6108 78.719 17.8054 78.6952 17.3029 79.1899C16.4447 80.0355 15.6022 80.8962 14.7566 81.7537C14.5089 82.0043 14.3905 82.3121 14.3937 82.6677C14.4032 83.1998 14.6248 83.6095 15.1139 83.8306ZM14.5522 67.2605C15.4349 68.1903 16.3382 69.1011 17.2556 69.996C17.6279 70.3596 18.2653 70.3946 18.7165 70.1257C19.1693 69.856 19.5534 69.506 19.4217 68.9158C19.3586 68.635 19.1969 68.3391 18.9957 68.1347C18.1501 67.2787 17.269 66.4586 16.4092 65.6178C16.0108 65.2289 15.5722 65.1024 15.1273 65.2821C14.6572 65.4723 14.2777 66.014 14.2083 66.5318C14.3203 66.7768 14.3779 67.0751 14.5522 67.2589V67.2605ZM22.3743 66.8277C22.3798 67.5564 22.8981 68.1013 23.5765 68.102C24.2439 68.102 24.7803 67.5707 24.7882 66.8611C24.8008 65.6504 24.8016 64.4398 24.7882 63.2299C24.7803 62.5251 24.2312 61.9921 23.5662 62.0001C22.8965 62.008 22.383 62.5458 22.3759 63.2553C22.3704 63.8503 22.3743 64.4461 22.3743 65.0411C22.3743 65.6361 22.3704 66.2319 22.3751 66.8269L22.3743 66.8277ZM12.3254 73.3497C12.1786 73.3513 12.0272 73.3552 11.8876 73.3926C11.3283 73.543 10.9417 74.1165 11.0072 74.6781C11.0822 75.3272 11.5752 75.7782 12.2583 75.7846C13.4289 75.7957 14.6004 75.7949 15.7718 75.7854C16.5038 75.7798 17.0434 75.2596 17.0513 74.5803C17.0584 73.9304 16.4541 73.3545 15.7505 73.3489C15.1699 73.3441 14.5893 73.3481 14.0087 73.3481C13.4479 73.3481 12.887 73.3449 12.3262 73.3497H12.3254Z" fill="url(#paint0_linear_148_371)"/>
<path d="M59.5249 72.5653C59.4567 71.8778 59.1641 71.3437 58.647 70.9631C58.13 70.5824 57.4283 70.392 56.5419 70.392C55.9396 70.392 55.4311 70.4773 55.0163 70.6477C54.6016 70.8125 54.2834 71.0426 54.0618 71.3381C53.8459 71.6335 53.7379 71.9688 53.7379 72.3438C53.7266 72.6562 53.7919 72.929 53.9339 73.1619C54.0817 73.3949 54.2834 73.5966 54.5391 73.767C54.7947 73.9318 55.0902 74.0767 55.4254 74.2017C55.7607 74.321 56.1186 74.4233 56.4993 74.5085L58.0675 74.8835C58.8288 75.054 59.5277 75.2812 60.1641 75.5653C60.8004 75.8494 61.3516 76.1989 61.8175 76.6136C62.2834 77.0284 62.6442 77.517 62.8999 78.0795C63.1612 78.642 63.2947 79.2869 63.3004 80.0142C63.2947 81.0824 63.022 82.0085 62.4822 82.7926C61.9482 83.571 61.1754 84.1761 60.1641 84.608C59.1584 85.0341 57.9453 85.2472 56.5249 85.2472C55.1158 85.2472 53.8885 85.0312 52.843 84.5994C51.8033 84.1676 50.9908 83.5284 50.4055 82.6818C49.826 81.8295 49.522 80.7756 49.4936 79.5199H53.0646C53.1044 80.1051 53.272 80.5937 53.5675 80.9858C53.8686 81.3722 54.2692 81.6648 54.7692 81.8636C55.2749 82.0568 55.8459 82.1534 56.4822 82.1534C57.1072 82.1534 57.6499 82.0625 58.1101 81.8807C58.576 81.6989 58.9368 81.446 59.1925 81.1222C59.4482 80.7983 59.576 80.4261 59.576 80.0057C59.576 79.6136 59.4595 79.2841 59.2266 79.017C58.9993 78.75 58.6641 78.5227 58.2209 78.3352C57.7834 78.1477 57.2464 77.9773 56.6101 77.8239L54.7095 77.3466C53.2379 76.9886 52.076 76.429 51.2237 75.6676C50.3714 74.9062 49.9482 73.8807 49.9538 72.5909C49.9482 71.5341 50.2294 70.6108 50.7976 69.821C51.3714 69.0312 52.1584 68.4148 53.1584 67.9716C54.1584 67.5284 55.2947 67.3068 56.5675 67.3068C57.8629 67.3068 58.9936 67.5284 59.9595 67.9716C60.9311 68.4148 61.6868 69.0312 62.2266 69.821C62.7663 70.6108 63.0447 71.5256 63.0618 72.5653H59.5249ZM74.1094 79.4261V71.9091H77.7401V85H74.2543V82.6222H74.1179C73.8224 83.3892 73.331 84.0057 72.6435 84.4716C71.9616 84.9375 71.1293 85.1705 70.1463 85.1705C69.2713 85.1705 68.5014 84.9716 67.8366 84.5739C67.1719 84.1761 66.652 83.6108 66.277 82.8778C65.9077 82.1449 65.7202 81.267 65.7145 80.2443V71.9091H69.3452V79.5966C69.3509 80.3693 69.5582 80.9801 69.9673 81.429C70.3764 81.8778 70.9247 82.1023 71.6122 82.1023C72.0497 82.1023 72.4588 82.0028 72.8395 81.804C73.2202 81.5994 73.527 81.2983 73.7599 80.9006C73.9986 80.5028 74.1151 80.0114 74.1094 79.4261ZM80.7124 85V67.5455H84.343V74.108H84.4538C84.6129 73.7557 84.843 73.3977 85.1442 73.0341C85.451 72.6648 85.8487 72.358 86.3374 72.1136C86.8317 71.8636 87.4453 71.7386 88.1783 71.7386C89.1328 71.7386 90.0135 71.9886 90.8203 72.4886C91.6271 72.983 92.272 73.7301 92.755 74.7301C93.2379 75.7244 93.4794 76.9716 93.4794 78.4716C93.4794 79.9318 93.2436 81.1648 92.772 82.1705C92.3061 83.1705 91.6697 83.929 90.8629 84.446C90.0618 84.9574 89.1641 85.2131 88.1697 85.2131C87.4652 85.2131 86.8658 85.0966 86.3714 84.8636C85.8828 84.6307 85.4822 84.3381 85.1697 83.9858C84.8572 83.6278 84.6186 83.267 84.4538 82.9034H84.2919V85H80.7124ZM84.2663 78.4545C84.2663 79.233 84.3743 79.9119 84.5902 80.4915C84.8061 81.071 85.1186 81.5227 85.5277 81.8466C85.9368 82.1648 86.4339 82.3239 87.0192 82.3239C87.6101 82.3239 88.1101 82.1619 88.5192 81.8381C88.9283 81.5085 89.2379 81.054 89.4482 80.4744C89.6641 79.8892 89.772 79.2159 89.772 78.4545C89.772 77.6989 89.6669 77.0341 89.4567 76.4602C89.2464 75.8864 88.9368 75.4375 88.5277 75.1136C88.1186 74.7898 87.6158 74.6278 87.0192 74.6278C86.4283 74.6278 85.9283 74.7841 85.5192 75.0966C85.1158 75.4091 84.8061 75.8523 84.5902 76.4261C84.3743 77 84.2663 77.6761 84.2663 78.4545ZM95.902 85V71.9091H99.3622V74.2188H99.5156C99.7884 73.4517 100.243 72.8466 100.879 72.4034C101.516 71.9602 102.277 71.7386 103.163 71.7386C104.061 71.7386 104.825 71.9631 105.456 72.4119C106.087 72.8551 106.507 73.4574 106.717 74.2188H106.854C107.121 73.4688 107.604 72.8693 108.303 72.4205C109.007 71.9659 109.839 71.7386 110.8 71.7386C112.021 71.7386 113.013 72.1278 113.774 72.9062C114.541 73.679 114.925 74.7756 114.925 76.196V85H111.303V76.9119C111.303 76.1847 111.109 75.6392 110.723 75.2756C110.337 74.9119 109.854 74.7301 109.274 74.7301C108.615 74.7301 108.101 74.9403 107.732 75.3608C107.362 75.7756 107.178 76.3239 107.178 77.0057V85H103.658V76.8352C103.658 76.1932 103.473 75.6818 103.104 75.3011C102.74 74.9205 102.26 74.7301 101.663 74.7301C101.26 74.7301 100.896 74.8324 100.572 75.0369C100.254 75.2358 100.001 75.517 99.8139 75.8807C99.6264 76.2386 99.5327 76.6591 99.5327 77.142V85H95.902ZM117.793 85V71.9091H121.423V85H117.793ZM119.616 70.2216C119.077 70.2216 118.614 70.0426 118.227 69.6847C117.847 69.321 117.656 68.8864 117.656 68.3807C117.656 67.8807 117.847 67.4517 118.227 67.0938C118.614 66.7301 119.077 66.5483 119.616 66.5483C120.156 66.5483 120.616 66.7301 120.997 67.0938C121.384 67.4517 121.577 67.8807 121.577 68.3807C121.577 68.8864 121.384 69.321 120.997 69.6847C120.616 70.0426 120.156 70.2216 119.616 70.2216ZM135.224 75.642L131.9 75.8466C131.843 75.5625 131.721 75.3068 131.533 75.0795C131.346 74.8466 131.099 74.6619 130.792 74.5256C130.491 74.3835 130.13 74.3125 129.71 74.3125C129.147 74.3125 128.673 74.4318 128.286 74.6705C127.9 74.9034 127.707 75.2159 127.707 75.608C127.707 75.9205 127.832 76.1847 128.082 76.4006C128.332 76.6165 128.761 76.7898 129.369 76.9205L131.738 77.3977C133.011 77.6591 133.96 78.0795 134.585 78.6591C135.21 79.2386 135.522 80 135.522 80.9432C135.522 81.8011 135.269 82.554 134.763 83.2017C134.263 83.8494 133.576 84.3551 132.701 84.7188C131.832 85.0767 130.829 85.2557 129.692 85.2557C127.96 85.2557 126.579 84.8949 125.55 84.1733C124.528 83.446 123.928 82.4574 123.752 81.2074L127.323 81.0199C127.431 81.5483 127.692 81.9517 128.107 82.2301C128.522 82.5028 129.053 82.6392 129.701 82.6392C130.337 82.6392 130.849 82.517 131.235 82.2727C131.627 82.0227 131.826 81.7017 131.832 81.3097C131.826 80.9801 131.687 80.7102 131.414 80.5C131.141 80.2841 130.721 80.1193 130.153 80.0057L127.886 79.554C126.607 79.2983 125.656 78.8551 125.031 78.2244C124.411 77.5937 124.102 76.7898 124.102 75.8125C124.102 74.9716 124.329 74.2472 124.783 73.6392C125.244 73.0312 125.888 72.5625 126.718 72.233C127.553 71.9034 128.531 71.7386 129.65 71.7386C131.303 71.7386 132.604 72.0881 133.553 72.7869C134.508 73.4858 135.065 74.4375 135.224 75.642ZM148.7 75.642L145.376 75.8466C145.32 75.5625 145.197 75.3068 145.01 75.0795C144.822 74.8466 144.575 74.6619 144.268 74.5256C143.967 74.3835 143.607 74.3125 143.186 74.3125C142.624 74.3125 142.149 74.4318 141.763 74.6705C141.376 74.9034 141.183 75.2159 141.183 75.608C141.183 75.9205 141.308 76.1847 141.558 76.4006C141.808 76.6165 142.237 76.7898 142.845 76.9205L145.214 77.3977C146.487 77.6591 147.436 78.0795 148.061 78.6591C148.686 79.2386 148.999 80 148.999 80.9432C148.999 81.8011 148.746 82.554 148.24 83.2017C147.74 83.8494 147.053 84.3551 146.178 84.7188C145.308 85.0767 144.305 85.2557 143.169 85.2557C141.436 85.2557 140.055 84.8949 139.027 84.1733C138.004 83.446 137.405 82.4574 137.229 81.2074L140.8 81.0199C140.908 81.5483 141.169 81.9517 141.584 82.2301C141.999 82.5028 142.53 82.6392 143.178 82.6392C143.814 82.6392 144.325 82.517 144.712 82.2727C145.104 82.0227 145.303 81.7017 145.308 81.3097C145.303 80.9801 145.163 80.7102 144.891 80.5C144.618 80.2841 144.197 80.1193 143.629 80.0057L141.362 79.554C140.084 79.2983 139.132 78.8551 138.507 78.2244C137.888 77.5937 137.578 76.7898 137.578 75.8125C137.578 74.9716 137.805 74.2472 138.26 73.6392C138.72 73.0312 139.365 72.5625 140.195 72.233C141.03 71.9034 142.007 71.7386 143.126 71.7386C144.78 71.7386 146.081 72.0881 147.03 72.7869C147.984 73.4858 148.541 74.4375 148.7 75.642ZM151.285 85V71.9091H154.915V85H151.285ZM153.109 70.2216C152.569 70.2216 152.106 70.0426 151.719 69.6847C151.339 69.321 151.148 68.8864 151.148 68.3807C151.148 67.8807 151.339 67.4517 151.719 67.0938C152.106 66.7301 152.569 66.5483 153.109 66.5483C153.648 66.5483 154.109 66.7301 154.489 67.0938C154.876 67.4517 155.069 67.8807 155.069 68.3807C155.069 68.8864 154.876 69.321 154.489 69.6847C154.109 70.0426 153.648 70.2216 153.109 70.2216ZM163.739 85.2557C162.415 85.2557 161.27 84.9744 160.304 84.4119C159.344 83.8437 158.602 83.054 158.08 82.0426C157.557 81.0256 157.295 79.8466 157.295 78.5057C157.295 77.1534 157.557 75.9716 158.08 74.9602C158.602 73.9432 159.344 73.1534 160.304 72.5909C161.27 72.0227 162.415 71.7386 163.739 71.7386C165.062 71.7386 166.205 72.0227 167.165 72.5909C168.131 73.1534 168.875 73.9432 169.398 74.9602C169.92 75.9716 170.182 77.1534 170.182 78.5057C170.182 79.8466 169.92 81.0256 169.398 82.0426C168.875 83.054 168.131 83.8437 167.165 84.4119C166.205 84.9744 165.062 85.2557 163.739 85.2557ZM163.756 82.4432C164.358 82.4432 164.861 82.2727 165.264 81.9318C165.668 81.5852 165.972 81.1136 166.176 80.517C166.386 79.9205 166.491 79.2415 166.491 78.4801C166.491 77.7188 166.386 77.0398 166.176 76.4432C165.972 75.8466 165.668 75.375 165.264 75.0284C164.861 74.6818 164.358 74.5085 163.756 74.5085C163.148 74.5085 162.636 74.6818 162.222 75.0284C161.813 75.375 161.503 75.8466 161.293 76.4432C161.088 77.0398 160.986 77.7188 160.986 78.4801C160.986 79.2415 161.088 79.9205 161.293 80.517C161.503 81.1136 161.813 81.5852 162.222 81.9318C162.636 82.2727 163.148 82.4432 163.756 82.4432ZM176.173 77.4318V85H172.543V71.9091H176.003V74.2188H176.156C176.446 73.4574 176.932 72.8551 177.614 72.4119C178.295 71.9631 179.122 71.7386 180.094 71.7386C181.003 71.7386 181.795 71.9375 182.472 72.3352C183.148 72.733 183.673 73.3011 184.048 74.0398C184.423 74.7727 184.611 75.6477 184.611 76.6648V85H180.98V77.3125C180.986 76.5114 180.781 75.8864 180.366 75.4375C179.952 74.983 179.381 74.7557 178.653 74.7557C178.165 74.7557 177.733 74.8608 177.358 75.071C176.989 75.2812 176.699 75.5881 176.489 75.9915C176.284 76.3892 176.179 76.8693 176.173 77.4318ZM198.942 85.2557C197.601 85.2557 196.447 84.9716 195.482 84.4034C194.521 83.8295 193.783 83.0341 193.266 82.017C192.754 81 192.499 79.8295 192.499 78.5057C192.499 77.1648 192.757 75.9886 193.274 74.9773C193.797 73.9602 194.538 73.1676 195.499 72.5994C196.459 72.0256 197.601 71.7386 198.925 71.7386C200.067 71.7386 201.067 71.946 201.925 72.3608C202.783 72.7756 203.462 73.358 203.962 74.108C204.462 74.858 204.737 75.7386 204.788 76.75H201.362C201.266 76.0966 201.01 75.571 200.595 75.1733C200.186 74.7699 199.649 74.5682 198.984 74.5682C198.422 74.5682 197.93 74.7216 197.51 75.0284C197.095 75.3295 196.771 75.7699 196.538 76.3494C196.305 76.929 196.189 77.6307 196.189 78.4545C196.189 79.2898 196.303 80 196.53 80.5852C196.763 81.1705 197.089 81.6165 197.51 81.9233C197.93 82.2301 198.422 82.3835 198.984 82.3835C199.399 82.3835 199.771 82.2983 200.101 82.1278C200.436 81.9574 200.712 81.7102 200.928 81.3864C201.149 81.0568 201.294 80.6619 201.362 80.2017H204.788C204.732 81.2017 204.459 82.0824 203.97 82.8438C203.487 83.5994 202.82 84.1903 201.967 84.6165C201.115 85.0426 200.107 85.2557 198.942 85.2557ZM210.744 67.5455V85H207.113V67.5455H210.744ZM219.567 85.2557C218.243 85.2557 217.098 84.9744 216.132 84.4119C215.172 83.8437 214.43 83.054 213.908 82.0426C213.385 81.0256 213.124 79.8466 213.124 78.5057C213.124 77.1534 213.385 75.9716 213.908 74.9602C214.43 73.9432 215.172 73.1534 216.132 72.5909C217.098 72.0227 218.243 71.7386 219.567 71.7386C220.891 71.7386 222.033 72.0227 222.993 72.5909C223.959 73.1534 224.703 73.9432 225.226 74.9602C225.749 75.9716 226.01 77.1534 226.01 78.5057C226.01 79.8466 225.749 81.0256 225.226 82.0426C224.703 83.054 223.959 83.8437 222.993 84.4119C222.033 84.9744 220.891 85.2557 219.567 85.2557ZM219.584 82.4432C220.186 82.4432 220.689 82.2727 221.092 81.9318C221.496 81.5852 221.8 81.1136 222.004 80.517C222.214 79.9205 222.32 79.2415 222.32 78.4801C222.32 77.7188 222.214 77.0398 222.004 76.4432C221.8 75.8466 221.496 75.375 221.092 75.0284C220.689 74.6818 220.186 74.5085 219.584 74.5085C218.976 74.5085 218.464 74.6818 218.05 75.0284C217.641 75.375 217.331 75.8466 217.121 76.4432C216.916 77.0398 216.814 77.7188 216.814 78.4801C216.814 79.2415 216.916 79.9205 217.121 80.517C217.331 81.1136 217.641 81.5852 218.05 81.9318C218.464 82.2727 218.976 82.4432 219.584 82.4432ZM239.263 75.642L235.939 75.8466C235.882 75.5625 235.76 75.3068 235.572 75.0795C235.385 74.8466 235.138 74.6619 234.831 74.5256C234.53 74.3835 234.169 74.3125 233.749 74.3125C233.186 74.3125 232.712 74.4318 232.325 74.6705C231.939 74.9034 231.746 75.2159 231.746 75.608C231.746 75.9205 231.871 76.1847 232.121 76.4006C232.371 76.6165 232.8 76.7898 233.408 76.9205L235.777 77.3977C237.05 77.6591 237.999 78.0795 238.624 78.6591C239.249 79.2386 239.561 80 239.561 80.9432C239.561 81.8011 239.308 82.554 238.803 83.2017C238.303 83.8494 237.615 84.3551 236.74 84.7188C235.871 85.0767 234.868 85.2557 233.732 85.2557C231.999 85.2557 230.618 84.8949 229.589 84.1733C228.567 83.446 227.967 82.4574 227.791 81.2074L231.362 81.0199C231.47 81.5483 231.732 81.9517 232.146 82.2301C232.561 82.5028 233.092 82.6392 233.74 82.6392C234.376 82.6392 234.888 82.517 235.274 82.2727C235.666 82.0227 235.865 81.7017 235.871 81.3097C235.865 80.9801 235.726 80.7102 235.453 80.5C235.18 80.2841 234.76 80.1193 234.192 80.0057L231.925 79.554C230.646 79.2983 229.695 78.8551 229.07 78.2244C228.45 77.5937 228.141 76.7898 228.141 75.8125C228.141 74.9716 228.368 74.2472 228.822 73.6392C229.283 73.0312 229.928 72.5625 230.757 72.233C231.592 71.9034 232.57 71.7386 233.689 71.7386C235.342 71.7386 236.643 72.0881 237.592 72.7869C238.547 73.4858 239.104 74.4375 239.263 75.642ZM247.813 85.2557C246.467 85.2557 245.308 84.983 244.336 84.4375C243.37 83.8864 242.626 83.108 242.103 82.1023C241.58 81.0909 241.319 79.8949 241.319 78.5142C241.319 77.1676 241.58 75.9858 242.103 74.9688C242.626 73.9517 243.362 73.1591 244.31 72.5909C245.265 72.0227 246.384 71.7386 247.668 71.7386C248.532 71.7386 249.336 71.8778 250.08 72.1562C250.83 72.429 251.484 72.8409 252.04 73.392C252.603 73.9432 253.04 74.6364 253.353 75.4716C253.665 76.3011 253.822 77.2727 253.822 78.3864V79.3835H242.768V77.1335H250.404C250.404 76.6108 250.29 76.1477 250.063 75.7443C249.836 75.3409 249.521 75.0256 249.117 74.7983C248.719 74.5653 248.256 74.4489 247.728 74.4489C247.177 74.4489 246.688 74.5767 246.262 74.8324C245.842 75.0824 245.512 75.4205 245.273 75.8466C245.035 76.267 244.913 76.7358 244.907 77.2528V79.392C244.907 80.0398 245.026 80.5994 245.265 81.071C245.509 81.5426 245.853 81.9062 246.296 82.1619C246.739 82.4176 247.265 82.5455 247.873 82.5455C248.276 82.5455 248.646 82.4886 248.981 82.375C249.316 82.2614 249.603 82.0909 249.842 81.8636C250.08 81.6364 250.262 81.358 250.387 81.0284L253.745 81.25C253.575 82.0568 253.225 82.7614 252.697 83.3636C252.174 83.9602 251.498 84.4261 250.668 84.7614C249.844 85.0909 248.893 85.2557 247.813 85.2557ZM261.015 85.2131C260.021 85.2131 259.12 84.9574 258.313 84.446C257.512 83.929 256.876 83.1705 256.404 82.1705C255.938 81.1648 255.705 79.9318 255.705 78.4716C255.705 76.9716 255.947 75.7244 256.43 74.7301C256.913 73.7301 257.555 72.983 258.356 72.4886C259.163 71.9886 260.046 71.7386 261.006 71.7386C261.739 71.7386 262.35 71.8636 262.839 72.1136C263.333 72.358 263.731 72.6648 264.032 73.0341C264.339 73.3977 264.572 73.7557 264.731 74.108H264.842V67.5455H268.464V85H264.884V82.9034H264.731C264.56 83.267 264.319 83.6278 264.006 83.9858C263.7 84.3381 263.299 84.6307 262.805 84.8636C262.316 85.0966 261.719 85.2131 261.015 85.2131ZM262.165 82.3239C262.751 82.3239 263.245 82.1648 263.648 81.8466C264.058 81.5227 264.37 81.071 264.586 80.4915C264.808 79.9119 264.918 79.233 264.918 78.4545C264.918 77.6761 264.81 77 264.594 76.4261C264.379 75.8523 264.066 75.4091 263.657 75.0966C263.248 74.7841 262.751 74.6278 262.165 74.6278C261.569 74.6278 261.066 74.7898 260.657 75.1136C260.248 75.4375 259.938 75.8864 259.728 76.4602C259.518 77.0341 259.413 77.6989 259.413 78.4545C259.413 79.2159 259.518 79.8892 259.728 80.4744C259.944 81.054 260.254 81.5085 260.657 81.8381C261.066 82.1619 261.569 82.3239 262.165 82.3239Z" fill="white"/>
<rect x="0.5" y="0.5" width="280" height="152" rx="9.5" stroke="url(#paint1_linear_148_371)"/>
<defs>
<linearGradient id="paint0_linear_148_371" x1="12.8152" y1="65.3044" x2="42.6104" y2="90.3693" gradientUnits="userSpaceOnUse">
<stop stop-color="#AC57FF"/>
<stop offset="0.55" stop-color="#FFAD46"/>
<stop offset="1" stop-color="#FF2A45"/>
</linearGradient>
<linearGradient id="paint1_linear_148_371" x1="0" y1="153" x2="297.257" y2="108.433" gradientUnits="userSpaceOnUse">
<stop stop-color="#AC57FF"/>
<stop offset="0.421875" stop-color="#FFAD46"/>
<stop offset="1" stop-color="#FF2A45"/>
</linearGradient>
</defs>
</svg>
