<svg width="281" height="153" viewBox="0 0 281 153" fill="none" xmlns="http://www.w3.org/2000/svg">
<path d="M115.207 80.7824C115.482 81.0394 115.734 81.274 115.986 81.5079C117.3 82.7337 118.615 83.9587 119.927 85.1869C120.67 85.8813 120.694 86.9433 119.979 87.6711C119.064 88.601 118.145 89.5261 117.225 90.4488C116.492 91.1831 115.488 91.1838 114.759 90.4504C113.303 88.9868 111.85 87.5192 110.397 86.0531C110.315 85.9704 110.229 85.8909 110.122 85.7883C109.738 86.5074 109.367 87.2026 108.996 87.897C108.81 88.2454 108.633 88.6002 108.432 88.9407C107.826 89.9708 106.55 90.1219 105.769 89.2374C105.583 89.0266 105.448 88.7315 105.387 88.4538C104.774 85.6586 104.182 82.8594 103.583 80.061C103.229 78.4056 102.905 76.7423 102.508 75.0973C102.28 74.1555 103.281 72.9989 104.36 73.2137C106.182 73.5756 107.997 73.9662 109.815 74.3448C112.432 74.8905 115.048 75.437 117.664 75.9803C118.687 76.1926 119.254 76.9865 119.06 77.961C118.948 78.5186 118.579 78.8765 118.106 79.1438C117.155 79.6807 116.203 80.2193 115.207 80.7816V80.7824ZM110.427 70.0867C111.339 69.1703 112.229 68.2325 113.097 67.2748C113.541 66.7848 113.479 65.9973 113.027 65.5415C112.571 65.0817 111.761 65.0268 111.285 65.4866C110.376 66.3632 109.487 67.2612 108.619 68.1776C108.247 68.569 108.206 69.0757 108.436 69.5649C108.67 70.0605 109.051 70.3802 109.66 70.4654C109.919 70.3429 110.237 70.2792 110.427 70.0867ZM95.6139 83.8306C96.1156 84.0573 96.6189 84.0064 97.0149 83.6222C97.9078 82.7568 98.785 81.8738 99.6417 80.9718C100.105 80.4849 100.067 79.6521 99.6172 79.213C99.1108 78.719 98.3054 78.6952 97.8029 79.1899C96.9447 80.0355 96.1022 80.8962 95.2566 81.7537C95.0089 82.0043 94.8905 82.3121 94.8937 82.6677C94.9032 83.1998 95.1248 83.6095 95.6139 83.8306ZM95.0522 67.2605C95.9349 68.1903 96.8382 69.1011 97.7556 69.996C98.1279 70.3596 98.7653 70.3946 99.2165 70.1257C99.6693 69.856 100.053 69.506 99.9217 68.9158C99.8586 68.635 99.6969 68.3391 99.4957 68.1347C98.6501 67.2787 97.769 66.4586 96.9092 65.6178C96.5108 65.2289 96.0722 65.1024 95.6273 65.2821C95.1572 65.4723 94.7777 66.014 94.7083 66.5318C94.8203 66.7768 94.8779 67.0751 95.0522 67.2589V67.2605ZM102.874 66.8277C102.88 67.5564 103.398 68.1013 104.077 68.102C104.744 68.102 105.28 67.5707 105.288 66.8611C105.301 65.6504 105.302 64.4398 105.288 63.2299C105.28 62.5251 104.731 61.9921 104.066 62.0001C103.397 62.008 102.883 62.5458 102.876 63.2553C102.87 63.8503 102.874 64.4461 102.874 65.0411C102.874 65.6361 102.87 66.2319 102.875 66.8269L102.874 66.8277ZM92.8254 73.3497C92.6786 73.3513 92.5272 73.3552 92.3876 73.3926C91.8283 73.543 91.4417 74.1165 91.5072 74.6781C91.5822 75.3272 92.0752 75.7782 92.7583 75.7846C93.9289 75.7957 95.1004 75.7949 96.2718 75.7854C97.0038 75.7798 97.5434 75.2596 97.5513 74.5803C97.5584 73.9304 96.9541 73.3545 96.2505 73.3489C95.6699 73.3441 95.0893 73.3481 94.5087 73.3481C93.9479 73.3481 93.387 73.3449 92.8262 73.3497H92.8254Z" fill="url(#paint0_linear_148_371)"/>
<path d="M128.939 84L134.915 66.84H138.515L144.563 84H140.939L139.787 80.352H133.595L132.467 84H128.939ZM135.947 72.744L134.411 77.688H138.947L137.411 72.744L136.715 70.104H136.667C136.379 71.256 136.139 72.136 135.947 72.744ZM145.744 88.032V71.688H148.888V73.224H148.96C149.872 71.976 151.08 71.352 152.584 71.352C154.2 71.352 155.496 71.952 156.472 73.152C157.448 74.352 157.936 75.92 157.936 77.856C157.936 79.84 157.448 81.424 156.472 82.608C155.496 83.776 154.208 84.36 152.608 84.36C151.008 84.36 149.824 83.776 149.056 82.608H149.008V88.032H145.744ZM151.912 81.648C152.744 81.648 153.4 81.32 153.88 80.664C154.376 80.008 154.624 79.104 154.624 77.952C154.624 76.72 154.392 75.752 153.928 75.048C153.464 74.344 152.752 73.992 151.792 73.992C150.816 73.992 150.096 74.36 149.632 75.096C149.168 75.816 148.936 76.768 148.936 77.952C148.936 79.088 149.192 79.992 149.704 80.664C150.216 81.32 150.952 81.648 151.912 81.648ZM159.454 88.032V71.688H162.598V73.224H162.67C163.582 71.976 164.79 71.352 166.294 71.352C167.91 71.352 169.206 71.952 170.182 73.152C171.158 74.352 171.646 75.92 171.646 77.856C171.646 79.84 171.158 81.424 170.182 82.608C169.206 83.776 167.918 84.36 166.318 84.36C164.718 84.36 163.534 83.776 162.766 82.608H162.718V88.032H159.454ZM165.622 81.648C166.454 81.648 167.11 81.32 167.59 80.664C168.086 80.008 168.334 79.104 168.334 77.952C168.334 76.72 168.102 75.752 167.638 75.048C167.174 74.344 166.462 73.992 165.502 73.992C164.526 73.992 163.806 74.36 163.342 75.096C162.878 75.816 162.646 76.768 162.646 77.952C162.646 79.088 162.902 79.992 163.414 80.664C163.926 81.32 164.662 81.648 165.622 81.648ZM173.213 84V66.84H176.477V84H173.213ZM178.89 88.032V85.464H180.042C181.258 85.464 181.866 84.904 181.866 83.784C181.866 83.24 181.554 82.128 180.93 80.448L177.618 71.688H181.05L182.874 77.232L183.666 79.92H183.714C183.938 78.88 184.178 77.984 184.434 77.232L186.162 71.688H189.45L185.154 84.312C184.674 85.72 184.13 86.688 183.522 87.216C182.93 87.76 182.026 88.032 180.81 88.032H178.89Z" fill="white"/>
<rect x="0.5" y="0.5" width="280" height="152" rx="9.5" stroke="url(#paint1_linear_148_371)"/>
<defs>
<linearGradient id="paint0_linear_148_371" x1="93.3152" y1="65.3044" x2="123.11" y2="90.3693" gradientUnits="userSpaceOnUse">
<stop stop-color="#AC57FF"/>
<stop offset="0.55" stop-color="#FFAD46"/>
<stop offset="1" stop-color="#FF2A45"/>
</linearGradient>
<linearGradient id="paint1_linear_148_371" x1="0" y1="153" x2="297.257" y2="108.433" gradientUnits="userSpaceOnUse">
<stop stop-color="#AC57FF"/>
<stop offset="0.421875" stop-color="#FFAD46"/>
<stop offset="1" stop-color="#FF2A45"/>
</linearGradient>
</defs>
</svg>
