<svg width="126" height="28" viewBox="0 0 126 28" fill="none" xmlns="http://www.w3.org/2000/svg">
<path d="M11.2995 10.8929C9.59022 10.8929 8.2014 12.2857 8.2014 14C8.2014 15.7143 9.59022 17.1071 11.2995 17.1071C13.0088 17.1071 14.3977 15.7143 14.3977 14C14.3977 12.2857 13.0088 10.8929 11.2995 10.8929ZM23.088 10.8929C21.3787 10.8929 19.9899 12.2857 19.9899 14C19.9899 15.7143 21.3787 17.1071 23.088 17.1071C24.7973 17.1071 26.1861 15.7143 26.1861 14C26.1861 12.2857 24.7973 10.8929 23.088 10.8929ZM22.6648 24.8462C19.1024 25.2747 15.4865 25.2747 11.9241 24.8462C6.451 24.1909 2.32565 19.5302 2.32565 14C2.32565 8.46978 6.451 3.81319 11.9241 3.15385C13.7073 2.93956 15.5029 2.83242 17.2944 2.83242C19.0859 2.83242 20.8815 2.93956 22.6648 3.15385C28.1379 3.80907 32.2632 8.4739 32.2632 14C32.2632 19.5261 28.1379 24.1909 22.6648 24.8462ZM22.9442 0.837912C19.1969 0.388736 15.4002 0.388736 11.6529 0.837912C5.01288 1.63324 0 7.29533 0 14C0 20.7047 5.00877 26.3709 11.6529 27.1621C13.5266 27.3887 15.4125 27.5 17.3027 27.5C19.1928 27.5 21.0746 27.3887 22.9483 27.1621C29.5883 26.3626 34.6012 20.7047 34.6012 14C34.6012 7.29533 29.5883 1.63324 22.9483 0.837912M7.42892 1.55082C6.86189 0.907967 6.03189 0.5 5.1115 0.5C3.39808 0.5 2.01337 1.89286 2.01337 3.60714C2.01337 4.26236 2.21881 4.86813 2.56396 5.37088C3.86649 3.75961 5.52238 2.44093 7.42892 1.5467M31.9263 5.23489C32.218 4.76099 32.3906 4.20467 32.3906 3.60714C32.3906 1.88874 31.0018 0.5 29.2925 0.5C28.4009 0.5 27.5996 0.879121 27.0326 1.48901C28.9432 2.3544 30.6114 3.64835 31.9263 5.23901M53.6995 6.49176V9.28159H48.6044V22.897H45.4488V9.27747H40.3537V6.48764H53.6995V6.49176ZM62.624 15.6566C62.5912 14.7335 62.2871 14 61.7118 13.4519C61.1366 12.9038 60.3724 12.6319 59.4232 12.6319C58.5357 12.6319 57.7919 12.9038 57.192 13.4396C56.5921 13.9753 56.2223 14.717 56.0826 15.6525H62.6281L62.624 15.6566ZM63.8978 11.9808C64.9045 13.1223 65.4017 14.7212 65.4017 16.7857C65.4017 17.1937 65.3934 17.4945 65.377 17.7005H56.1484C56.3497 18.5907 56.7688 19.2912 57.3975 19.7981C58.0261 20.3049 58.8027 20.5604 59.7231 20.5604C60.36 20.5604 60.9722 20.4368 61.5557 20.1978C62.1392 19.9588 62.6487 19.6085 63.0842 19.1552L64.7196 20.8654C64.095 21.5536 63.3349 22.0852 62.4391 22.4602C61.5434 22.8352 60.549 23.0247 59.4602 23.0247C58.1823 23.0247 57.0565 22.7569 56.0826 22.2294C55.1088 21.6978 54.3569 20.9519 53.8268 19.9918C53.2968 19.0275 53.0338 17.9272 53.0338 16.6744C53.0338 15.4217 53.3009 14.3173 53.8392 13.3448C54.3774 12.3723 55.1294 11.6223 56.095 11.0824C57.0606 10.5426 58.1618 10.2747 59.3903 10.2747C61.3831 10.2747 62.8829 10.8434 63.8896 11.9849M76.0438 19.4231C76.7053 18.7143 77.0381 17.7953 77.0381 16.6703C77.0381 15.5453 76.7094 14.6305 76.0438 13.9176C75.3822 13.2047 74.5276 12.8544 73.4839 12.8544C72.4402 12.8544 71.5897 13.2088 70.9364 13.9176C70.2831 14.6264 69.9461 15.5453 69.9297 16.6703C69.9461 17.7953 70.2831 18.7102 70.9364 19.4231C71.5897 20.136 72.4402 20.4904 73.4839 20.4904C74.5276 20.4904 75.3822 20.136 76.0438 19.4231ZM80.0746 5.51511V22.9052H77.0381V20.8901C76.5862 21.5907 76.0068 22.1305 75.2959 22.4931C74.5851 22.8558 73.7674 23.0453 72.8306 23.0453C71.6472 23.0453 70.6036 22.7775 69.7119 22.2376C68.8162 21.6978 68.1218 20.9437 67.6205 19.9629C67.1192 18.9821 66.8726 17.8654 66.8726 16.6003C66.8726 15.3352 67.1192 14.2431 67.6082 13.283C68.0971 12.3228 68.7915 11.5728 69.6873 11.0453C70.583 10.5137 71.6061 10.2459 72.7607 10.2459C73.714 10.2459 74.544 10.4313 75.2631 10.8063C75.978 11.1813 76.5697 11.7212 77.0381 12.4258V5.51099H80.0746V5.51511ZM87.8035 10.9176C88.5266 10.489 89.3731 10.2624 90.3387 10.25V13.2005C89.0485 13.1223 88.013 13.4231 87.2447 14.103C86.4722 14.783 86.086 15.7019 86.086 16.8558V22.9011H83.0454V10.3613H86.086V12.7761C86.5092 11.9643 87.0803 11.342 87.8035 10.9135M95.3639 13.9258C94.7106 14.6264 94.3819 15.5412 94.3819 16.6662C94.3819 17.7912 94.7106 18.706 95.3639 19.4066C96.0172 20.1071 96.876 20.4615 97.9361 20.4615C98.9962 20.4615 99.8056 20.1113 100.459 19.4066C101.112 18.7019 101.441 17.7912 101.441 16.6662C101.441 15.5412 101.112 14.6264 100.459 13.9258C99.8056 13.2253 98.9633 12.8709 97.9361 12.8709C96.9089 12.8709 96.0172 13.2253 95.3639 13.9258ZM101.359 11.0659C102.349 11.5975 103.117 12.3434 103.672 13.3036C104.227 14.2637 104.502 15.3681 104.502 16.6209C104.502 17.8736 104.227 19.0027 103.672 19.9712C103.117 20.9396 102.349 21.6896 101.359 22.2212C100.369 22.7527 99.2263 23.0165 97.9361 23.0165C96.6459 23.0165 95.4748 22.7486 94.4805 22.2212C93.4861 21.6896 92.7054 20.9396 92.1548 19.9712C91.6042 19.0027 91.3248 17.886 91.3248 16.6209C91.3248 15.3558 91.6001 14.2637 92.1548 13.3036C92.7095 12.3434 93.482 11.5975 94.4805 11.0659C95.4789 10.5343 96.6294 10.2706 97.9361 10.2706C99.2427 10.2706 100.369 10.5385 101.359 11.0659ZM107.14 10.3613H110.181V22.9011H107.14V10.3613ZM109.877 5.48626C110.205 5.83242 110.366 6.26923 110.366 6.80082C110.366 7.33242 110.205 7.74863 109.877 8.08654C109.548 8.42445 109.137 8.60165 108.64 8.60165C108.143 8.60165 107.728 8.43269 107.403 8.08654C107.078 7.74038 106.91 7.31181 106.91 6.80082C106.91 6.28983 107.074 5.83242 107.403 5.48626C107.732 5.14423 108.143 4.97115 108.64 4.97115C109.137 4.97115 109.552 5.14011 109.877 5.48626ZM121.969 19.419C122.631 18.7102 122.964 17.7912 122.964 16.6662C122.964 15.5412 122.635 14.6264 121.969 13.9135C121.308 13.2005 120.453 12.8503 119.409 12.8503C118.366 12.8503 117.515 13.2047 116.862 13.9135C116.208 14.6223 115.872 15.5412 115.855 16.6662C115.872 17.7912 116.204 18.706 116.862 19.419C117.515 20.1319 118.366 20.4863 119.409 20.4863C120.453 20.4863 121.308 20.1319 121.969 19.419ZM126 5.51099V22.9011H122.959V20.886C122.507 21.5865 121.928 22.1264 121.217 22.489C120.506 22.8516 119.689 23.0371 118.752 23.0371C117.568 23.0371 116.525 22.7692 115.633 22.2294C114.737 21.6896 114.043 20.9313 113.542 19.9547C113.04 18.9739 112.794 17.8571 112.794 16.592C112.794 15.3269 113.04 14.2349 113.529 13.2747C114.018 12.3146 114.713 11.5646 115.609 11.033C116.504 10.5014 117.527 10.2376 118.682 10.2376C119.635 10.2376 120.465 10.4231 121.184 10.7981C121.899 11.1731 122.491 11.7129 122.959 12.4176V5.50275H126V5.51099Z" fill="#D0D0D0"/>
</svg>
