<svg width="278" height="417" viewBox="0 0 278 417" fill="none" xmlns="http://www.w3.org/2000/svg">
<g clip-path="url(#clip0_119_113)">
<path d="M274.702 42.5815L262.854 27.3287L61.9798 2.66438C56.04 7.31616 52.7188 9.92616 46.7945 14.598L15.5731 268.876L25.5161 281.677L12.7716 291.692L2.6694 373.968L14.5166 389.221L215.409 413.888C221.331 409.234 224.652 406.624 230.594 401.954L240.696 319.678L230.754 306.877L243.498 296.862L274.719 42.5837L274.702 42.5815ZM34.4814 285.068C33.2526 284.918 32.3607 283.79 32.5124 282.554C32.6642 281.318 33.7846 280.438 35.0311 280.591C36.2777 280.744 37.1518 281.869 37 283.105C36.8483 284.341 35.7279 285.221 34.4814 285.068ZM44.9347 286.352C43.7059 286.201 42.8318 285.076 42.9835 283.84C43.1353 282.604 44.2557 281.724 45.4844 281.875C46.7132 282.025 47.5873 283.151 47.4355 284.387C47.2838 285.622 46.1634 286.503 44.9347 286.352ZM55.388 287.635C54.1592 287.485 53.2673 286.357 53.419 285.121C53.5708 283.885 54.6912 283.005 55.9377 283.158C57.1843 283.311 58.0406 284.434 57.8889 285.67C57.7371 286.906 56.6167 287.786 55.388 287.635ZM65.8413 288.919C64.6125 288.768 63.7384 287.643 63.8902 286.407C64.0419 285.171 65.1623 284.291 66.391 284.442C67.6198 284.592 68.5117 285.72 68.36 286.956C68.2082 288.192 67.0878 289.072 65.8413 288.919ZM76.2946 290.202C75.0658 290.052 74.1739 288.924 74.3257 287.688C74.4774 286.453 75.5978 285.572 76.8443 285.725C78.0909 285.878 78.9472 287.001 78.7955 288.237C78.6437 289.473 77.5233 290.353 76.2946 290.202ZM86.7479 291.486C85.5191 291.335 84.645 290.21 84.7968 288.974C84.9485 287.738 86.0689 286.858 87.2976 287.009C88.5264 287.159 89.4183 288.287 89.2666 289.523C89.1149 290.759 87.9945 291.639 86.7479 291.486ZM97.2012 292.769C95.9725 292.619 95.0983 291.493 95.2501 290.257C95.4018 289.022 96.5222 288.141 97.751 288.292C98.9797 288.443 99.8538 289.568 99.7021 290.804C99.5504 292.04 98.43 292.92 97.2012 292.769ZM107.655 294.053C106.426 293.902 105.534 292.775 105.686 291.539C105.837 290.303 106.958 289.423 108.204 289.576C109.451 289.729 110.307 290.852 110.155 292.088C110.004 293.323 108.883 294.204 107.655 294.053ZM118.108 295.336C116.879 295.186 116.005 294.06 116.157 292.824C116.308 291.589 117.429 290.708 118.658 290.859C119.886 291.01 120.778 292.138 120.627 293.373C120.475 294.609 119.354 295.49 118.108 295.336ZM128.561 296.62C127.332 296.469 126.458 295.344 126.61 294.108C126.762 292.872 127.882 291.992 129.111 292.143C130.34 292.293 131.214 293.419 131.062 294.655C130.91 295.89 129.79 296.771 128.561 296.62ZM139.014 297.903C137.786 297.753 136.894 296.625 137.046 295.389C137.197 294.154 138.318 293.273 139.564 293.426C140.811 293.579 141.667 294.702 141.515 295.938C141.364 297.174 140.243 298.054 139.014 297.903ZM149.468 299.187C148.239 299.036 147.365 297.911 147.517 296.675C147.668 295.439 148.789 294.559 150.017 294.71C151.246 294.86 152.138 295.988 151.986 297.224C151.835 298.46 150.714 299.34 149.468 299.187ZM159.921 300.47C158.692 300.32 157.818 299.194 157.97 297.958C158.122 296.723 159.242 295.842 160.471 295.993C161.7 296.144 162.574 297.269 162.422 298.505C162.27 299.741 161.15 300.621 159.921 300.47ZM170.374 301.754C169.146 301.603 168.272 300.478 168.423 299.242C168.575 298.006 169.695 297.126 170.924 297.277C172.153 297.427 173.045 298.555 172.893 299.791C172.741 301.027 171.621 301.907 170.374 301.754ZM180.828 303.037C179.599 302.887 178.725 301.761 178.877 300.525C179.028 299.29 180.149 298.409 181.377 298.56C182.606 298.711 183.48 299.836 183.329 301.072C183.177 302.308 182.056 303.188 180.828 303.037ZM191.281 304.321C190.052 304.17 189.16 303.043 189.312 301.807C189.464 300.571 190.584 299.691 191.831 299.844C193.077 299.997 193.934 301.12 193.782 302.356C193.63 303.591 192.51 304.472 191.281 304.321ZM201.734 305.604C200.506 305.454 199.631 304.328 199.783 303.092C199.935 301.857 201.055 300.976 202.284 301.127C203.513 301.278 204.405 302.406 204.253 303.641C204.101 304.877 202.981 305.758 201.734 305.604ZM212.188 306.888C210.959 306.737 210.085 305.612 210.236 304.376C210.388 303.14 211.509 302.26 212.737 302.411C213.966 302.562 214.84 303.687 214.688 304.923C214.537 306.158 213.416 307.039 212.188 306.888ZM222.641 308.172C221.412 308.021 220.538 306.895 220.69 305.66C220.842 304.424 221.962 303.543 223.191 303.694C224.419 303.845 225.311 304.973 225.16 306.208C225.008 307.444 223.887 308.325 222.641 308.172Z" fill="#02001C" stroke="#9D9D9D"/>
<path d="M69.9728 43.7132C70.4764 39.612 70.9866 35.457 71.5033 31.2483C74.4551 31.6471 77.4068 32.0459 80.3785 32.4289C85.1733 32.9813 86.4354 36.0995 85.7669 41.544C85.1138 46.8631 83.247 48.6699 78.5754 47.1147C75.6962 46.1249 72.8168 44.9896 69.9728 43.7132ZM78.7337 45.8252C82.332 46.9942 83.8901 45.6402 84.4333 41.2166C84.9984 36.6139 83.8911 34.2964 80.2114 33.79C77.6937 33.39 75.1759 32.99 72.6626 32.5541C72.2228 36.136 71.7918 39.6462 71.3696 43.0849C73.8126 44.0938 76.2665 45.0132 78.7337 45.8252Z" fill="white"/>
<path d="M87.279 49.6922C87.8706 44.8746 88.5303 39.5018 89.2559 33.5917C89.6833 33.6441 90.1285 33.6988 90.5559 33.7513L88.5614 49.9951C88.1406 49.8889 87.702 49.7805 87.2812 49.6743L87.279 49.6922Z" fill="white"/>
<path d="M105.482 40.2742C105.325 38.3098 103.074 36.3246 99.9601 35.924C95.704 35.4014 93.8497 36.6645 93.5726 38.921C93.2296 41.7149 95.2918 42.5862 96.8523 42.8324C98.4684 43.0672 99.5811 42.9856 101.467 43.2353C104.316 43.5852 106.094 44.8579 105.678 48.2427C105.317 51.1799 102.997 53.1492 97.6543 52.3478C94.0568 51.7606 91.4947 49.9553 90.9381 46.8328C91.3787 46.7779 91.8015 46.7207 92.2421 46.6657C92.6707 49.0635 94.7206 50.6241 97.895 51.123C102.118 51.7687 104.03 50.331 104.298 48.2915C104.591 45.9095 103.154 44.9514 101.162 44.6886C99.6657 44.5049 98.4796 44.5956 96.741 44.3276C94.7397 43.991 91.6266 42.8452 92.1324 38.726C92.6359 34.6248 96.661 33.9373 100.149 34.3838C104.085 34.867 106.49 37.362 106.698 39.7873C106.298 39.9563 105.88 40.1231 105.479 40.2921L105.482 40.2742Z" fill="white"/>
<path d="M122.995 49.4237C121.64 52.6568 118.998 54.1504 114.7 53.9681C109.461 53.652 106.972 51.6921 107.794 44.9939C108.641 38.0988 111.666 35.6889 116.855 36.4169C121.094 36.9373 123.135 38.715 123.755 42.7906C123.321 42.9373 122.868 43.0998 122.432 43.2644C122.008 39.9401 120.397 38.4879 116.653 38.0645C112.094 37.5048 109.865 39.4671 109.168 45.1444C108.488 50.6784 110.267 52.3875 114.859 52.6786C118.687 52.8578 120.726 51.5629 121.815 48.8788C122.207 49.0723 122.601 49.248 122.995 49.4237Z" fill="white"/>
<path d="M132.087 54.1395C126.801 54.1995 124.095 52.5401 124.862 46.2897C125.649 39.8781 128.815 37.7945 134.004 38.5225C139.2 39.1968 141.794 41.4787 141.13 46.8873C140.47 52.2602 137.381 54.0079 132.085 54.1574L132.087 54.1395ZM133.831 39.9374C129.272 39.3776 126.889 41.1211 126.247 46.3506C125.615 51.4906 127.603 52.9708 132.236 52.9217C136.877 52.8188 139.227 51.344 139.781 46.8308C140.34 42.2818 138.398 40.4255 133.833 39.9195L133.831 39.9374Z" fill="white"/>
<path d="M148.163 53.2047C146.141 49.2115 144.152 44.9496 142.232 39.9691C142.749 40.0325 143.247 40.0937 143.764 40.1571C145.495 44.6055 147.282 48.4607 149.112 52.1032C151.781 48.3224 154.427 44.7387 157.006 41.6922C157.487 41.7512 157.986 41.8125 158.466 41.8715C155.629 45.1045 152.688 49.0337 149.741 53.1622C149.214 53.1883 148.688 53.1965 148.161 53.2227L148.163 53.2047Z" fill="white"/>
<path d="M158.641 52.8187C159.105 49.0398 159.547 45.44 159.965 42.0373C164.546 42.5634 169.124 43.1074 173.706 43.6335L173.624 44.2962C169.464 43.8763 165.321 43.4585 161.159 43.0565L160.71 46.71C164.779 46.846 168.843 47.0178 172.903 47.2254C172.872 47.4761 172.839 47.7448 172.808 47.9955C168.744 47.8237 164.671 47.7236 160.598 47.6234L160.095 51.7247C164.392 51.6161 168.683 51.5612 172.965 51.5779C172.926 51.9003 172.888 52.2048 172.849 52.5271C168.13 52.5295 163.397 52.6573 158.641 52.8187Z" fill="white"/>
<path d="M188.517 52.9967C186.753 51.762 185.569 50.5077 184.98 49.4173C182.22 49.2238 179.436 49.0819 176.665 48.978C176.528 50.0884 176.383 51.2704 176.229 52.5241C175.777 52.5232 175.343 52.5244 174.894 52.5056L175.954 43.8732C179.391 44.2952 182.832 44.6814 186.269 45.1034C189.35 45.4817 190.753 46.2721 190.601 47.5078C190.434 48.869 188.822 49.489 186.365 49.4782C186.994 50.5371 188.249 51.8002 190.167 53.1083C189.613 53.0584 189.074 53.0286 188.517 52.9967ZM177.192 44.6798C177.06 45.7543 176.915 46.9363 176.759 48.2079C179.635 48.3429 182.488 48.5114 185.353 48.7359C187.554 48.9153 189.087 48.5036 189.226 47.3753C189.338 46.4619 188.287 45.8965 186.183 45.6564C183.187 45.3249 180.191 44.9934 177.192 44.6798Z" fill="white"/>
<path d="M74.838 49.7281C72.689 48.8279 70.5687 47.8404 68.4417 46.7612L68.5802 45.6329C73.2463 47.9692 77.9518 49.8377 82.7234 51.3144C82.6729 51.7263 82.6201 52.1561 82.5695 52.568C80.3941 51.8828 78.2475 51.1102 76.0918 50.2638C75.6146 54.1501 75.1682 57.7858 74.7504 61.1885C74.3362 61.0286 73.9064 60.8486 73.4922 60.6886L74.838 49.7281Z" fill="white"/>
<path d="M95.8241 66.812L96.5409 60.9735C92.5361 60.3182 88.5599 59.43 84.6188 58.2553C84.3571 60.3865 84.1153 62.3566 83.8888 64.2012C83.4702 64.0771 83.0338 63.9508 82.6152 63.8267C83.0506 60.2806 83.5453 56.251 84.1039 51.702C84.5225 51.8262 84.9589 51.9525 85.3775 52.0766C85.162 53.8317 84.9553 55.5152 84.7574 57.127C88.7006 58.2838 92.6768 59.172 96.6817 59.8273L97.3128 54.6873C97.7402 54.7398 98.181 54.8303 98.6084 54.8828C98.03 59.593 97.5353 63.6226 97.1196 67.0075C96.6923 66.955 96.2493 66.8824 95.8241 66.812Z" fill="white"/>
<path d="M99.6418 67.3717L101.131 55.247C105.703 55.8448 110.306 56.1918 114.929 56.3776C114.878 56.7896 114.83 57.1836 114.781 57.5776C110.588 57.4263 106.43 57.1339 102.281 56.6245C102.081 58.2542 101.892 59.7944 101.711 61.263C105.736 61.7572 109.787 62.0364 113.856 62.1724L113.726 63.229C109.657 63.0931 105.606 62.8138 101.582 62.3197C101.397 63.824 101.223 65.2389 101.063 66.5463C105.283 67.0645 109.532 67.3499 113.799 67.492C113.757 67.8323 113.718 68.1546 113.678 68.477C108.982 68.3003 104.307 67.9445 99.6462 67.3359L99.6418 67.3717Z" fill="white"/>
<path d="M136.532 56.2124C136.968 56.1933 137.422 56.1763 137.859 56.1571L136.933 63.697C136.383 68.1743 133.724 68.6296 128.354 68.7883C123.919 68.8436 122.073 68.2715 122.565 64.2598C122.86 61.86 123.177 59.281 123.515 56.523C123.985 56.5261 124.437 56.527 124.908 56.5122C124.568 59.2882 124.251 61.8672 123.954 64.2849C123.58 67.3295 124.943 67.8604 128.713 67.778C133.068 67.6401 135.186 67.173 135.598 63.8239C135.897 61.3882 136.209 58.8451 136.534 56.1945L136.532 56.2124Z" fill="white"/>
<path d="M153.635 67.3839C153.749 66.4526 153.866 65.5034 153.978 64.59C149.817 62.1157 145.634 59.8205 141.466 57.2545C141.004 61.0155 140.56 64.6332 140.133 68.1076C139.697 68.1267 139.243 68.1437 138.805 68.1808L140.293 56.0561C140.856 56.0344 141.439 55.9969 142.002 55.9751C146.03 58.5057 150.095 60.7319 154.158 63.1214C154.486 60.4529 154.805 57.8561 155.119 55.295C155.555 55.2759 156.009 55.2589 156.448 55.2218L154.959 67.3465C154.523 67.3656 154.069 67.3826 153.63 67.4197L153.635 67.3839Z" fill="white"/>
<path d="M157.71 67.1752L159.198 55.0505C159.634 55.0314 160.088 55.0144 160.525 54.9952L159.036 67.1199C158.6 67.1391 158.146 67.156 157.71 67.1752Z" fill="white"/>
<path d="M177.636 62.8591C176.333 65.6624 173.692 67.156 169.365 67.2065C164.073 67.3202 161.546 65.6648 162.149 60.7576C162.743 55.922 165.656 54.4254 170.948 54.3117C175.257 54.259 177.417 55.0696 178.204 57.7841C177.773 57.9129 177.324 58.0396 176.892 58.1684C176.337 55.9186 174.633 55.2186 170.83 55.2788C166.187 55.3996 164.044 56.6635 163.553 60.6573C163.056 64.7048 164.872 66.1095 169.515 65.9887C173.374 65.9171 175.406 64.6759 176.444 62.4037C176.843 62.5436 177.241 62.6834 177.64 62.8232L177.636 62.8591Z" fill="white"/>
<path d="M186.732 67.5391C181.486 67.2767 178.825 65.2412 179.432 60.2982C180.022 55.4985 183.069 54.382 188.313 54.6622C193.541 55.0679 196.241 56.4901 195.656 61.254C195.045 66.2328 191.958 67.9627 186.732 67.5391ZM188.201 55.5756C183.602 55.3382 181.309 56.3474 180.823 60.3054C180.322 64.3887 182.285 66.066 186.884 66.3034C191.469 66.6482 193.815 65.2092 194.318 61.1079C194.804 57.15 192.786 55.9205 188.199 55.5935L188.201 55.5756Z" fill="white"/>
<path d="M210.319 70.6534C208.662 68.5411 207.58 66.463 207.07 64.7279C204.362 64.1046 201.64 63.6067 198.888 63.1961L198.27 68.2287C197.825 68.174 197.398 68.1215 196.955 68.049C197.533 63.3388 198.03 59.2913 198.443 55.9243C201.876 56.3821 205.291 56.9832 208.684 57.7634C211.725 58.464 213.023 60.1141 212.763 62.2274C212.478 64.5556 210.852 65.2832 208.432 64.9679C208.978 66.7074 210.129 68.8122 211.933 71.0516C211.392 70.8942 210.867 70.757 210.323 70.6176L210.319 70.6534ZM199.645 57.0353L199.022 62.1037C201.863 62.5251 204.672 63.0519 207.486 63.6883C209.648 64.1901 211.181 63.7784 211.416 61.862C211.608 60.3039 210.627 59.1654 208.552 58.6925C205.597 58.0207 202.628 57.4743 199.645 57.0353Z" fill="white"/>
<path d="M227.741 77.0102L228.082 74.2343C224.218 69.3422 220.314 64.7725 216.302 60.9349L214.948 71.9671C214.529 71.843 214.095 71.6988 213.676 71.5747C214.233 67.0436 214.73 62.9961 215.165 59.45C215.706 59.6073 216.263 59.7847 216.802 59.96C220.693 63.601 224.492 67.9942 228.265 72.7478L229.232 64.8676C229.642 65.0634 230.068 65.2792 230.477 65.475C229.98 69.5225 229.486 73.5521 228.989 77.5997C228.581 77.386 228.153 77.1881 227.744 76.9923L227.741 77.0102Z" fill="white"/>
<path d="M66.5881 72.4574C67.0609 68.6069 67.5425 64.6848 68.0284 60.7268C68.4382 60.9225 68.8681 61.1026 69.2801 61.2804L67.8859 72.635C67.4585 72.5825 67.0133 72.5278 66.5859 72.4753L66.5881 72.4574Z" fill="white"/>
<path d="M85.2934 73.3725C81.1103 71.0773 77.024 67.9941 73.0364 63.9595C72.634 67.2369 72.2579 70.2994 71.9061 73.1649C71.4787 73.1125 71.0335 73.0578 70.6061 73.0053C71.0151 69.6742 71.4505 66.1281 71.9101 62.385C72.4446 62.5961 72.9968 62.8093 73.5313 63.0204C77.3808 67.0017 81.3359 70.1233 85.3989 72.5129L86.0894 66.8893C86.5102 66.9955 86.951 67.086 87.3718 67.1922C86.976 70.4159 86.6527 73.0486 86.402 75.0903C85.9747 75.0378 85.5295 74.9831 85.1021 74.9306L85.2934 73.3725Z" fill="white"/>
<path d="M101.396 76.9313C101.484 76.215 101.588 75.3732 101.704 74.424C99.4651 72.7856 97.2567 70.8965 95.0901 68.6671C95.6222 68.7506 96.172 68.8363 96.7041 68.9198C98.6031 70.8255 100.515 72.4782 102.467 73.9541C104.687 72.9541 106.953 71.7234 109.229 70.2578C109.75 70.2854 110.287 70.333 110.808 70.3606C108.173 72.0914 105.598 73.4841 103.04 74.588C102.923 75.5372 102.82 76.3789 102.732 77.0953C102.287 77.0407 101.842 76.986 101.396 76.9313Z" fill="white"/>
<path d="M117.704 79.1155C112.515 78.3875 109.706 77.5698 110.068 74.6148C110.453 71.4806 113.523 70.185 118.78 70.3578C124.054 70.3874 126.752 71.8275 126.29 75.5885C125.839 79.2599 122.904 79.754 117.704 79.1155ZM118.672 71.2354C114.062 71.0875 111.767 72.1146 111.446 74.7294C111.143 77.2009 113.22 77.9468 117.777 78.5245C122.342 79.0305 124.576 78.5049 124.941 75.5319C125.315 72.4873 123.292 71.2936 118.672 71.2354Z" fill="white"/>
<path d="M141.904 70.3247C142.34 70.3055 142.794 70.2886 143.23 70.2694C142.94 72.6335 142.652 74.9796 142.37 77.272C141.84 81.5882 139.232 81.6315 133.961 80.9843C129.602 80.4127 127.769 79.7332 128.148 76.6528L128.882 70.6711C129.352 70.6742 129.806 70.6572 130.278 70.6424L129.525 76.7674C129.231 79.1673 130.589 79.7341 134.298 80.153C138.583 80.5883 140.661 80.4435 141.048 77.2915C141.327 75.017 141.613 72.6887 141.904 70.3247Z" fill="white"/>
<path d="M29.5397 318.984L29.6822 319.002C29.6564 319.653 29.8264 320.183 30.2076 320.612C30.5888 321.04 31.1701 321.312 31.9714 321.41C32.6482 321.493 33.2 321.415 33.6313 321.141C34.0427 320.883 34.2892 320.495 34.3529 319.975C34.4167 319.456 34.2892 319.022 33.946 318.726C33.6028 318.429 33.0416 318.142 32.24 317.898C31.4918 317.661 30.9462 317.394 30.6208 317.099C30.2954 316.805 30.1635 316.407 30.2251 315.905C30.2867 315.404 30.5287 315.052 30.9379 314.811C31.3648 314.573 31.8989 314.493 32.5399 314.572C33.181 314.65 33.7311 314.881 34.0789 315.288C34.4289 315.676 34.621 316.172 34.6375 316.774L34.495 316.757C34.4742 316.191 34.3154 315.717 33.9789 315.366C33.6423 315.016 33.1634 314.794 32.5402 314.717C31.9169 314.641 31.4207 314.707 31.0315 314.932C30.6446 315.139 30.4225 315.475 30.3653 315.941C30.3082 316.406 30.4267 316.766 30.7364 317.041C31.0462 317.315 31.5584 317.56 32.271 317.793C33.0904 318.039 33.6873 318.33 34.0617 318.667C34.4204 318.984 34.5636 319.438 34.4932 320.011C34.4228 320.584 34.1564 320.987 33.725 321.262C33.2758 321.534 32.684 321.643 31.9717 321.555C31.1347 321.453 30.5178 321.177 30.1054 320.708C29.7107 320.242 29.5274 319.674 29.5553 319.004L29.5397 318.984Z" fill="white"/>
<path d="M38.9812 322.325L38.8387 322.308L39.6524 315.681L37.1593 315.375L37.1746 315.25L42.3034 315.879L42.288 316.005L39.7948 315.699L38.9812 322.325Z" fill="white"/>
<path d="M48.1345 323.449L47.5054 320.918L44.3356 320.528L43.1127 322.832L42.9702 322.815L46.3814 316.38L46.5417 316.4L48.2948 323.469L48.1345 323.449ZM46.4306 316.568L44.3888 320.39L47.4695 320.768L46.4128 316.566L46.4306 316.568Z" fill="white"/>
<path d="M51.4265 320.636L51.0372 323.805L50.8948 323.788L51.7238 317.036L54.2347 317.344C54.858 317.421 55.3547 317.646 55.6734 317.994C56.01 318.344 56.1331 318.814 56.0628 319.387C55.944 320.354 55.4106 320.87 54.4626 320.936C55.2308 321.157 55.5744 321.745 55.4935 322.698C55.3969 323.632 55.4378 324.182 55.5605 324.361L55.398 324.359C55.2731 324.198 55.2501 323.65 55.3466 322.717C55.4385 321.674 54.9859 321.091 53.9886 320.968L51.4065 320.651L51.4265 320.636ZM51.8509 317.179L51.4419 320.51L53.7569 320.794C55.0747 320.956 55.8018 320.482 55.9381 319.372C56.0041 318.834 55.8744 318.418 55.5734 318.072C55.2702 317.744 54.807 317.542 54.2193 317.47L51.8509 317.179Z" fill="white"/>
<path d="M60.4399 324.96L60.2974 324.942L61.111 318.316L58.6179 318.01L58.6333 317.885L63.762 318.514L63.7466 318.64L61.2535 318.333L60.4399 324.96Z" fill="white"/>
<path d="M66.362 318.833L66.5045 318.851L65.9481 323.382C65.8558 324.134 66.0013 324.716 66.3691 325.106C66.7525 325.517 67.2647 325.762 67.9593 325.847C68.6538 325.932 69.21 325.819 69.6814 325.513C70.1527 325.207 70.4324 324.696 70.5248 323.944L71.0811 319.413L71.2236 319.43L70.6672 323.961C70.5705 324.749 70.2664 325.312 69.775 325.634C69.2837 325.955 68.674 326.062 67.9617 325.974C67.2494 325.887 66.6837 325.636 66.2847 325.205C65.8856 324.774 65.7267 324.155 65.8235 323.367L66.3798 318.836L66.362 318.833Z" fill="white"/>
<path d="M73.9336 323.417L73.5466 326.569L73.4041 326.552L74.2331 319.8L76.6194 320.093C77.1002 320.152 77.4988 320.292 77.8152 320.512C78.3298 320.885 78.551 321.439 78.4652 322.138C78.3949 322.711 78.1618 323.136 77.7661 323.415C77.3703 323.694 76.8185 323.771 76.124 323.686L73.9336 323.417ZM74.3602 319.943L73.949 323.292L76.1216 323.559C76.7805 323.64 77.2967 323.557 77.6702 323.312C78.0259 323.065 78.2546 322.675 78.3228 322.12C78.3909 321.565 78.259 321.167 77.9581 320.821C77.6549 320.493 77.1917 320.29 76.604 320.218L74.3602 319.943Z" fill="white"/>
<path d="M89.7137 325.337L87.2918 325.039L87.3072 324.914L89.8537 325.227L89.4491 328.522L89.3067 328.504L89.542 326.588C89.3648 327.148 89.0204 327.597 88.5291 327.918C88.0199 328.237 87.4458 328.349 86.8048 328.27C85.8075 328.147 85.0813 327.731 84.5907 327.016C84.1 326.302 83.9162 325.443 84.0393 324.44C84.1163 323.813 84.2935 323.253 84.5888 322.762C84.8841 322.271 85.2908 321.903 85.8134 321.622C86.3338 321.358 86.9234 321.267 87.5823 321.348C88.3125 321.438 88.8959 321.691 89.295 322.122C89.7118 322.555 89.9373 323.073 89.9538 323.675L89.8292 323.66C89.7905 323.092 89.5783 322.611 89.1927 322.218C88.8093 321.808 88.2593 321.577 87.5647 321.491C86.6209 321.375 85.8512 321.608 85.2556 322.19C84.66 322.771 84.2961 323.526 84.1796 324.475C84.063 325.425 84.2312 326.263 84.7063 326.958C85.1636 327.65 85.8741 328.047 86.8358 328.165C87.5659 328.254 88.1843 328.076 88.7245 327.651C89.2647 327.227 89.5798 326.575 89.6831 325.733L89.7293 325.357L89.7137 325.337Z" fill="white"/>
<path d="M93.0438 325.745L92.6546 328.915L92.5121 328.898L93.3411 322.146L95.8521 322.454C96.4753 322.531 96.972 322.756 97.2908 323.104C97.6274 323.454 97.7505 323.924 97.6801 324.497C97.5613 325.464 97.028 325.98 96.08 326.046C96.8481 326.267 97.1917 326.855 97.1108 327.808C97.0143 328.742 97.0551 329.292 97.1778 329.471L97.0153 329.469C96.8905 329.308 96.8674 328.76 96.9639 327.827C97.0559 326.783 96.6032 326.201 95.606 326.078L93.0238 325.761L93.0438 325.745ZM93.4682 322.289L93.0592 325.62L95.3742 325.904C96.692 326.066 97.4191 325.592 97.5554 324.481C97.6214 323.944 97.4917 323.528 97.1907 323.182C96.8876 322.854 96.4243 322.652 95.8367 322.58L93.4682 322.289Z" fill="white"/>
<path d="M100.981 323.084L100.152 329.836L100.009 329.818L100.838 323.067L100.981 323.084Z" fill="white"/>
<path d="M109.155 324.088L108.326 330.84L108.183 330.822L104.247 323.721L103.446 330.24L103.304 330.223L104.133 323.471L104.275 323.489L108.212 330.589L109.012 324.07L109.155 324.088Z" fill="white"/>
<path d="M111.46 331.224L112.289 324.473L114.746 324.774C115.209 324.831 115.626 324.973 115.958 325.214C116.29 325.455 116.544 325.74 116.72 326.071C116.894 326.42 117.011 326.798 117.069 327.205C117.128 327.612 117.128 328.048 117.071 328.514C116.952 329.481 116.622 330.258 116.064 330.826C115.506 331.394 114.772 331.631 113.846 331.517L111.46 331.224ZM113.862 331.392C114.681 331.493 115.357 331.285 115.908 330.771C116.459 330.257 116.788 329.497 116.911 328.494C117.034 327.491 116.899 326.675 116.509 326.027C116.118 325.379 115.532 324.998 114.713 324.898L112.38 324.611L111.582 331.112L113.862 331.392Z" fill="white"/>
<path d="M128.036 328.133C127.992 328.491 127.848 328.783 127.601 329.025C127.354 329.267 127.03 329.409 126.66 329.473C127.112 329.62 127.444 329.86 127.674 330.198C127.904 330.535 127.982 330.926 127.929 331.356C127.859 331.929 127.608 332.353 127.155 332.661C126.721 332.953 126.185 333.051 125.544 332.972L122.873 332.644L123.702 325.892L126.213 326.2C126.818 326.275 127.281 326.477 127.622 326.792C127.959 327.142 128.102 327.596 128.034 328.151L128.036 328.133ZM123.831 326.017L123.464 329.008L126.153 329.338C126.598 329.393 126.992 329.277 127.327 329.046C127.663 328.815 127.847 328.492 127.896 328.098C127.959 327.578 127.83 327.162 127.522 326.87C127.215 326.578 126.769 326.378 126.199 326.308L123.831 326.017ZM126.153 329.484L123.446 329.151L123.033 332.518L125.544 332.826C126.131 332.899 126.65 332.799 127.061 332.54C127.475 332.264 127.721 331.876 127.787 331.339C127.846 330.855 127.734 330.441 127.431 330.113C127.128 329.785 126.703 329.569 126.153 329.484Z" fill="white"/>
<path d="M135.127 334.13L134.498 331.599L131.328 331.21L130.105 333.514L129.962 333.496L133.374 327.061L133.534 327.081L135.287 334.15L135.127 334.13ZM133.423 327.249L131.381 331.071L134.462 331.449L133.405 327.247L133.423 327.249Z" fill="white"/>
<path d="M143.328 328.284L140.085 330.703L142.927 335.088L142.766 335.068L139.985 330.782L138.333 332.015L138.029 334.487L137.887 334.469L138.716 327.717L138.858 327.735L138.355 331.836L143.15 328.262L143.346 328.286L143.328 328.284Z" fill="white"/>
<path d="M145.946 328.605L146.089 328.623L145.532 333.154C145.44 333.906 145.585 334.487 145.953 334.878C146.337 335.289 146.849 335.533 147.543 335.619C148.238 335.704 148.794 335.59 149.265 335.285C149.737 334.979 150.016 334.468 150.109 333.716L150.665 329.185L150.808 329.202L150.251 333.733C150.155 334.521 149.85 335.084 149.359 335.405C148.868 335.727 148.258 335.834 147.546 335.746C146.833 335.659 146.268 335.407 145.869 334.977C145.47 334.546 145.311 333.926 145.407 333.138L145.964 328.607L145.946 328.605Z" fill="white"/>
<path d="M152.137 337.364L152.157 337.203C152.391 337.068 152.521 336.739 152.579 336.273L152.642 335.754L152.785 335.771L152.717 336.327C152.686 336.577 152.624 336.788 152.548 336.96C152.473 337.133 152.329 337.279 152.117 337.38L152.137 337.364Z" fill="white"/>
<path d="M160.396 337.233L159.767 334.702L156.597 334.312L155.374 336.616L155.232 336.599L158.643 330.164L158.803 330.184L160.557 337.253L160.396 337.233ZM158.692 330.352L156.651 334.174L159.731 334.552L158.675 330.35L158.692 330.352Z" fill="white"/>
<path d="M163.828 330.928L163.843 330.803L168.438 331.367L168.422 331.492L162.996 337.407L167.858 338.004L167.842 338.129L162.82 337.513L162.836 337.387L168.262 331.472L163.828 330.928Z" fill="white"/>
<path d="M32.0977 303.01L31.2687 309.762L31.1262 309.744L31.9552 302.992L32.0977 303.01Z" fill="white"/>
<path d="M40.2716 304.013L39.4425 310.765L39.3001 310.748L35.3636 303.647L34.5632 310.166L34.4207 310.149L35.2497 303.397L35.3922 303.414L39.3287 310.515L40.1291 303.996L40.2716 304.013Z" fill="white"/>
<path d="M44.785 311.421L44.6425 311.404L45.4561 304.777L42.963 304.471L42.9784 304.346L48.1071 304.975L48.0917 305.101L45.5986 304.795L44.785 311.421Z" fill="white"/>
<path d="M50.585 308.497L54.5027 308.978L54.4873 309.104L50.5696 308.623L50.1628 311.936L54.5079 312.47L54.4925 312.595L50.0049 312.044L50.8339 305.292L55.2147 305.83L55.1993 305.955L50.961 305.435L50.585 308.497Z" fill="white"/>
<path d="M57.8713 309.81L57.4821 312.98L57.3396 312.963L58.1686 306.211L60.6796 306.519C61.3028 306.596 61.7995 306.82 62.1183 307.168C62.4548 307.519 62.578 307.988 62.5076 308.562C62.3888 309.529 61.8555 310.045 60.9075 310.11C61.6756 310.332 62.0192 310.919 61.9383 311.873C61.8418 312.806 61.8826 313.357 62.0053 313.536L61.8428 313.534C61.718 313.373 61.6949 312.825 61.7914 311.891C61.8834 310.848 61.4307 310.265 60.4335 310.143L57.8513 309.826L57.8713 309.81ZM58.2957 306.354L57.8867 309.685L60.2017 309.969C61.5195 310.131 62.2466 309.657 62.3829 308.546C62.4489 308.009 62.3192 307.593 62.0182 307.247C61.7151 306.919 61.2518 306.717 60.6642 306.644L58.2957 306.354Z" fill="white"/>
<path d="M70.6699 307.746L69.8408 314.498L69.6984 314.48L65.7619 307.379L64.9614 313.899L64.819 313.881L65.648 307.129L65.7905 307.147L69.727 314.247L70.5274 307.728L70.6699 307.746Z" fill="white"/>
<path d="M77.6407 315.455L77.0116 312.924L73.8418 312.535L72.6189 314.839L72.4764 314.821L75.8876 308.386L76.0479 308.406L77.801 315.475L77.6407 315.455ZM75.9369 308.574L73.895 312.396L76.9758 312.774L75.919 308.572L75.9369 308.574Z" fill="white"/>
<path d="M81.8969 315.978L81.7544 315.96L82.568 309.334L80.0749 309.028L80.0903 308.902L85.219 309.532L85.2036 309.658L82.7105 309.351L81.8969 315.978Z" fill="white"/>
<path d="M88.0861 309.884L87.2571 316.636L87.1146 316.619L87.9436 309.867L88.0861 309.884Z" fill="white"/>
<path d="M95.6656 316.76C94.9987 317.332 94.1912 317.578 93.283 317.467C92.3748 317.355 91.6664 316.941 91.1579 316.224C90.6494 315.507 90.4479 314.646 90.571 313.643C90.6941 312.64 91.098 311.854 91.7649 311.281C92.4317 310.709 93.2214 310.46 94.1296 310.572C95.0378 310.683 95.764 311.1 96.2703 311.834C96.7788 312.551 96.9782 313.43 96.8572 314.415C96.7363 315.4 96.3302 316.205 95.6634 316.777L95.6656 316.76ZM93.3006 317.324C94.1732 317.431 94.9429 317.198 95.5719 316.639C96.2009 316.08 96.5826 315.327 96.6992 314.378C96.8157 313.428 96.6275 312.605 96.1524 311.911C95.6596 311.214 94.9868 310.804 94.1142 310.697C93.2416 310.59 92.4719 310.823 91.8429 311.382C91.2139 311.941 90.83 312.712 90.7135 313.661C90.5969 314.61 90.7851 315.433 91.2602 316.128C91.7353 316.822 92.4258 317.234 93.2984 317.341L93.3006 317.324Z" fill="white"/>
<path d="M105.182 311.983L104.353 318.735L104.21 318.718L100.274 311.617L99.4734 318.136L99.3309 318.119L100.16 311.367L100.302 311.384L104.239 318.485L105.039 311.966L105.182 311.983Z" fill="white"/>
<path d="M112.135 319.691L111.506 317.159L108.336 316.77L107.113 319.074L106.971 319.057L110.382 312.622L110.542 312.641L112.295 319.71L112.135 319.691ZM110.431 312.81L108.389 316.631L111.47 317.009L110.413 312.807L110.431 312.81Z" fill="white"/>
<path d="M115.867 313.295L115.053 319.922L119.095 320.418L119.08 320.543L114.895 320.03L115.724 313.278L115.867 313.295Z" fill="white"/>
<path d="M128.18 321.661L126.062 314.765L125.259 321.302L125.117 321.285L125.946 314.533L126.142 314.557L128.253 321.506L131.983 315.274L132.197 315.3L131.368 322.052L131.225 322.035L132.028 315.498L128.322 321.678L128.18 321.661Z" fill="white"/>
<path d="M135.102 318.875L139.02 319.356L139.004 319.481L135.086 319L134.68 322.313L139.025 322.847L139.009 322.972L134.522 322.421L135.351 315.669L139.732 316.207L139.716 316.333L135.478 315.812L135.102 318.875Z" fill="white"/>
<path d="M142.439 319.776L146.356 320.257L146.341 320.382L142.423 319.901L142.017 323.214L146.362 323.748L146.346 323.873L141.859 323.322L142.688 316.57L147.068 317.108L147.053 317.234L142.815 316.713L142.439 319.776Z" fill="white"/>
<path d="M151.419 324.514L151.277 324.497L152.091 317.87L149.597 317.564L149.613 317.439L154.742 318.068L154.726 318.194L152.233 317.888L151.419 324.514Z" fill="white"/>
<path d="M157.342 318.388L157.484 318.405L156.928 322.936C156.835 323.688 156.981 324.27 157.349 324.66C157.732 325.071 158.244 325.316 158.939 325.401C159.633 325.486 160.19 325.373 160.661 325.067C161.132 324.761 161.412 324.25 161.504 323.498L162.061 318.967L162.203 318.985L161.647 323.516C161.55 324.304 161.246 324.866 160.755 325.188C160.263 325.509 159.654 325.616 158.941 325.529C158.229 325.441 157.663 325.19 157.264 324.759C156.865 324.328 156.706 323.709 156.803 322.921L157.359 318.39L157.342 318.388Z" fill="white"/>
<path d="M164.913 322.971L164.526 326.124L164.384 326.106L165.213 319.354L167.599 319.647C168.08 319.706 168.478 319.846 168.795 320.067C169.309 320.439 169.531 320.993 169.445 321.692C169.374 322.265 169.141 322.691 168.746 322.969C168.35 323.248 167.798 323.326 167.103 323.24L164.913 322.971ZM165.34 319.497L164.929 322.846L167.101 323.113C167.76 323.194 168.276 323.112 168.65 322.867C169.005 322.619 169.234 322.229 169.302 321.674C169.37 321.119 169.239 320.721 168.938 320.375C168.634 320.047 168.171 319.845 167.584 319.773L165.34 319.497Z" fill="white"/>
<path d="M178.877 327.758L178.862 327.884L174.481 327.346C174.518 327.041 174.607 326.761 174.727 326.522C174.846 326.282 175 326.064 175.146 325.9C175.293 325.737 175.493 325.579 175.747 325.429C175.982 325.276 176.213 325.159 176.405 325.073C176.596 324.988 176.843 324.891 177.128 324.78C177.375 324.683 177.564 324.616 177.677 324.575C177.791 324.534 177.944 324.462 178.153 324.379C178.362 324.296 178.5 324.203 178.6 324.125C178.7 324.046 178.802 323.95 178.925 323.837C179.047 323.725 179.136 323.591 179.189 323.452C179.242 323.313 179.28 323.154 179.302 322.975C179.368 322.437 179.242 321.986 178.928 321.602C178.614 321.218 178.155 320.98 177.549 320.905C176.89 320.824 176.385 320.962 175.979 321.331C175.59 321.701 175.352 322.163 175.284 322.718L175.159 322.702C175.232 322.111 175.474 321.614 175.901 321.23C176.309 320.844 176.87 320.695 177.565 320.78C178.206 320.859 178.7 321.101 179.028 321.523C179.358 321.927 179.494 322.435 179.424 323.008C179.402 323.187 179.362 323.364 179.309 323.503C179.256 323.642 179.167 323.776 179.043 323.906C178.918 324.037 178.816 324.133 178.736 324.196C178.654 324.277 178.5 324.349 178.289 324.45C178.078 324.551 177.924 324.624 177.849 324.651C177.753 324.693 177.582 324.763 177.335 324.86C177.259 324.887 177.201 324.917 177.163 324.93C176.823 325.052 176.536 325.18 176.305 325.297C176.074 325.414 175.84 325.549 175.582 325.736C175.324 325.922 175.118 326.133 174.96 326.387C174.802 326.64 174.696 326.918 174.636 327.256L178.875 327.776L178.877 327.758Z" fill="white"/>
<path d="M183.91 328.576C183.144 328.482 182.576 328.103 182.228 327.406C181.86 326.725 181.75 325.857 181.877 324.818C182.005 323.779 182.34 322.966 182.879 322.396C183.419 321.826 184.047 321.576 184.759 321.663C185.471 321.751 186.022 322.127 186.408 322.811C186.776 323.493 186.904 324.363 186.774 325.419C186.645 326.476 186.33 327.274 185.825 327.848C185.321 328.422 184.678 328.652 183.912 328.558L183.91 328.576ZM182.328 327.328C182.665 327.969 183.198 328.343 183.928 328.433C184.658 328.523 185.247 328.286 185.73 327.745C186.194 327.202 186.507 326.423 186.632 325.402C186.757 324.381 186.642 323.549 186.288 322.905C185.933 322.262 185.418 321.89 184.741 321.807C184.065 321.723 183.457 321.958 182.955 322.514C182.453 323.071 182.141 323.851 182.017 324.853C181.894 325.856 181.989 326.704 182.326 327.346L182.328 327.328Z" fill="white"/>
<path d="M193.248 329.523L193.233 329.648L188.852 329.11C188.889 328.806 188.978 328.526 189.098 328.286C189.217 328.046 189.371 327.829 189.517 327.665C189.664 327.501 189.864 327.344 190.118 327.193C190.353 327.04 190.585 326.923 190.776 326.838C190.967 326.752 191.214 326.655 191.499 326.545C191.746 326.448 191.935 326.38 192.048 326.34C192.162 326.299 192.315 326.227 192.524 326.143C192.733 326.06 192.871 325.968 192.971 325.889C193.071 325.811 193.173 325.714 193.296 325.602C193.418 325.49 193.507 325.355 193.56 325.216C193.613 325.077 193.651 324.918 193.673 324.739C193.739 324.202 193.613 323.75 193.299 323.366C192.985 322.982 192.526 322.744 191.92 322.67C191.261 322.589 190.756 322.727 190.35 323.095C189.961 323.465 189.723 323.927 189.655 324.482L189.53 324.467C189.603 323.876 189.845 323.378 190.272 322.995C190.681 322.608 191.241 322.459 191.936 322.544C192.577 322.623 193.071 322.866 193.399 323.288C193.729 323.692 193.866 324.199 193.795 324.772C193.773 324.952 193.733 325.128 193.68 325.267C193.627 325.406 193.538 325.541 193.414 325.671C193.289 325.801 193.187 325.898 193.107 325.961C193.025 326.041 192.871 326.113 192.66 326.215C192.449 326.316 192.295 326.388 192.22 326.415C192.124 326.458 191.953 326.528 191.706 326.625C191.63 326.652 191.572 326.681 191.535 326.695C191.194 326.816 190.907 326.945 190.676 327.062C190.445 327.179 190.211 327.314 189.953 327.5C189.695 327.687 189.489 327.898 189.331 328.151C189.174 328.404 189.067 328.682 189.008 329.02L193.246 329.541L193.248 329.523Z" fill="white"/>
<path d="M197.991 326.669L198.006 326.544L198.647 326.623C199.164 326.686 199.589 326.611 199.96 326.384C200.312 326.173 200.514 325.852 200.564 325.44C200.624 324.956 200.494 324.541 200.175 324.192C199.856 323.844 199.395 323.624 198.772 323.547C198.149 323.471 197.664 323.593 197.281 323.91C196.899 324.226 196.653 324.614 196.558 325.094L196.433 325.078C196.532 324.563 196.783 324.14 197.203 323.809C197.623 323.479 198.146 323.343 198.805 323.424C199.464 323.505 199.961 323.73 200.293 324.116C200.625 324.502 200.77 324.938 200.704 325.475C200.658 325.852 200.496 326.141 200.232 326.381C199.969 326.603 199.609 326.741 199.189 326.78C199.625 326.906 199.977 327.131 200.242 327.473C200.508 327.815 200.606 328.19 200.549 328.656C200.476 329.247 200.221 329.706 199.785 330.016C199.35 330.327 198.776 330.438 198.063 330.35C197.351 330.263 196.805 329.996 196.406 329.565C196.009 329.117 195.819 328.602 195.841 327.987L195.965 328.002C195.964 328.602 196.138 329.096 196.504 329.505C196.87 329.913 197.384 330.14 198.061 330.223C198.738 330.306 199.256 330.206 199.672 329.912C200.087 329.617 200.32 329.191 200.389 328.636C200.452 328.117 200.305 327.699 199.964 327.384C199.623 327.07 199.162 326.849 198.61 326.782L197.969 326.703L197.991 326.669Z" fill="white"/>
<path d="M211.533 354.765L213.528 355.01L208.991 391.957L206.997 391.712L211.533 354.765ZM215.522 355.255L217.517 355.5L212.98 392.447L210.986 392.202L215.522 355.255Z" fill="white"/>
<path d="M207.526 354.273L203.537 353.783L199.001 390.73L202.99 391.22L207.526 354.273Z" fill="white"/>
<path d="M191.553 352.312L193.547 352.557L189.011 389.504L187.016 389.259L191.553 352.312ZM197.554 353.049L199.548 353.293L195.012 390.241L193.017 389.996L197.554 353.049Z" fill="white"/>
<path d="M187.546 351.82L183.557 351.33L179.02 388.277L183.009 388.767L187.546 351.82Z" fill="white"/>
<path d="M181.562 351.085L173.566 350.103L169.03 387.05L177.026 388.032L181.562 351.085Z" fill="white"/>
<path d="M165.571 349.121L167.565 349.366L163.029 386.313L161.034 386.069L165.571 349.121ZM169.56 349.611L171.554 349.856L167.018 386.803L165.023 386.558L169.56 349.611Z" fill="white"/>
<path d="M149.597 347.16L153.586 347.65L149.049 384.597L145.06 384.107L149.597 347.16ZM155.598 347.897L159.587 348.387L155.051 385.334L151.062 384.844L155.598 347.897Z" fill="white"/>
<path d="M137.612 345.689L139.607 345.933L135.07 382.881L133.076 382.636L137.612 345.689ZM141.601 346.178L143.596 346.423L139.059 383.37L137.065 383.126L141.601 346.178Z" fill="white"/>
<path d="M135.618 345.444L127.622 344.462L123.085 381.409L131.081 382.391L135.618 345.444Z" fill="white"/>
<path d="M119.626 343.48L121.62 343.725L117.084 380.672L115.089 380.427L119.626 343.48ZM123.615 343.97L125.609 344.215L121.073 381.162L119.078 380.917L123.615 343.97ZM95.6386 340.535L97.6331 340.78L93.0965 377.727L91.102 377.482L95.6386 340.535ZM101.64 341.272L103.634 341.517L99.0978 378.464L97.1033 378.219L101.64 341.272ZM107.641 342.009L109.636 342.254L105.099 379.201L103.105 378.956L107.641 342.009ZM115.637 342.99L117.631 343.235L113.095 380.182L111.1 379.938L115.637 342.99Z" fill="white"/>
<path d="M89.6551 339.8L83.6538 339.063L79.1172 376.01L85.1185 376.747L89.6551 339.8Z" fill="white"/>
<path d="M81.6593 338.818L79.6648 338.574L75.1282 375.521L77.1227 375.766L81.6593 338.818Z" fill="white"/>
<path d="M35.6968 333.175L39.6858 333.665L35.1492 370.612L31.1602 370.122L35.6968 333.175ZM43.6926 334.157L47.6816 334.647L43.145 371.594L39.156 371.104L43.6926 334.157ZM49.6939 334.894L53.6829 335.383L49.1463 372.331L45.1573 371.841L49.6939 334.894ZM57.6897 335.875L61.6787 336.365L57.1421 373.312L53.1531 372.822L57.6897 335.875ZM63.691 336.612L67.68 337.102L63.1434 374.049L59.1544 373.559L63.691 336.612ZM71.6868 337.594L75.6758 338.084L71.1392 375.031L67.1502 374.541L71.6868 337.594Z" fill="white"/>
<path d="M27.701 332.193L29.6955 332.438L25.1589 369.385L23.1644 369.14L27.701 332.193ZM31.69 332.683L33.6845 332.928L29.1479 369.875L27.1534 369.63L31.69 332.683Z" fill="white"/>
<rect x="-5.71377" y="156.557" width="209.967" height="30.5985" rx="9.5" transform="rotate(7 -5.71377 156.557)" stroke="white"/>
<rect x="6.26279" y="203.909" width="209.967" height="30.5985" rx="9.5" transform="rotate(7 6.26279 203.909)" stroke="white"/>
</g>
<defs>
<clipPath id="clip0_119_113">
<rect width="231.413" height="391.264" fill="white" transform="translate(47.6831) rotate(7)"/>
</clipPath>
</defs>
</svg>
