<svg width="35" height="35" viewBox="0 0 35 35" fill="none" xmlns="http://www.w3.org/2000/svg">
<path d="M17.5 0C7.85105 0 0 7.85105 0 17.5C0 27.149 7.85105 35 17.5 35C27.149 35 35 27.149 35 17.5C35 7.85105 27.149 0 17.5 0ZM31.8215 15.9545H25.2944C25.1244 11.519 24.2074 7.09376 22.6155 4.03371C27.5817 5.92435 31.2342 10.4887 31.8215 15.9545ZM17.5 31.909C15.6866 31.909 13.0954 26.948 12.7914 19.0455H22.2034C21.8995 26.948 19.3134 31.909 17.4948 31.909H17.5ZM12.7914 15.9545C13.0954 8.05196 15.6815 3.09096 17.5 3.09096C19.3185 3.09096 21.9046 8.05196 22.2086 15.9545H12.7966H12.7914ZM12.3793 4.03371C10.7875 7.09376 9.87563 11.5138 9.70047 15.9545H3.17339C3.76067 10.4887 7.41831 5.9295 12.3793 4.03371ZM3.17339 19.0455H9.70047C9.87047 23.481 10.7875 27.9062 12.3793 30.9663C7.41316 29.0757 3.76067 24.5113 3.17339 19.0455ZM22.6155 30.9663C24.2074 27.9062 25.1192 23.4862 25.2944 19.0455H31.8215C31.2342 24.5113 27.5765 29.0705 22.6155 30.9663Z" fill="#FFAD46"/>
</svg>
